G04 Layer: TopSolderMaskLayer*
G04 EasyEDA Pro v2.2.32.3, 2024-10-30 17:41:05*
G04 Gerber Generator version 0.3*
G04 Scale: 100 percent, Rotated: No, Reflected: No*
G04 Dimensions in millimeters*
G04 Leading zeros omitted, absolute positions, 3 integers and 5 decimals*
%FSLAX35Y35*%
%MOMM*%
%AMRoundRect*1,1,$1,$2,$3*1,1,$1,$4,$5*1,1,$1,0-$2,0-$3*1,1,$1,0-$4,0-$5*20,1,$1,$2,$3,$4,$5,0*20,1,$1,$4,$5,0-$2,0-$3,0*20,1,$1,0-$2,0-$3,0-$4,0-$5,0*20,1,$1,0-$4,0-$5,$2,$3,0*4,1,4,$2,$3,$4,$5,0-$2,0-$3,0-$4,0-$5,$2,$3,0*%
%ADD10RoundRect,0.09131X0.40514X-0.45514X-0.40514X-0.45514*%
%ADD11RoundRect,0.09131X-0.40514X0.45514X0.40514X0.45514*%
%ADD12RoundRect,0.09131X-0.40514X0.40514X0.40514X0.40514*%
%ADD13RoundRect,0.09138X0.40835X-0.43712X-0.40835X-0.43712*%
%ADD14RoundRect,0.09138X-0.43712X-0.40835X-0.43712X0.40835*%
%ADD15RoundRect,0.09138X-0.40835X0.43712X0.40835X0.43712*%
%ADD16RoundRect,0.08669X-0.28168X-0.43167X-0.28168X0.43167*%
%ADD17RoundRect,0.08669X0.43167X-0.28168X-0.43167X-0.28168*%
%ADD18RoundRect,0.09396X-0.72804X0.72804X0.72804X0.72804*%
%ADD19RoundRect,0.09093X-0.45455X0.45455X0.45455X0.45455*%
%ADD20RoundRect,0.08669X-0.43167X0.28168X0.43167X0.28168*%
%ADD21RoundRect,0.09368X1.25396X-0.55396X-1.25396X-0.55396*%
%ADD22RoundRect,0.09754X1.17203X-1.80203X-1.17203X-1.80203*%
%ADD23RoundRect,0.09258X-0.45471X0.60471X0.45471X0.60471*%
%ADD24O,1.002X1.302*%
%ADD25RoundRect,0.08756X-0.54302X-0.27302X-0.54302X0.27302*%
%ADD26RoundRect,0.09302X0.50429X-0.60429X-0.50429X-0.60429*%
%ADD27RoundRect,0.08449X-0.30856X0.20856X0.30856X0.20856*%
%ADD28RoundRect,0.08449X0.30856X-0.20856X-0.30856X-0.20856*%
%ADD29RoundRect,0.08109X0.66026X0.16026X0.66026X-0.16026*%
%ADD30RoundRect,0.08875X0.65642X0.30643X0.65642X-0.30643*%
%ADD31O,1.9016X1.3016*%
%ADD32O,2.3016X1.3016*%
%ADD33RoundRect,0.09618X0.85271X0.85271X0.85271X-0.85271*%
%ADD34C,1.8016*%
%ADD35RoundRect,0.09471X0.65114X0.65114X0.65114X-0.65114*%
%ADD36C,1.397*%
%ADD37RoundRect,0.09017X0.63072X-0.35571X-0.63072X-0.35571*%
G75*


G04 Pad Start*
G54D10*
G01X425298Y-1231900D03*
G01X565302Y-1231900D03*
G01X425298Y-1054100D03*
G01X565302Y-1054100D03*
G54D11*
G01X565302Y-1409700D03*
G01X425298Y-1409700D03*
G54D10*
G01X1442725Y-2758336D03*
G01X1582730Y-2758336D03*
G01X1442725Y-2936136D03*
G01X1582730Y-2936136D03*
G54D12*
G01X101262Y-3310953D03*
G01X101948Y-3470846D03*
G54D13*
G01X419964Y-889000D03*
G01X570636Y-889000D03*
G54D14*
G01X266700Y-3340964D03*
G01X266700Y-3491636D03*
G54D15*
G01X570636Y-584200D03*
G01X419964Y-584200D03*
G01X570636Y-736600D03*
G01X419964Y-736600D03*
G54D16*
G01X1127824Y-609900D03*
G01X1207834Y-609900D03*
G01X1287818Y-609900D03*
G01X1367828Y-609900D03*
G01X1447838Y-609900D03*
G01X1527823Y-609900D03*
G01X1607833Y-609900D03*
G01X1687817Y-609900D03*
G01X1767827Y-609900D03*
G01X1847812Y-609900D03*
G01X1927822Y-609900D03*
G54D17*
G01X2042808Y-1104895D03*
G01X2042808Y-1184905D03*
G01X2042808Y-1264890D03*
G01X2042808Y-1344900D03*
G01X2042808Y-1424910D03*
G01X2042808Y-1504894D03*
G54D16*
G01X967804Y-1599890D03*
G01X1047814Y-1599890D03*
G01X1127798Y-1599890D03*
G01X1207808Y-1599890D03*
G54D18*
G01X1447813Y-1104895D03*
G54D19*
G01X852818Y-609900D03*
G01X852818Y-1599890D03*
G01X2042808Y-1599890D03*
G01X2042808Y-609900D03*
G54D20*
G01X852818Y-704896D03*
G01X852818Y-784906D03*
G01X852818Y-864890D03*
G01X852818Y-944900D03*
G01X852818Y-1024885D03*
G01X852818Y-1104895D03*
G01X852818Y-1184880D03*
G01X852818Y-1264890D03*
G01X852818Y-1344900D03*
G01X852818Y-1424884D03*
G01X852818Y-1504894D03*
G54D16*
G01X1287818Y-1599890D03*
G01X1367828Y-1599890D03*
G01X1447813Y-1599890D03*
G01X1527823Y-1599890D03*
G01X1607807Y-1599890D03*
G01X1687817Y-1599890D03*
G01X1767802Y-1599890D03*
G01X1847812Y-1599890D03*
G01X1927822Y-1599890D03*
G54D20*
G01X2042808Y-1024910D03*
G01X2042808Y-944900D03*
G01X2042808Y-864916D03*
G01X2042808Y-784880D03*
G01X2042808Y-704896D03*
G54D16*
G01X1047814Y-609900D03*
G01X967804Y-609900D03*
G54D18*
G01X1645298Y-1104895D03*
G01X1645298Y-907410D03*
G01X1447813Y-907410D03*
G01X1250302Y-1104895D03*
G01X1250302Y-1302405D03*
G01X1447813Y-1302405D03*
G01X1645298Y-1302405D03*
G36*
G01X1177801Y-984900D02*
G02X1172799Y-979899I0J5001D01*
G01X1172799Y-894900D01*
G02X1174264Y-891364I5001J0D01*
G01X1234264Y-831364D01*
G02X1237800Y-829899I3536J-3536D01*
G01X1322799Y-829899D01*
G02X1327800Y-834901I0J-5001D01*
G01X1327800Y-979899D01*
G02X1322799Y-984900I-5001J0D01*
G01X1177801Y-984900D01*
G37*
G54D21*
G01X1354005Y-1954403D03*
G01X1354005Y-2184400D03*
G01X1354005Y-2414397D03*
G54D22*
G01X1947997Y-2184400D03*
G54D23*
G01X1765292Y-3454392D03*
G54D24*
G01X1892292Y-3454392D03*
G01X2019292Y-3454392D03*
G01X2146292Y-3454392D03*
G01X2273292Y-3454392D03*
G54D25*
G01X1209044Y-2966671D03*
G01X1209044Y-2871675D03*
G01X1209044Y-2776679D03*
G01X979225Y-2776679D03*
G01X979225Y-2871675D03*
G01X979225Y-2966671D03*
G54D26*
G01X975624Y-3329046D03*
G01X1285606Y-3329046D03*
G54D27*
G01X955624Y-3496478D03*
G54D28*
G01X1105611Y-3496478D03*
G54D15*
G01X1147089Y-3145773D03*
G01X996417Y-3145773D03*
G01X1147089Y-2632878D03*
G01X996417Y-2632878D03*
G54D29*
G01X779526Y-2930906D03*
G01X779526Y-2880893D03*
G01X779526Y-2830906D03*
G01X779526Y-2780894D03*
G01X779526Y-2730906D03*
G01X779526Y-2680894D03*
G01X779526Y-2630907D03*
G01X779526Y-2580894D03*
G54D30*
G01X779526Y-2995905D03*
G01X779526Y-3075889D03*
G01X779526Y-2515895D03*
G01X779526Y-2435911D03*
G54D31*
G01X287274Y-3187903D03*
G01X287274Y-2323897D03*
G54D32*
G01X705282Y-3187903D03*
G01X705282Y-2323897D03*
G54D33*
G01X165100Y-850900D03*
G54D34*
G01X165100Y-1104900D03*
G01X165100Y-1358900D03*
G01X165100Y-1612900D03*
G01X165100Y-1866900D03*
G54D33*
G01X2641600Y-850900D03*
G54D34*
G01X2641600Y-1104900D03*
G01X2641600Y-1358900D03*
G01X2641600Y-1612900D03*
G01X2641600Y-1866900D03*
G54D35*
G01X2425700Y-3251200D03*
G54D36*
G01X2425700Y-2997200D03*
G01X2425700Y-2743200D03*
G01X2425700Y-2489200D03*
G54D15*
G01X2640736Y-609600D03*
G01X2490064Y-609600D03*
G54D11*
G01X565302Y-1892300D03*
G01X425298Y-1892300D03*
G54D37*
G01X839800Y-1873504D03*
G01X839800Y-2063496D03*
G01X1039800Y-1968500D03*
G54D15*
G01X570636Y-1574800D03*
G01X419964Y-1574800D03*
G54D13*
G01X419964Y-1727200D03*
G01X570636Y-1727200D03*
G54D15*
G01X570636Y-2057400D03*
G01X419964Y-2057400D03*
G04 Pad End*

M02*

