G04 Layer: TopLayer*
G04 EasyEDA Pro v2.2.32.3, 2024-10-30 17:41:05*
G04 Gerber Generator version 0.3*
G04 Scale: 100 percent, Rotated: No, Reflected: No*
G04 Dimensions in millimeters*
G04 Leading zeros omitted, absolute positions, 3 integers and 5 decimals*
%FSLAX35Y35*%
%MOMM*%
%AMPolygonMacro1*4,1,5,-0.12499,0.72499,0.72499,0.72499,0.72499,-0.72499,-0.72499,-0.72499,-0.72499,0.12499,-0.12499,0.72499,0*%
%ADD10C,0.2032*%
%ADD11C,0.254*%
%ADD12R,0.8X0.9*%
%ADD13R,0.8X0.9*%
%ADD14R,0.8X0.8*%
%ADD15R,0.80648X0.86401*%
%ADD16R,0.86401X0.80648*%
%ADD17R,0.80648X0.86401*%
%ADD18R,0.55001X0.85001*%
%ADD19R,0.8552X0.55001*%
%ADD20R,0.85001X0.55001*%
%ADD21R,1.45001X1.45001*%
%ADD22R,0.9X0.9*%
%ADD23R,0.85001X0.55001*%
%ADD24PolygonMacro1*%
%ADD25R,2.49999X1.1*%
%ADD26R,2.34X3.59999*%
%ADD27R,0.9X1.2*%
%ADD28O,0.9X1.2*%
%ADD29R,1.07201X0.532*%
%ADD30R,1.0X1.2*%
%ADD31R,0.6X0.4*%
%ADD32R,0.6X0.4*%
%ADD33R,1.3X0.3*%
%ADD34R,1.3X0.6*%
%ADD35O,1.8X1.2*%
%ADD36O,2.2X1.2*%
%ADD37R,1.7X1.7*%
%ADD38C,1.7*%
%ADD39R,1.2954X1.2954*%
%ADD40C,1.2954*%
%ADD41R,1.25001X0.7*%
%ADD42C,0.61*%
G75*


G04 Copper Start*
G36*
G01X35814Y-3406359D02*
G01X35814Y-3376153D01*
G03X61262Y-3386767I25448J25200D01*
G01X141262Y-3386767D01*
G03X177076Y-3350953I0J35814D01*
G01X177076Y-3270954D01*
G03X141262Y-3235140I-35814J0D01*
G01X61262Y-3235140D01*
G03X35814Y-3245754I0J-35814D01*
G01X35814Y-447676D01*
G01X245715Y-447676D01*
G01X219695Y-473695D01*
G03X205486Y-508000I34305J-34305D01*
G01X205486Y-711200D01*
G03X209313Y-730086I48514J0D01*
G01X80100Y-730086D01*
G03X44286Y-765900I0J-35814D01*
G01X44286Y-935900D01*
G03X80100Y-971714I35814J0D01*
G01X230886Y-971714D01*
G01X230886Y-1003568D01*
G03X44286Y-1104900I-65786J-101332D01*
G03X230886Y-1206232I120814J0D01*
G01X230886Y-1257568D01*
G03X44286Y-1358900I-65786J-101332D01*
G03X230886Y-1460232I120814J0D01*
G01X230886Y-1511568D01*
G03X44286Y-1612900I-65786J-101332D01*
G03X230886Y-1714232I120814J0D01*
G01X230886Y-1763782D01*
G01X215811Y-1757244D01*
G03X63687Y-1932562I-50711J-109656D01*
G03X285906Y-1865503I101413J65662D01*
G01X313705Y-1837705D01*
G03X327914Y-1803400I-34305J34305D01*
G01X327914Y-1717323D01*
G01X338706Y-1728115D01*
G02X343826Y-1745341I-26418J-17226D01*
G01X343826Y-1770400D01*
G03X370964Y-1805148I35814J0D01*
G02X371450Y-1808500I-11325J-3353D01*
G01X371450Y-1809200D01*
G02X369964Y-1814935I-11811J0D01*
G03X349484Y-1847300I15334J-32365D01*
G01X349484Y-1937300D01*
G03X376271Y-1971958I35814J0D01*
G02X376784Y-1975400I-11298J-3442D01*
G01X376784Y-1976100D01*
G01X376533Y-1978521D01*
G03X343826Y-2014200I3107J-35679D01*
G01X343826Y-2100600D01*
G03X371450Y-2135465I35814J0D01*
G01X371450Y-2244870D01*
G03X317274Y-2228083I-54176J-79027D01*
G01X257274Y-2228083D01*
G03X257274Y-2419711I0J-95814D01*
G01X317274Y-2419711D01*
G03X371450Y-2402924I0J95814D01*
G01X371450Y-3108876D01*
G03X317274Y-3092089I-54176J-79027D01*
G01X257274Y-3092089D01*
G03X206466Y-3269136I0J-95814D01*
G03X187686Y-3300640I17034J-31504D01*
G01X187686Y-3381287D01*
G03X215966Y-3416300I35814J0D01*
G03X188752Y-3442637I7534J-35013D01*
G02X185400Y-3443122I-3353J11325D01*
G01X180048Y-3443122D01*
G01X177762Y-3442899D01*
G01X177762Y-3430847D01*
G03X141948Y-3395033I-35814J0D01*
G01X61948Y-3395033D01*
G03X35814Y-3406359I0J-35814D01*
G37*
G36*
G01X774727Y-1313404D02*
G03X774503Y-1317399I35590J-3995D01*
G01X774503Y-1372400D01*
G03X776752Y-1384892I35814J0D01*
G03X774503Y-1397384I33565J-12492D01*
G01X774503Y-1452385D01*
G03X776757Y-1464889I35814J0D01*
G03X774503Y-1477394I33560J-12504D01*
G01X774503Y-1532395D01*
G03X775296Y-1539890I35814J0D01*
G03X772004Y-1554890I32521J-15000D01*
G01X772004Y-1644890D01*
G03X807818Y-1680704I35814J0D01*
G01X897818Y-1680704D01*
G03X918323Y-1674252I0J35814D01*
G02X919290Y-1680491I-19659J-6238D01*
G01X919290Y-1695201D01*
G03X886426Y-1746957I33211J-57399D01*
G03X910037Y-1803536I66074J-5643D01*
G03X902301Y-1802690I-7736J-34968D01*
G01X822201Y-1802690D01*
G02X804975Y-1797570I0J31538D01*
G01X800418Y-1793013D01*
G01X800418Y-1758944D01*
G03X786208Y-1724639I-48514J0D01*
G01X651894Y-1590325D01*
G02X646774Y-1573099I26418J17226D01*
G01X646774Y-1531600D01*
G03X610960Y-1495786I-35814J0D01*
G01X530313Y-1495786D01*
G03X495300Y-1524066I0J-35814D01*
G03X460287Y-1495786I-35013J-7534D01*
G01X391414Y-1495786D01*
G01X391414Y-1490514D01*
G01X465298Y-1490514D01*
G03X495300Y-1474257I0J35814D01*
G03X525302Y-1490514I30002J19557D01*
G01X605302Y-1490514D01*
G03X641116Y-1454700I0J35814D01*
G01X641116Y-1409601D01*
G02X646237Y-1392375I31538J0D01*
G01X725208Y-1313404D01*
G01X774727Y-1313404D01*
G37*
G36*
G01X465298Y-1328886D02*
G01X428823Y-1328886D01*
G01X435439Y-1322270D01*
G02X449861Y-1312714I30758J-30758D01*
G01X465298Y-1312714D01*
G03X495300Y-1296457I0J35814D01*
G03X525302Y-1312714I30002J19557D01*
G01X588679Y-1312714D01*
G01X577627Y-1323766D01*
G02X560401Y-1328886I-17226J26418D01*
G01X525302Y-1328886D01*
G03X495300Y-1345143I0J-35814D01*
G03X465298Y-1328886I-30002J-19557D01*
G37*
G36*
G01X468478Y-2226187D02*
G01X499095Y-2256805D01*
G03X533400Y-2271014I34305J34305D01*
G01X575384Y-2271014D01*
G03X613167Y-2409959I79898J-52883D01*
G03X585523Y-2479158I42102J-56940D01*
G03X635108Y-2534783I69746J12259D01*
G01X499095Y-2670795D01*
G03X484886Y-2705100I34305J-34305D01*
G01X484886Y-3035300D01*
G03X497586Y-3068026I48514J0D01*
G01X497586Y-3276600D01*
G03X507871Y-3306469I48514J0D01*
G03X467887Y-3308681I-12571J-135231D01*
G03X468478Y-3301136I-47924J7545D01*
G01X468478Y-2226187D01*
G37*
G36*
G01X473812Y-1148800D02*
G01X473812Y-1137200D01*
G02X474324Y-1133758I11811J0D01*
G03X495300Y-1118657I-9027J34658D01*
G03X525302Y-1134914I30002J19557D01*
G01X605302Y-1134914D01*
G03X641116Y-1099100I0J35814D01*
G01X641116Y-1009100D01*
G03X605302Y-973286I-35814J0D01*
G01X525302Y-973286D01*
G03X495300Y-989543I0J-35814D01*
G03X468735Y-973451I-30002J-19557D01*
G01X468478Y-971000D01*
G01X468478Y-970300D01*
G02X468963Y-966948I11811J0D01*
G03X495300Y-939734I-8676J34747D01*
G03X530313Y-968014I35013J7534D01*
G01X610960Y-968014D01*
G03X638812Y-954716I0J35814D01*
G03X662686Y-953599I8888J65716D01*
G01X662686Y-1191172D01*
G03X676866Y-1225447I48514J0D01*
G03X670808Y-1230585I28247J-39442D01*
G01X641116Y-1260277D01*
G01X641116Y-1186900D01*
G03X605302Y-1151086I-35814J0D01*
G01X525302Y-1151086D01*
G03X495300Y-1167343I0J-35814D01*
G03X474324Y-1152242I-30002J-19557D01*
G02X473812Y-1148800I11298J3442D01*
G37*
G36*
G01X468963Y-1805148D02*
G03X495300Y-1777934I-8676J34747D01*
G03X530313Y-1806214I35013J7534D01*
G01X566059Y-1806214D01*
G02X583285Y-1811335I0J-31538D01*
G01X583455Y-1811504D01*
G01X525302Y-1811486D01*
G03X495300Y-1827743I0J-35814D01*
G03X468735Y-1811651I-30002J-19557D01*
G01X468478Y-1809200D01*
G01X468478Y-1808500D01*
G02X468963Y-1805148I11811J0D01*
G37*
G36*
G01X473812Y-1976100D02*
G01X473812Y-1975400D01*
G02X474324Y-1971958I11811J0D01*
G03X495300Y-1956857I-9027J34658D01*
G03X525302Y-1973114I30002J19557D01*
G01X605302Y-1973114D01*
G03X641116Y-1937300I0J35814D01*
G01X641116Y-1916225D01*
G01X727695Y-2002805D01*
G03X735119Y-2008886I34305J34305D01*
G01X649060Y-2008886D01*
G02X646328Y-2008566I0J11811D01*
G03X610960Y-1978386I-35368J-5634D01*
G01X530313Y-1978386D01*
G03X495300Y-2006666I0J-35814D01*
G03X475188Y-1981632I-35013J-7534D01*
G02X473812Y-1976100I10435J5533D01*
G37*
G36*
G01X499629Y-2119070D02*
G02X494130Y-2112318I167798J142267D01*
G03X495300Y-2108134I-33843J11718D01*
G03X499629Y-2119070I35013J7534D01*
G37*
G36*
G01X1102300Y-2039314D02*
G03X1138114Y-2003500I0J35814D01*
G01X1138114Y-1933500D01*
G03X1102300Y-1897686I-35814J0D01*
G01X1041123Y-1897686D01*
G01X1082055Y-1856755D01*
G03X1091172Y-1844087I-34305J34305D01*
G03X1198962Y-1879059I64528J15287D01*
G01X1200282Y-1878012D01*
G03X1193192Y-1899403I28724J-21391D01*
G01X1193192Y-2009403D01*
G03X1229006Y-2045217I35814J0D01*
G01X1479005Y-2045217D01*
G03X1514819Y-2009403I0J35814D01*
G01X1514819Y-1899403D01*
G03X1507196Y-1877314I-35814J0D01*
G01X2222500Y-1877314D01*
G03X2256805Y-1863105I0J48514D01*
G01X2521680Y-1598229D01*
G03X2523261Y-1637230I119920J-14671D01*
G01X2100811Y-2059680D01*
G01X2100811Y-2004400D01*
G03X2064997Y-1968586I-35814J0D01*
G01X1830997Y-1968586D01*
G03X1795183Y-2004400I0J-35814D01*
G01X1795183Y-2135663D01*
G01X1792897Y-2135886D01*
G01X1517105Y-2135886D01*
G01X1514819Y-2135663D01*
G01X1514819Y-2129400D01*
G03X1479005Y-2093586I-35814J0D01*
G01X1229006Y-2093586D01*
G03X1193192Y-2129400I0J-35814D01*
G01X1193192Y-2173763D01*
G01X1190906Y-2173986D01*
G01X553495Y-2173986D01*
G01X511869Y-2132360D01*
G02X508815Y-2129244I155557J155557D01*
G03X530313Y-2136414I21498J28644D01*
G01X610960Y-2136414D01*
G03X646328Y-2106234I0J35814D01*
G02X649060Y-2105914I2732J-11491D01*
G01X739200Y-2105914D01*
G02X742356Y-2106344I0J-11811D01*
G03X777300Y-2134310I34944J7848D01*
G01X902301Y-2134310D01*
G03X910719Y-2133307I0J35814D01*
G03X982631Y-2159482I54481J37807D01*
G03X1031329Y-2100448I-17431J63982D01*
G01X1031652Y-2097658D01*
G01X1074104Y-2055205D01*
G03X1084683Y-2039314I-34305J34305D01*
G01X1102300Y-2039314D01*
G37*
G36*
G01X604941Y-498232D02*
G01X554385Y-447676D01*
G01X2324100Y-447676D01*
G03X2359914Y-411862I0J35814D01*
G01X2359914Y-35814D01*
G01X2700000Y-35814D01*
G02X2764186Y-100000I0J-64186D01*
G01X2764186Y-3500000D01*
G02X2700000Y-3564186I-64186J0D01*
G01X553974Y-3564186D01*
G03X607287Y-3364860I-58674J122486D01*
G01X889810Y-3364860D01*
G01X889810Y-3389046D01*
G03X902054Y-3416011I35814J0D01*
G02X907110Y-3427146I-9734J-11136D01*
G01X907110Y-3438378D01*
G02X902054Y-3449513I-14790J0D01*
G03X889810Y-3476478I23570J-26964D01*
G01X889810Y-3516478D01*
G03X925624Y-3552292I35814J0D01*
G01X985624Y-3552292D01*
G03X1021438Y-3516478I0J35814D01*
G01X1021438Y-3476478D01*
G03X1009194Y-3449513I-35814J0D01*
G02X1004138Y-3438378I9734J11136D01*
G01X1004138Y-3427146D01*
G01X1004362Y-3424860D01*
G01X1025624Y-3424860D01*
G03X1061438Y-3389046I0J35814D01*
G01X1061438Y-3342737D01*
G02X1070994Y-3328315I40314J-16336D01*
G01X1101105Y-3298205D01*
G03X1115314Y-3263900I-34305J34305D01*
G01X1115314Y-3224787D01*
G01X1187413Y-3224787D01*
G03X1223227Y-3188973I0J35814D01*
G01X1223227Y-3102572D01*
G03X1187413Y-3066758I-35814J0D01*
G01X1115314Y-3066758D01*
G01X1115314Y-2895600D01*
G03X1101105Y-2861295I-48514J0D01*
G01X1082724Y-2842915D01*
G03X1126120Y-2823841I-3224J66236D01*
G01X1126359Y-2824177D01*
G03X1119629Y-2845075I29085J-20898D01*
G01X1119629Y-2898276D01*
G03X1126359Y-2919173I35814J0D01*
G03X1119629Y-2940071I29085J-20898D01*
G01X1119629Y-2993272D01*
G03X1155443Y-3029086I35814J0D01*
G01X1262644Y-3029086D01*
G03X1291054Y-3015078I0J35814D01*
G03X1302264Y-3012988I-3225J48407D01*
G01X1251301Y-3063951D01*
G03X1237092Y-3098255I34305J-34305D01*
G01X1237092Y-3230946D01*
G01X1236868Y-3233232D01*
G01X1235606Y-3233232D01*
G03X1199792Y-3269046I0J-35814D01*
G01X1199792Y-3389046D01*
G03X1235606Y-3424860I35814J0D01*
G01X1335606Y-3424860D01*
G03X1371420Y-3389046I0J35814D01*
G01X1371420Y-3377784D01*
G01X1373706Y-3377560D01*
G01X1632551Y-3377560D01*
G01X1679358Y-3424367D01*
G02X1684478Y-3441594I-26418J-17226D01*
G01X1684478Y-3514392D01*
G03X1720292Y-3550206I35814J0D01*
G01X1810292Y-3550206D01*
G03X1841389Y-3532159I0J35814D01*
G03X1955792Y-3519379I50904J62767D01*
G03X2082792Y-3519379I63500J49986D01*
G03X2209792Y-3519379I63500J49986D01*
G03X2354106Y-3469392I63500J49986D01*
G01X2354106Y-3439392D01*
G03X2209792Y-3389406I-80814J0D01*
G03X2082792Y-3389406I-63500J-49986D01*
G03X1955792Y-3389406I-63500J-49986D01*
G03X1841389Y-3376625I-63500J-49986D01*
G03X1810292Y-3358578I-31096J-17767D01*
G01X1762894Y-3358578D01*
G02X1745667Y-3353458I0J31538D01*
G01X1686951Y-3294742D01*
G03X1652646Y-3280532I-34305J-34305D01*
G01X1373706Y-3280532D01*
G01X1371420Y-3280309D01*
G01X1371420Y-3269046D01*
G03X1335606Y-3233232I-35814J0D01*
G01X1334343Y-3233232D01*
G01X1334120Y-3230946D01*
G01X1334120Y-3118350D01*
G01X1430400Y-3022070D01*
G02X1447626Y-3016950I17226J-26418D01*
G01X1482725Y-3016950D01*
G03X1512727Y-3000693I0J35814D01*
G03X1542730Y-3016950I30002J19557D01*
G01X1622730Y-3016950D01*
G03X1658544Y-2981136I0J35814D01*
G01X1658544Y-2891136D01*
G03X1622730Y-2855322I-35814J0D01*
G01X1542730Y-2855322D01*
G03X1512727Y-2871579I0J-35814D01*
G03X1491752Y-2856478I-30002J-19557D01*
G02X1491239Y-2853036I11298J3442D01*
G01X1491239Y-2841436D01*
G02X1491752Y-2837994I11811J0D01*
G03X1512727Y-2822893I-9027J34658D01*
G03X1542730Y-2839150I30002J19557D01*
G01X1622730Y-2839150D01*
G03X1658544Y-2803336I0J35814D01*
G01X1658544Y-2713336D01*
G03X1622730Y-2677522I-35814J0D01*
G01X1542730Y-2677522D01*
G03X1512727Y-2693779I0J-35814D01*
G03X1491752Y-2678678I-30002J-19557D01*
G02X1491239Y-2675236I11298J3442D01*
G01X1491239Y-2583517D01*
G03X1477030Y-2549212I-48514J0D01*
G01X1433029Y-2505211D01*
G01X1479005Y-2505211D01*
G03X1514819Y-2469397I0J35814D01*
G01X1514819Y-2463134D01*
G01X1517105Y-2462911D01*
G01X1645002Y-2462911D01*
G01X1775048Y-2592958D01*
G01X1775371Y-2595748D01*
G03X1827288Y-2655573I66129J4948D01*
G03X1899483Y-2622979I14212J64773D01*
G01X1899483Y-2709997D01*
G03X1913693Y-2744302I48514J0D01*
G01X2333180Y-3163789D01*
G03X2325116Y-3186430I27750J-22641D01*
G01X2325116Y-3315970D01*
G03X2360930Y-3351784I35814J0D01*
G01X2490470Y-3351784D01*
G03X2526284Y-3315970I0J35814D01*
G01X2526284Y-3186430D01*
G03X2490470Y-3150616I-35814J0D01*
G01X2469331Y-3150616D01*
G02X2452105Y-3145496I0J31538D01*
G01X2401418Y-3094809D01*
G03X2521849Y-2967663I24282J97609D01*
G03X2350807Y-2930058I-96149J-29537D01*
G01X2350494Y-2930374D01*
G03X2348025Y-2933143I25462J-25186D01*
G01X2345054Y-2936845D01*
G01X2161952Y-2753742D01*
G01X2161629Y-2750952D01*
G03X2107086Y-2690606I-66129J-4948D01*
G03X2035111Y-2728501I-11586J-65294D01*
G01X1996511Y-2689902D01*
G01X1996511Y-2653075D01*
G03X2078701Y-2620279I22789J62275D01*
G03X2055114Y-2534989I-59401J29479D01*
G01X2055114Y-2482349D01*
G01X2127202Y-2410261D01*
G03X2141411Y-2375956I-34305J34305D01*
G01X2141411Y-2156299D01*
G01X2580554Y-1717156D01*
G03X2761939Y-1602198I61046J104256D01*
G03X2563114Y-1521053I-120339J-10702D01*
G01X2563114Y-1450747D01*
G03X2760507Y-1380280I78486J91847D01*
G03X2600026Y-1245465I-118907J21380D01*
G01X2621466Y-1224024D01*
G03X2745592Y-1043405I20134J119124D01*
G03X2527514Y-1065146I-103992J-61495D01*
G01X2527514Y-1033595D01*
G01X2589395Y-971714D01*
G01X2726600Y-971714D01*
G03X2762414Y-935900I0J35814D01*
G01X2762414Y-765900D01*
G03X2726600Y-730086I-35814J0D01*
G01X2556600Y-730086D01*
G03X2520786Y-765900I0J-35814D01*
G01X2520786Y-903105D01*
G01X2444696Y-979195D01*
G03X2430486Y-1013500I34305J-34305D01*
G01X2430486Y-1495548D01*
G01X2187659Y-1738375D01*
G01X1698995Y-1738375D01*
G01X1638667Y-1678047D01*
G03X1647812Y-1675951I-3359J35656D01*
G03X1660317Y-1678205I12504J33560D01*
G01X1715318Y-1678205D01*
G03X1727810Y-1675956I0J35814D01*
G03X1740301Y-1678205I12492J33565D01*
G01X1795302Y-1678205D01*
G03X1807807Y-1675951I0J35814D01*
G03X1820311Y-1678205I12504J33560D01*
G01X1875312Y-1678205D01*
G03X1887817Y-1675951I0J35814D01*
G03X1900321Y-1678205I12504J33560D01*
G01X1955322Y-1678205D01*
G03X1974873Y-1672397I0J35814D01*
G03X1997808Y-1680704I22934J27507D01*
G01X2087808Y-1680704D01*
G03X2123622Y-1644890I0J35814D01*
G01X2123622Y-1554890D01*
G03X2120329Y-1539890I-35814J0D01*
G03X2121122Y-1532395I-35021J7496D01*
G01X2121122Y-1477394D01*
G03X2118873Y-1464902I-35814J0D01*
G03X2121122Y-1452410I-33565J12492D01*
G01X2121122Y-1397409D01*
G03X2118868Y-1384905I-35814J0D01*
G03X2121122Y-1372400I-33560J12504D01*
G01X2121122Y-1317399D01*
G03X2118868Y-1304895I-35814J0D01*
G03X2121122Y-1292390I-33560J12504D01*
G01X2121122Y-1237389D01*
G03X2118873Y-1224897I-35814J0D01*
G03X2121122Y-1212405I-33565J12492D01*
G01X2121122Y-1157404D01*
G03X2120915Y-1153560I-35814J0D01*
G01X2123408Y-1153409D01*
G01X2304032Y-1153409D01*
G01X2306231Y-1155153D01*
G03X2400027Y-1147848I43269J50253D01*
G03X2392125Y-1054100I-50527J42948D01*
G03X2389379Y-950317I-42625J50800D01*
G03X2288889Y-976396I-39879J-52983D01*
G01X2123408Y-976396D01*
G01X2120915Y-976245D01*
G03X2121122Y-972401I-35607J3844D01*
G01X2121122Y-917400D01*
G03X2118873Y-904908I-35814J0D01*
G03X2121122Y-892416I-33565J12492D01*
G01X2121122Y-837415D01*
G03X2118864Y-824898I-35814J0D01*
G03X2121122Y-812381I-33555J12517D01*
G01X2121122Y-757380D01*
G03X2118873Y-744888I-35814J0D01*
G03X2121122Y-732396I-33565J12492D01*
G01X2121122Y-677395D01*
G03X2120329Y-669900I-35814J0D01*
G03X2123622Y-654900I-32521J15000D01*
G01X2123622Y-564900D01*
G03X2087808Y-529086I-35814J0D01*
G01X1997808Y-529086D01*
G03X1974873Y-537392I0J-35814D01*
G03X1955322Y-531585I-19551J-30007D01*
G01X1900321Y-531585D01*
G03X1887817Y-533839I0J-35814D01*
G03X1875312Y-531585I-12504J-33560D01*
G01X1820311Y-531585D01*
G03X1807820Y-533834I0J-35814D01*
G03X1795328Y-531585I-12492J-33565D01*
G01X1740327Y-531585D01*
G03X1727822Y-533839I0J-35814D01*
G03X1715318Y-531585I-12504J-33560D01*
G01X1660317Y-531585D01*
G03X1647825Y-533834I0J-35814D01*
G03X1635333Y-531585I-12492J-33565D01*
G01X1580332Y-531585D01*
G03X1567828Y-533839I0J-35814D01*
G03X1555323Y-531585I-12504J-33560D01*
G01X1500322Y-531585D01*
G03X1487830Y-533834I0J-35814D01*
G03X1475339Y-531585I-12492J-33565D01*
G01X1420338Y-531585D01*
G03X1407833Y-533839I0J-35814D01*
G03X1395329Y-531585I-12504J-33560D01*
G01X1340328Y-531585D01*
G03X1327823Y-533839I0J-35814D01*
G03X1315319Y-531585I-12504J-33560D01*
G01X1260318Y-531585D01*
G03X1247826Y-533834I0J-35814D01*
G03X1235334Y-531585I-12492J-33565D01*
G01X1180333Y-531585D01*
G03X1167829Y-533839I0J-35814D01*
G03X1155324Y-531585I-12504J-33560D01*
G01X1100323Y-531585D01*
G03X1087819Y-533839I0J-35814D01*
G03X1075314Y-531585I-12504J-33560D01*
G01X1020313Y-531585D01*
G03X1007809Y-533839I0J-35814D01*
G03X995304Y-531585I-12504J-33560D01*
G01X940303Y-531585D01*
G03X920752Y-537392I0J-35814D01*
G03X897818Y-529086I-22934J-27507D01*
G01X807818Y-529086D01*
G03X772004Y-564900I0J-35814D01*
G01X772004Y-654900D01*
G03X775296Y-669900I35814J0D01*
G03X774503Y-677395I35021J-7496D01*
G01X774503Y-719458D01*
G01X651894Y-596849D01*
G02X646774Y-579622I26418J17226D01*
G01X646774Y-541000D01*
G03X610960Y-505186I-35814J0D01*
G01X610706Y-505186D01*
G03X604941Y-498232I-40069J-27351D01*
G37*
%LPC*%
G36*
G01X1171425Y-3476478D02*
G03X1135611Y-3440664I-35814J0D01*
G01X1075611Y-3440664D01*
G03X1039797Y-3476478I0J-35814D01*
G01X1039797Y-3516478D01*
G03X1075611Y-3552292I35814J0D01*
G01X1135611Y-3552292D01*
G03X1171425Y-3516478I0J35814D01*
G01X1171425Y-3476478D01*
G37*
G36*
G01X2404369Y-600421D02*
G01X2347342Y-657448D01*
G01X2344552Y-657771D01*
G03X2302609Y-770791I4948J-66129D01*
G03X2415629Y-728848I46891J46891D01*
G01X2415952Y-726058D01*
G01X2442534Y-699476D01*
G02X2457389Y-688614I42393J-42393D01*
G01X2530387Y-688614D01*
G03X2565400Y-660334I0J35814D01*
G03X2600413Y-688614I35013J7534D01*
G01X2681060Y-688614D01*
G03X2716874Y-652800I0J35814D01*
G01X2716874Y-566400D01*
G03X2681060Y-530586I-35814J0D01*
G01X2645314Y-530586D01*
G02X2628087Y-525465I0J31538D01*
G01X2563618Y-460995D01*
G03X2529313Y-446786I-34305J-34305D01*
G01X2413000Y-446786D01*
G03X2378695Y-460995I0J-48514D01*
G01X2359864Y-479827D01*
G03X2302368Y-574695I2336J-66273D01*
G03X2412300Y-589546I59832J28595D01*
G02X2404369Y-600421I-38688J19883D01*
G37*
G36*
G01X2425700Y-2388616D02*
G03X2425700Y-2589784I0J-100584D01*
G03X2425700Y-2388616I0J100584D01*
G37*
G36*
G01X2425700Y-2642616D02*
G03X2425700Y-2843784I0J-100584D01*
G03X2425700Y-2642616I0J100584D01*
G37*
G36*
G01X2641600Y-1746086D02*
G03X2641600Y-1987714I0J-120814D01*
G03X2641600Y-1746086I0J120814D01*
G37*
%LPD*%
G36*
G01X839221Y-3141703D02*
G01X844526Y-3141703D01*
G03X880340Y-3105889I0J35814D01*
G01X880340Y-3082549D01*
G01X915159Y-3117368D01*
G02X920279Y-3134594I-26418J-17226D01*
G01X920279Y-3188973D01*
G03X956093Y-3224787I35814J0D01*
G01X1018286Y-3224787D01*
G01X1018286Y-3233232D01*
G01X925624Y-3233232D01*
G03X889831Y-3267832I0J-35814D01*
G01X808118Y-3267832D01*
G03X839221Y-3141703I-52836J79929D01*
G37*
G36*
G01X1517105Y-2232914D02*
G01X1792897Y-2232914D01*
G01X1795183Y-2233137D01*
G01X1795183Y-2364400D01*
G03X1830997Y-2400214I35814J0D01*
G01X1899260Y-2400214D01*
G01X1899483Y-2402500D01*
G01X1899483Y-2558621D01*
G03X1846448Y-2524671I-57983J-32179D01*
G01X1843658Y-2524348D01*
G01X1699402Y-2380092D01*
G03X1665097Y-2365883I-34305J-34305D01*
G01X1517105Y-2365883D01*
G01X1514819Y-2365660D01*
G01X1514819Y-2359397D01*
G03X1479005Y-2323583I-35814J0D01*
G01X1229006Y-2323583D01*
G03X1193192Y-2359397I0J-35814D01*
G01X1193192Y-2379272D01*
G03X1142762Y-2335167I-62892J-21028D01*
G03X1079613Y-2357541I-12462J-65133D01*
G03X977595Y-2373537I-44563J-49109D01*
G03X1014899Y-2469828I57455J-33113D01*
G01X1018796Y-2471132D01*
G01X1021037Y-2472059D01*
G01X1021497Y-2472315D01*
G01X1021951Y-2472681D01*
G01X1042275Y-2493005D01*
G03X1076579Y-2507214I34305J34305D01*
G01X1092405Y-2507214D01*
G01X1139054Y-2553863D01*
G01X1106766Y-2553863D01*
G03X1071753Y-2582144I0J-35814D01*
G03X1036740Y-2553863I-35013J-7534D01*
G01X956093Y-2553863D01*
G03X920725Y-2584043I0J-35814D01*
G02X917993Y-2584364I-2732J11491D01*
G01X882626Y-2584364D01*
G01X880340Y-2584344D01*
G01X880340Y-2565894D01*
G03X878916Y-2555895I-35814J0D01*
G03X880340Y-2545895I-34390J9999D01*
G01X880340Y-2485895D01*
G03X878918Y-2475903I-35814J0D01*
G03X880340Y-2465911I-34392J9992D01*
G01X880340Y-2405911D01*
G03X844526Y-2370097I-35814J0D01*
G01X839221Y-2370097D01*
G03X835180Y-2271014I-83940J46200D01*
G01X1190906Y-2271014D01*
G02X1221205Y-2274354I0J-139101D01*
G03X1229006Y-2275214I7801J34954D01*
G01X1479005Y-2275214D01*
G03X1514819Y-2239400I0J35814D01*
G01X1514819Y-2233137D01*
G01X1517105Y-2232914D01*
G37*
G36*
G01X1223986Y-2638795D02*
G01X1223986Y-2693128D01*
G01X1202849Y-2714265D01*
G01X1155443Y-2714265D01*
G03X1126120Y-2729518I0J-35814D01*
G03X1048676Y-2717964I-46620J-47161D01*
G03X1032825Y-2714265I-15852J-32115D01*
G01X925624Y-2714265D01*
G01X924814Y-2714275D01*
G01X924814Y-2705100D01*
G03X918636Y-2681409I-48514J0D01*
G01X920725Y-2681712D01*
G03X956093Y-2711892I35368J5634D01*
G01X1036740Y-2711892D01*
G03X1071753Y-2683612I0J35814D01*
G03X1106766Y-2711892I35013J7534D01*
G01X1187413Y-2711892D01*
G03X1223227Y-2676078I0J35814D01*
G01X1223227Y-2638036D01*
G01X1223986Y-2638795D01*
G37*
G36*
G01X931132Y-812406D02*
G01X931132Y-757405D01*
G03X928878Y-744901I-35814J0D01*
G03X931132Y-732396I-33560J12504D01*
G01X931132Y-687020D01*
G03X940303Y-688214I9171J34620D01*
G01X995304Y-688214D01*
G03X1007809Y-685960I0J35814D01*
G03X1020313Y-688214I12504J33560D01*
G01X1075314Y-688214D01*
G03X1087819Y-685960I0J35814D01*
G03X1100323Y-688214I12504J33560D01*
G01X1155324Y-688214D01*
G03X1167829Y-685960I0J35814D01*
G03X1180333Y-688214I12504J33560D01*
G01X1228374Y-688214D01*
G03X1197595Y-702295I3526J-48386D01*
G01X1079795Y-820096D01*
G03X1017950Y-771915I-63795J-18104D01*
G03X953380Y-816376I-1950J-66285D01*
G01X933418Y-816376D01*
G01X930928Y-816225D01*
G03X931132Y-812406I-35610J3819D01*
G37*
G36*
G01X1375312Y-1410720D02*
G01X1520313Y-1410720D01*
G03X1546555Y-1399278I0J35814D01*
G03X1572797Y-1410720I26242J24372D01*
G01X1717798Y-1410720D01*
G01X1719288Y-1410689D01*
G01X1719288Y-1510979D01*
G01X1704752Y-1496442D01*
G01X1704429Y-1493647D01*
G03X1590675Y-1452454I-66129J-4953D01*
G03X1507523Y-1442606I-47625J-46146D01*
G03X1481014Y-1522032I35527J-55994D01*
G03X1475313Y-1521576I-5701J-35357D01*
G01X1420312Y-1521576D01*
G03X1407820Y-1523825I0J-35814D01*
G03X1395329Y-1521576I-12492J-33565D01*
G01X1340328Y-1521576D01*
G03X1327823Y-1523829I0J-35814D01*
G03X1315319Y-1521576I-12504J-33560D01*
G01X1260318Y-1521576D01*
G03X1247813Y-1523829I0J-35814D01*
G03X1235309Y-1521576I-12504J-33560D01*
G01X1180308Y-1521576D01*
G03X1167803Y-1523829I0J-35814D01*
G03X1155299Y-1521576I-12504J-33560D01*
G01X1100298Y-1521576D01*
G03X1087806Y-1523825I0J-35814D01*
G03X1075314Y-1521576I-12492J-33565D01*
G01X1020313Y-1521576D01*
G03X1007809Y-1523829I0J-35814D01*
G03X995304Y-1521576I-12504J-33560D01*
G01X940303Y-1521576D01*
G03X931132Y-1522770I0J-35814D01*
G01X931132Y-1477394D01*
G03X928878Y-1464889I-35814J0D01*
G03X931132Y-1452385I-33560J12504D01*
G01X931132Y-1397384D01*
G03X928883Y-1384892I-35814J0D01*
G03X931132Y-1372400I-33565J12492D01*
G01X931132Y-1317399D01*
G03X928878Y-1304895I-35814J0D01*
G03X931132Y-1292390I-33560J12504D01*
G01X931132Y-1288004D01*
G01X1072137Y-1288004D01*
G01X1074338Y-1289749D01*
G03X1141988Y-1301156I43262J50259D01*
G01X1141988Y-1374906D01*
G03X1177802Y-1410720I35814J0D01*
G01X1322803Y-1410720D01*
G03X1349058Y-1399264I0J35814D01*
G03X1375312Y-1410720I26255J24358D01*
G37*
G36*
G01X1198962Y-1778541D02*
G03X1096264Y-1799391I-43262J-50259D01*
G01X1096264Y-1680491D01*
G01X1096417Y-1677994D01*
G03X1100298Y-1678205I3881J35603D01*
G01X1155299Y-1678205D01*
G03X1167803Y-1675951I0J35814D01*
G03X1180308Y-1678205I12504J33560D01*
G01X1182626Y-1678205D01*
G03X1211022Y-1758984I61974J-23595D01*
G03X1295400Y-1744425I33578J57184D01*
G03X1389458Y-1752062I50800J42625D01*
G01X1391663Y-1750314D01*
G01X1397000Y-1750314D01*
G03X1431305Y-1736105I0J48514D01*
G01X1482117Y-1685292D01*
G03X1489131Y-1676411I-34305J34305D01*
G03X1493066Y-1677462I11191J34021D01*
G02X1509998Y-1686596I-6800J-32867D01*
G01X1603688Y-1780286D01*
G01X1201163Y-1780286D01*
G01X1198962Y-1778541D01*
G37*
G36*
G01X1247826Y-685965D02*
G03X1257289Y-688086I12492J33565D01*
G01X1238362Y-688086D01*
G03X1247826Y-685965I-3028J35686D01*
G37*
G36*
G01X1717798Y-799095D02*
G01X1572797Y-799095D01*
G03X1546555Y-810537I0J-35814D01*
G03X1520313Y-799095I-26242J-24372D01*
G01X1469978Y-799095D01*
G03X1512853Y-749471I-22178J62495D01*
G03X1492106Y-687259I-65053J12871D01*
G03X1500322Y-688214I8216J34859D01*
G01X1555323Y-688214D01*
G03X1567828Y-685960I0J35814D01*
G03X1580332Y-688214I12504J33560D01*
G01X1635333Y-688214D01*
G03X1647825Y-685965I0J35814D01*
G03X1660317Y-688214I12492J33565D01*
G01X1715318Y-688214D01*
G03X1727822Y-685960I0J35814D01*
G03X1740327Y-688214I12504J33560D01*
G01X1795328Y-688214D01*
G03X1807820Y-685965I0J35814D01*
G03X1810395Y-686814I12492J33565D01*
G03X1788071Y-731652I43805J-49786D01*
G01X1787748Y-734442D01*
G01X1733497Y-788694D01*
G03X1725161Y-799860I34305J-34305D01*
G03X1717798Y-799095I-7363J-35049D01*
G37*
G36*
G01X1856358Y-803052D02*
G01X1859148Y-802729D01*
G03X1916739Y-758656I-4948J66129D01*
G03X1899538Y-688206I-62539J22056D01*
G01X1900321Y-688214D01*
G01X1955322Y-688214D01*
G03X1964493Y-687020I0J35814D01*
G01X1964493Y-732396D01*
G03X1966742Y-744888I35814J0D01*
G03X1964493Y-757380I33565J-12492D01*
G01X1964493Y-812381D01*
G03X1966752Y-824898I35814J0D01*
G03X1964493Y-837415I33555J-12517D01*
G01X1964493Y-892416D01*
G03X1966742Y-904908I35814J0D01*
G03X1964493Y-917400I33565J-12492D01*
G01X1964493Y-972401D01*
G03X1966747Y-984905I35814J0D01*
G03X1964493Y-997410I33560J-12504D01*
G01X1964493Y-1052411D01*
G03X1966742Y-1064903I35814J0D01*
G03X1964493Y-1077394I33565J-12492D01*
G01X1964493Y-1132395D01*
G03X1966747Y-1144900I35814J0D01*
G03X1964493Y-1157404I33560J-12504D01*
G01X1964493Y-1212405D01*
G03X1966742Y-1224897I35814J0D01*
G03X1964493Y-1237389I33565J-12492D01*
G01X1964493Y-1286284D01*
G01X1920652Y-1242442D01*
G01X1920329Y-1239647D01*
G03X1882685Y-1184715I-66129J-4953D01*
G03X1816316Y-1190173I-28485J-59885D01*
G01X1816316Y-843093D01*
G01X1856358Y-803052D01*
G37*
G54D10*
G01X35814Y-3406359D02*
G01X35814Y-3376153D01*
G03X61262Y-3386767I25448J25200D01*
G01X141262Y-3386767D01*
G03X177076Y-3350953I0J35814D01*
G01X177076Y-3270954D01*
G03X141262Y-3235140I-35814J0D01*
G01X61262Y-3235140D01*
G03X35814Y-3245754I0J-35814D01*
G01X35814Y-447676D01*
G01X245715Y-447676D01*
G01X219695Y-473695D01*
G03X205486Y-508000I34305J-34305D01*
G01X205486Y-711200D01*
G03X209313Y-730086I48514J0D01*
G01X80100Y-730086D01*
G03X44286Y-765900I0J-35814D01*
G01X44286Y-935900D01*
G03X80100Y-971714I35814J0D01*
G01X230886Y-971714D01*
G01X230886Y-1003568D01*
G03X44286Y-1104900I-65786J-101332D01*
G03X230886Y-1206232I120814J0D01*
G01X230886Y-1257568D01*
G03X44286Y-1358900I-65786J-101332D01*
G03X230886Y-1460232I120814J0D01*
G01X230886Y-1511568D01*
G03X44286Y-1612900I-65786J-101332D01*
G03X230886Y-1714232I120814J0D01*
G01X230886Y-1763782D01*
G01X215811Y-1757244D01*
G03X63687Y-1932562I-50711J-109656D01*
G03X285906Y-1865503I101413J65662D01*
G01X313705Y-1837705D01*
G03X327914Y-1803400I-34305J34305D01*
G01X327914Y-1717323D01*
G01X338706Y-1728115D01*
G02X343826Y-1745341I-26418J-17226D01*
G01X343826Y-1770400D01*
G03X370964Y-1805148I35814J0D01*
G02X371450Y-1808500I-11325J-3353D01*
G01X371450Y-1809200D01*
G02X369964Y-1814935I-11811J0D01*
G03X349484Y-1847300I15334J-32365D01*
G01X349484Y-1937300D01*
G03X376271Y-1971958I35814J0D01*
G02X376784Y-1975400I-11298J-3442D01*
G01X376784Y-1976100D01*
G01X376533Y-1978521D01*
G03X343826Y-2014200I3107J-35679D01*
G01X343826Y-2100600D01*
G03X371450Y-2135465I35814J0D01*
G01X371450Y-2244870D01*
G03X317274Y-2228083I-54176J-79027D01*
G01X257274Y-2228083D01*
G03X257274Y-2419711I0J-95814D01*
G01X317274Y-2419711D01*
G03X371450Y-2402924I0J95814D01*
G01X371450Y-3108876D01*
G03X317274Y-3092089I-54176J-79027D01*
G01X257274Y-3092089D01*
G03X206466Y-3269136I0J-95814D01*
G03X187686Y-3300640I17034J-31504D01*
G01X187686Y-3381287D01*
G03X215966Y-3416300I35814J0D01*
G03X188752Y-3442637I7534J-35013D01*
G02X185400Y-3443122I-3353J11325D01*
G01X180048Y-3443122D01*
G01X177762Y-3442899D01*
G01X177762Y-3430847D01*
G03X141948Y-3395033I-35814J0D01*
G01X61948Y-3395033D01*
G03X35814Y-3406359I0J-35814D01*
G01X774727Y-1313404D02*
G03X774503Y-1317399I35590J-3995D01*
G01X774503Y-1372400D01*
G03X776752Y-1384892I35814J0D01*
G03X774503Y-1397384I33565J-12492D01*
G01X774503Y-1452385D01*
G03X776757Y-1464889I35814J0D01*
G03X774503Y-1477394I33560J-12504D01*
G01X774503Y-1532395D01*
G03X775296Y-1539890I35814J0D01*
G03X772004Y-1554890I32521J-15000D01*
G01X772004Y-1644890D01*
G03X807818Y-1680704I35814J0D01*
G01X897818Y-1680704D01*
G03X918323Y-1674252I0J35814D01*
G02X919290Y-1680491I-19659J-6238D01*
G01X919290Y-1695201D01*
G03X886426Y-1746957I33211J-57399D01*
G03X910037Y-1803536I66074J-5643D01*
G03X902301Y-1802690I-7736J-34968D01*
G01X822201Y-1802690D01*
G02X804975Y-1797570I0J31538D01*
G01X800418Y-1793013D01*
G01X800418Y-1758944D01*
G03X786208Y-1724639I-48514J0D01*
G01X651894Y-1590325D01*
G02X646774Y-1573099I26418J17226D01*
G01X646774Y-1531600D01*
G03X610960Y-1495786I-35814J0D01*
G01X530313Y-1495786D01*
G03X495300Y-1524066I0J-35814D01*
G03X460287Y-1495786I-35013J-7534D01*
G01X391414Y-1495786D01*
G01X391414Y-1490514D01*
G01X465298Y-1490514D01*
G03X495300Y-1474257I0J35814D01*
G03X525302Y-1490514I30002J19557D01*
G01X605302Y-1490514D01*
G03X641116Y-1454700I0J35814D01*
G01X641116Y-1409601D01*
G02X646237Y-1392375I31538J0D01*
G01X725208Y-1313404D01*
G01X774727Y-1313404D01*
G01X465298Y-1328886D02*
G01X428823Y-1328886D01*
G01X435439Y-1322270D01*
G02X449861Y-1312714I30758J-30758D01*
G01X465298Y-1312714D01*
G03X495300Y-1296457I0J35814D01*
G03X525302Y-1312714I30002J19557D01*
G01X588679Y-1312714D01*
G01X577627Y-1323766D01*
G02X560401Y-1328886I-17226J26418D01*
G01X525302Y-1328886D01*
G03X495300Y-1345143I0J-35814D01*
G03X465298Y-1328886I-30002J-19557D01*
G01X468478Y-2226187D02*
G01X499095Y-2256805D01*
G03X533400Y-2271014I34305J34305D01*
G01X575384Y-2271014D01*
G03X613167Y-2409959I79898J-52883D01*
G03X585523Y-2479158I42102J-56940D01*
G03X635108Y-2534783I69746J12259D01*
G01X499095Y-2670795D01*
G03X484886Y-2705100I34305J-34305D01*
G01X484886Y-3035300D01*
G03X497586Y-3068026I48514J0D01*
G01X497586Y-3276600D01*
G03X507871Y-3306469I48514J0D01*
G03X467887Y-3308681I-12571J-135231D01*
G03X468478Y-3301136I-47924J7545D01*
G01X468478Y-2226187D01*
G01X473812Y-1148800D02*
G01X473812Y-1137200D01*
G02X474324Y-1133758I11811J0D01*
G03X495300Y-1118657I-9027J34658D01*
G03X525302Y-1134914I30002J19557D01*
G01X605302Y-1134914D01*
G03X641116Y-1099100I0J35814D01*
G01X641116Y-1009100D01*
G03X605302Y-973286I-35814J0D01*
G01X525302Y-973286D01*
G03X495300Y-989543I0J-35814D01*
G03X468735Y-973451I-30002J-19557D01*
G01X468478Y-971000D01*
G01X468478Y-970300D01*
G02X468963Y-966948I11811J0D01*
G03X495300Y-939734I-8676J34747D01*
G03X530313Y-968014I35013J7534D01*
G01X610960Y-968014D01*
G03X638812Y-954716I0J35814D01*
G03X662686Y-953599I8888J65716D01*
G01X662686Y-1191172D01*
G03X676866Y-1225447I48514J0D01*
G03X670808Y-1230585I28247J-39442D01*
G01X641116Y-1260277D01*
G01X641116Y-1186900D01*
G03X605302Y-1151086I-35814J0D01*
G01X525302Y-1151086D01*
G03X495300Y-1167343I0J-35814D01*
G03X474324Y-1152242I-30002J-19557D01*
G02X473812Y-1148800I11298J3442D01*
G01X468963Y-1805148D02*
G03X495300Y-1777934I-8676J34747D01*
G03X530313Y-1806214I35013J7534D01*
G01X566059Y-1806214D01*
G02X583285Y-1811335I0J-31538D01*
G01X583455Y-1811504D01*
G01X525302Y-1811486D01*
G03X495300Y-1827743I0J-35814D01*
G03X468735Y-1811651I-30002J-19557D01*
G01X468478Y-1809200D01*
G01X468478Y-1808500D01*
G02X468963Y-1805148I11811J0D01*
G01X473812Y-1976100D02*
G01X473812Y-1975400D01*
G02X474324Y-1971958I11811J0D01*
G03X495300Y-1956857I-9027J34658D01*
G03X525302Y-1973114I30002J19557D01*
G01X605302Y-1973114D01*
G03X641116Y-1937300I0J35814D01*
G01X641116Y-1916225D01*
G01X727695Y-2002805D01*
G03X735119Y-2008886I34305J34305D01*
G01X649060Y-2008886D01*
G02X646328Y-2008566I0J11811D01*
G03X610960Y-1978386I-35368J-5634D01*
G01X530313Y-1978386D01*
G03X495300Y-2006666I0J-35814D01*
G03X475188Y-1981632I-35013J-7534D01*
G02X473812Y-1976100I10435J5533D01*
G01X499629Y-2119070D02*
G02X494130Y-2112318I167798J142267D01*
G03X495300Y-2108134I-33843J11718D01*
G03X499629Y-2119070I35013J7534D01*
G01X1102300Y-2039314D02*
G03X1138114Y-2003500I0J35814D01*
G01X1138114Y-1933500D01*
G03X1102300Y-1897686I-35814J0D01*
G01X1041123Y-1897686D01*
G01X1082055Y-1856755D01*
G03X1091172Y-1844087I-34305J34305D01*
G03X1198962Y-1879059I64528J15287D01*
G01X1200282Y-1878012D01*
G03X1193192Y-1899403I28724J-21391D01*
G01X1193192Y-2009403D01*
G03X1229006Y-2045217I35814J0D01*
G01X1479005Y-2045217D01*
G03X1514819Y-2009403I0J35814D01*
G01X1514819Y-1899403D01*
G03X1507196Y-1877314I-35814J0D01*
G01X2222500Y-1877314D01*
G03X2256805Y-1863105I0J48514D01*
G01X2521680Y-1598229D01*
G03X2523261Y-1637230I119920J-14671D01*
G01X2100811Y-2059680D01*
G01X2100811Y-2004400D01*
G03X2064997Y-1968586I-35814J0D01*
G01X1830997Y-1968586D01*
G03X1795183Y-2004400I0J-35814D01*
G01X1795183Y-2135663D01*
G01X1792897Y-2135886D01*
G01X1517105Y-2135886D01*
G01X1514819Y-2135663D01*
G01X1514819Y-2129400D01*
G03X1479005Y-2093586I-35814J0D01*
G01X1229006Y-2093586D01*
G03X1193192Y-2129400I0J-35814D01*
G01X1193192Y-2173763D01*
G01X1190906Y-2173986D01*
G01X553495Y-2173986D01*
G01X511869Y-2132360D01*
G02X508815Y-2129244I155557J155557D01*
G03X530313Y-2136414I21498J28644D01*
G01X610960Y-2136414D01*
G03X646328Y-2106234I0J35814D01*
G02X649060Y-2105914I2732J-11491D01*
G01X739200Y-2105914D01*
G02X742356Y-2106344I0J-11811D01*
G03X777300Y-2134310I34944J7848D01*
G01X902301Y-2134310D01*
G03X910719Y-2133307I0J35814D01*
G03X982631Y-2159482I54481J37807D01*
G03X1031329Y-2100448I-17431J63982D01*
G01X1031652Y-2097658D01*
G01X1074104Y-2055205D01*
G03X1084683Y-2039314I-34305J34305D01*
G01X1102300Y-2039314D01*
G01X604941Y-498232D02*
G01X554385Y-447676D01*
G01X2324100Y-447676D01*
G03X2359914Y-411862I0J35814D01*
G01X2359914Y-35814D01*
G01X2700000Y-35814D01*
G02X2764186Y-100000I0J-64186D01*
G01X2764186Y-3500000D01*
G02X2700000Y-3564186I-64186J0D01*
G01X553974Y-3564186D01*
G03X607287Y-3364860I-58674J122486D01*
G01X889810Y-3364860D01*
G01X889810Y-3389046D01*
G03X902054Y-3416011I35814J0D01*
G02X907110Y-3427146I-9734J-11136D01*
G01X907110Y-3438378D01*
G02X902054Y-3449513I-14790J0D01*
G03X889810Y-3476478I23570J-26964D01*
G01X889810Y-3516478D01*
G03X925624Y-3552292I35814J0D01*
G01X985624Y-3552292D01*
G03X1021438Y-3516478I0J35814D01*
G01X1021438Y-3476478D01*
G03X1009194Y-3449513I-35814J0D01*
G02X1004138Y-3438378I9734J11136D01*
G01X1004138Y-3427146D01*
G01X1004362Y-3424860D01*
G01X1025624Y-3424860D01*
G03X1061438Y-3389046I0J35814D01*
G01X1061438Y-3342737D01*
G02X1070994Y-3328315I40314J-16336D01*
G01X1101105Y-3298205D01*
G03X1115314Y-3263900I-34305J34305D01*
G01X1115314Y-3224787D01*
G01X1187413Y-3224787D01*
G03X1223227Y-3188973I0J35814D01*
G01X1223227Y-3102572D01*
G03X1187413Y-3066758I-35814J0D01*
G01X1115314Y-3066758D01*
G01X1115314Y-2895600D01*
G03X1101105Y-2861295I-48514J0D01*
G01X1082724Y-2842915D01*
G03X1126120Y-2823841I-3224J66236D01*
G01X1126359Y-2824177D01*
G03X1119629Y-2845075I29085J-20898D01*
G01X1119629Y-2898276D01*
G03X1126359Y-2919173I35814J0D01*
G03X1119629Y-2940071I29085J-20898D01*
G01X1119629Y-2993272D01*
G03X1155443Y-3029086I35814J0D01*
G01X1262644Y-3029086D01*
G03X1291054Y-3015078I0J35814D01*
G03X1302264Y-3012988I-3225J48407D01*
G01X1251301Y-3063951D01*
G03X1237092Y-3098255I34305J-34305D01*
G01X1237092Y-3230946D01*
G01X1236868Y-3233232D01*
G01X1235606Y-3233232D01*
G03X1199792Y-3269046I0J-35814D01*
G01X1199792Y-3389046D01*
G03X1235606Y-3424860I35814J0D01*
G01X1335606Y-3424860D01*
G03X1371420Y-3389046I0J35814D01*
G01X1371420Y-3377784D01*
G01X1373706Y-3377560D01*
G01X1632551Y-3377560D01*
G01X1679358Y-3424367D01*
G02X1684478Y-3441594I-26418J-17226D01*
G01X1684478Y-3514392D01*
G03X1720292Y-3550206I35814J0D01*
G01X1810292Y-3550206D01*
G03X1841389Y-3532159I0J35814D01*
G03X1955792Y-3519379I50904J62767D01*
G03X2082792Y-3519379I63500J49986D01*
G03X2209792Y-3519379I63500J49986D01*
G03X2354106Y-3469392I63500J49986D01*
G01X2354106Y-3439392D01*
G03X2209792Y-3389406I-80814J0D01*
G03X2082792Y-3389406I-63500J-49986D01*
G03X1955792Y-3389406I-63500J-49986D01*
G03X1841389Y-3376625I-63500J-49986D01*
G03X1810292Y-3358578I-31096J-17767D01*
G01X1762894Y-3358578D01*
G02X1745667Y-3353458I0J31538D01*
G01X1686951Y-3294742D01*
G03X1652646Y-3280532I-34305J-34305D01*
G01X1373706Y-3280532D01*
G01X1371420Y-3280309D01*
G01X1371420Y-3269046D01*
G03X1335606Y-3233232I-35814J0D01*
G01X1334343Y-3233232D01*
G01X1334120Y-3230946D01*
G01X1334120Y-3118350D01*
G01X1430400Y-3022070D01*
G02X1447626Y-3016950I17226J-26418D01*
G01X1482725Y-3016950D01*
G03X1512727Y-3000693I0J35814D01*
G03X1542730Y-3016950I30002J19557D01*
G01X1622730Y-3016950D01*
G03X1658544Y-2981136I0J35814D01*
G01X1658544Y-2891136D01*
G03X1622730Y-2855322I-35814J0D01*
G01X1542730Y-2855322D01*
G03X1512727Y-2871579I0J-35814D01*
G03X1491752Y-2856478I-30002J-19557D01*
G02X1491239Y-2853036I11298J3442D01*
G01X1491239Y-2841436D01*
G02X1491752Y-2837994I11811J0D01*
G03X1512727Y-2822893I-9027J34658D01*
G03X1542730Y-2839150I30002J19557D01*
G01X1622730Y-2839150D01*
G03X1658544Y-2803336I0J35814D01*
G01X1658544Y-2713336D01*
G03X1622730Y-2677522I-35814J0D01*
G01X1542730Y-2677522D01*
G03X1512727Y-2693779I0J-35814D01*
G03X1491752Y-2678678I-30002J-19557D01*
G02X1491239Y-2675236I11298J3442D01*
G01X1491239Y-2583517D01*
G03X1477030Y-2549212I-48514J0D01*
G01X1433029Y-2505211D01*
G01X1479005Y-2505211D01*
G03X1514819Y-2469397I0J35814D01*
G01X1514819Y-2463134D01*
G01X1517105Y-2462911D01*
G01X1645002Y-2462911D01*
G01X1775048Y-2592958D01*
G01X1775371Y-2595748D01*
G03X1827288Y-2655573I66129J4948D01*
G03X1899483Y-2622979I14212J64773D01*
G01X1899483Y-2709997D01*
G03X1913693Y-2744302I48514J0D01*
G01X2333180Y-3163789D01*
G03X2325116Y-3186430I27750J-22641D01*
G01X2325116Y-3315970D01*
G03X2360930Y-3351784I35814J0D01*
G01X2490470Y-3351784D01*
G03X2526284Y-3315970I0J35814D01*
G01X2526284Y-3186430D01*
G03X2490470Y-3150616I-35814J0D01*
G01X2469331Y-3150616D01*
G02X2452105Y-3145496I0J31538D01*
G01X2401418Y-3094809D01*
G03X2521849Y-2967663I24282J97609D01*
G03X2350807Y-2930058I-96149J-29537D01*
G01X2350494Y-2930374D01*
G03X2348025Y-2933143I25462J-25186D01*
G01X2345054Y-2936845D01*
G01X2161952Y-2753742D01*
G01X2161629Y-2750952D01*
G03X2107086Y-2690606I-66129J-4948D01*
G03X2035111Y-2728501I-11586J-65294D01*
G01X1996511Y-2689902D01*
G01X1996511Y-2653075D01*
G03X2078701Y-2620279I22789J62275D01*
G03X2055114Y-2534989I-59401J29479D01*
G01X2055114Y-2482349D01*
G01X2127202Y-2410261D01*
G03X2141411Y-2375956I-34305J34305D01*
G01X2141411Y-2156299D01*
G01X2580554Y-1717156D01*
G03X2761939Y-1602198I61046J104256D01*
G03X2563114Y-1521053I-120339J-10702D01*
G01X2563114Y-1450747D01*
G03X2760507Y-1380280I78486J91847D01*
G03X2600026Y-1245465I-118907J21380D01*
G01X2621466Y-1224024D01*
G03X2745592Y-1043405I20134J119124D01*
G03X2527514Y-1065146I-103992J-61495D01*
G01X2527514Y-1033595D01*
G01X2589395Y-971714D01*
G01X2726600Y-971714D01*
G03X2762414Y-935900I0J35814D01*
G01X2762414Y-765900D01*
G03X2726600Y-730086I-35814J0D01*
G01X2556600Y-730086D01*
G03X2520786Y-765900I0J-35814D01*
G01X2520786Y-903105D01*
G01X2444696Y-979195D01*
G03X2430486Y-1013500I34305J-34305D01*
G01X2430486Y-1495548D01*
G01X2187659Y-1738375D01*
G01X1698995Y-1738375D01*
G01X1638667Y-1678047D01*
G03X1647812Y-1675951I-3359J35656D01*
G03X1660317Y-1678205I12504J33560D01*
G01X1715318Y-1678205D01*
G03X1727810Y-1675956I0J35814D01*
G03X1740301Y-1678205I12492J33565D01*
G01X1795302Y-1678205D01*
G03X1807807Y-1675951I0J35814D01*
G03X1820311Y-1678205I12504J33560D01*
G01X1875312Y-1678205D01*
G03X1887817Y-1675951I0J35814D01*
G03X1900321Y-1678205I12504J33560D01*
G01X1955322Y-1678205D01*
G03X1974873Y-1672397I0J35814D01*
G03X1997808Y-1680704I22934J27507D01*
G01X2087808Y-1680704D01*
G03X2123622Y-1644890I0J35814D01*
G01X2123622Y-1554890D01*
G03X2120329Y-1539890I-35814J0D01*
G03X2121122Y-1532395I-35021J7496D01*
G01X2121122Y-1477394D01*
G03X2118873Y-1464902I-35814J0D01*
G03X2121122Y-1452410I-33565J12492D01*
G01X2121122Y-1397409D01*
G03X2118868Y-1384905I-35814J0D01*
G03X2121122Y-1372400I-33560J12504D01*
G01X2121122Y-1317399D01*
G03X2118868Y-1304895I-35814J0D01*
G03X2121122Y-1292390I-33560J12504D01*
G01X2121122Y-1237389D01*
G03X2118873Y-1224897I-35814J0D01*
G03X2121122Y-1212405I-33565J12492D01*
G01X2121122Y-1157404D01*
G03X2120915Y-1153560I-35814J0D01*
G01X2123408Y-1153409D01*
G01X2304032Y-1153409D01*
G01X2306231Y-1155153D01*
G03X2400027Y-1147848I43269J50253D01*
G03X2392125Y-1054100I-50527J42948D01*
G03X2389379Y-950317I-42625J50800D01*
G03X2288889Y-976396I-39879J-52983D01*
G01X2123408Y-976396D01*
G01X2120915Y-976245D01*
G03X2121122Y-972401I-35607J3844D01*
G01X2121122Y-917400D01*
G03X2118873Y-904908I-35814J0D01*
G03X2121122Y-892416I-33565J12492D01*
G01X2121122Y-837415D01*
G03X2118864Y-824898I-35814J0D01*
G03X2121122Y-812381I-33555J12517D01*
G01X2121122Y-757380D01*
G03X2118873Y-744888I-35814J0D01*
G03X2121122Y-732396I-33565J12492D01*
G01X2121122Y-677395D01*
G03X2120329Y-669900I-35814J0D01*
G03X2123622Y-654900I-32521J15000D01*
G01X2123622Y-564900D01*
G03X2087808Y-529086I-35814J0D01*
G01X1997808Y-529086D01*
G03X1974873Y-537392I0J-35814D01*
G03X1955322Y-531585I-19551J-30007D01*
G01X1900321Y-531585D01*
G03X1887817Y-533839I0J-35814D01*
G03X1875312Y-531585I-12504J-33560D01*
G01X1820311Y-531585D01*
G03X1807820Y-533834I0J-35814D01*
G03X1795328Y-531585I-12492J-33565D01*
G01X1740327Y-531585D01*
G03X1727822Y-533839I0J-35814D01*
G03X1715318Y-531585I-12504J-33560D01*
G01X1660317Y-531585D01*
G03X1647825Y-533834I0J-35814D01*
G03X1635333Y-531585I-12492J-33565D01*
G01X1580332Y-531585D01*
G03X1567828Y-533839I0J-35814D01*
G03X1555323Y-531585I-12504J-33560D01*
G01X1500322Y-531585D01*
G03X1487830Y-533834I0J-35814D01*
G03X1475339Y-531585I-12492J-33565D01*
G01X1420338Y-531585D01*
G03X1407833Y-533839I0J-35814D01*
G03X1395329Y-531585I-12504J-33560D01*
G01X1340328Y-531585D01*
G03X1327823Y-533839I0J-35814D01*
G03X1315319Y-531585I-12504J-33560D01*
G01X1260318Y-531585D01*
G03X1247826Y-533834I0J-35814D01*
G03X1235334Y-531585I-12492J-33565D01*
G01X1180333Y-531585D01*
G03X1167829Y-533839I0J-35814D01*
G03X1155324Y-531585I-12504J-33560D01*
G01X1100323Y-531585D01*
G03X1087819Y-533839I0J-35814D01*
G03X1075314Y-531585I-12504J-33560D01*
G01X1020313Y-531585D01*
G03X1007809Y-533839I0J-35814D01*
G03X995304Y-531585I-12504J-33560D01*
G01X940303Y-531585D01*
G03X920752Y-537392I0J-35814D01*
G03X897818Y-529086I-22934J-27507D01*
G01X807818Y-529086D01*
G03X772004Y-564900I0J-35814D01*
G01X772004Y-654900D01*
G03X775296Y-669900I35814J0D01*
G03X774503Y-677395I35021J-7496D01*
G01X774503Y-719458D01*
G01X651894Y-596849D01*
G02X646774Y-579622I26418J17226D01*
G01X646774Y-541000D01*
G03X610960Y-505186I-35814J0D01*
G01X610706Y-505186D01*
G03X604941Y-498232I-40069J-27351D01*
G01X1171425Y-3476478D02*
G03X1135611Y-3440664I-35814J0D01*
G01X1075611Y-3440664D01*
G03X1039797Y-3476478I0J-35814D01*
G01X1039797Y-3516478D01*
G03X1075611Y-3552292I35814J0D01*
G01X1135611Y-3552292D01*
G03X1171425Y-3516478I0J35814D01*
G01X1171425Y-3476478D01*
G01X2404369Y-600421D02*
G01X2347342Y-657448D01*
G01X2344552Y-657771D01*
G03X2302609Y-770791I4948J-66129D01*
G03X2415629Y-728848I46891J46891D01*
G01X2415952Y-726058D01*
G01X2442534Y-699476D01*
G02X2457389Y-688614I42393J-42393D01*
G01X2530387Y-688614D01*
G03X2565400Y-660334I0J35814D01*
G03X2600413Y-688614I35013J7534D01*
G01X2681060Y-688614D01*
G03X2716874Y-652800I0J35814D01*
G01X2716874Y-566400D01*
G03X2681060Y-530586I-35814J0D01*
G01X2645314Y-530586D01*
G02X2628087Y-525465I0J31538D01*
G01X2563618Y-460995D01*
G03X2529313Y-446786I-34305J-34305D01*
G01X2413000Y-446786D01*
G03X2378695Y-460995I0J-48514D01*
G01X2359864Y-479827D01*
G03X2302368Y-574695I2336J-66273D01*
G03X2412300Y-589546I59832J28595D01*
G02X2404369Y-600421I-38688J19883D01*
G01X2425700Y-2388616D02*
G03X2425700Y-2589784I0J-100584D01*
G03X2425700Y-2388616I0J100584D01*
G01X2425700Y-2642616D02*
G03X2425700Y-2843784I0J-100584D01*
G03X2425700Y-2642616I0J100584D01*
G01X2641600Y-1746086D02*
G03X2641600Y-1987714I0J-120814D01*
G03X2641600Y-1746086I0J120814D01*
G01X839221Y-3141703D02*
G01X844526Y-3141703D01*
G03X880340Y-3105889I0J35814D01*
G01X880340Y-3082549D01*
G01X915159Y-3117368D01*
G02X920279Y-3134594I-26418J-17226D01*
G01X920279Y-3188973D01*
G03X956093Y-3224787I35814J0D01*
G01X1018286Y-3224787D01*
G01X1018286Y-3233232D01*
G01X925624Y-3233232D01*
G03X889831Y-3267832I0J-35814D01*
G01X808118Y-3267832D01*
G03X839221Y-3141703I-52836J79929D01*
G01X1517105Y-2232914D02*
G01X1792897Y-2232914D01*
G01X1795183Y-2233137D01*
G01X1795183Y-2364400D01*
G03X1830997Y-2400214I35814J0D01*
G01X1899260Y-2400214D01*
G01X1899483Y-2402500D01*
G01X1899483Y-2558621D01*
G03X1846448Y-2524671I-57983J-32179D01*
G01X1843658Y-2524348D01*
G01X1699402Y-2380092D01*
G03X1665097Y-2365883I-34305J-34305D01*
G01X1517105Y-2365883D01*
G01X1514819Y-2365660D01*
G01X1514819Y-2359397D01*
G03X1479005Y-2323583I-35814J0D01*
G01X1229006Y-2323583D01*
G03X1193192Y-2359397I0J-35814D01*
G01X1193192Y-2379272D01*
G03X1142762Y-2335167I-62892J-21028D01*
G03X1079613Y-2357541I-12462J-65133D01*
G03X977595Y-2373537I-44563J-49109D01*
G03X1014899Y-2469828I57455J-33113D01*
G01X1018796Y-2471132D01*
G01X1021037Y-2472059D01*
G01X1021497Y-2472315D01*
G01X1021951Y-2472681D01*
G01X1042275Y-2493005D01*
G03X1076579Y-2507214I34305J34305D01*
G01X1092405Y-2507214D01*
G01X1139054Y-2553863D01*
G01X1106766Y-2553863D01*
G03X1071753Y-2582144I0J-35814D01*
G03X1036740Y-2553863I-35013J-7534D01*
G01X956093Y-2553863D01*
G03X920725Y-2584043I0J-35814D01*
G02X917993Y-2584364I-2732J11491D01*
G01X882626Y-2584364D01*
G01X880340Y-2584344D01*
G01X880340Y-2565894D01*
G03X878916Y-2555895I-35814J0D01*
G03X880340Y-2545895I-34390J9999D01*
G01X880340Y-2485895D01*
G03X878918Y-2475903I-35814J0D01*
G03X880340Y-2465911I-34392J9992D01*
G01X880340Y-2405911D01*
G03X844526Y-2370097I-35814J0D01*
G01X839221Y-2370097D01*
G03X835180Y-2271014I-83940J46200D01*
G01X1190906Y-2271014D01*
G02X1221205Y-2274354I0J-139101D01*
G03X1229006Y-2275214I7801J34954D01*
G01X1479005Y-2275214D01*
G03X1514819Y-2239400I0J35814D01*
G01X1514819Y-2233137D01*
G01X1517105Y-2232914D01*
G01X1223986Y-2638795D02*
G01X1223986Y-2693128D01*
G01X1202849Y-2714265D01*
G01X1155443Y-2714265D01*
G03X1126120Y-2729518I0J-35814D01*
G03X1048676Y-2717964I-46620J-47161D01*
G03X1032825Y-2714265I-15852J-32115D01*
G01X925624Y-2714265D01*
G01X924814Y-2714275D01*
G01X924814Y-2705100D01*
G03X918636Y-2681409I-48514J0D01*
G01X920725Y-2681712D01*
G03X956093Y-2711892I35368J5634D01*
G01X1036740Y-2711892D01*
G03X1071753Y-2683612I0J35814D01*
G03X1106766Y-2711892I35013J7534D01*
G01X1187413Y-2711892D01*
G03X1223227Y-2676078I0J35814D01*
G01X1223227Y-2638036D01*
G01X1223986Y-2638795D01*
G01X931132Y-812406D02*
G01X931132Y-757405D01*
G03X928878Y-744901I-35814J0D01*
G03X931132Y-732396I-33560J12504D01*
G01X931132Y-687020D01*
G03X940303Y-688214I9171J34620D01*
G01X995304Y-688214D01*
G03X1007809Y-685960I0J35814D01*
G03X1020313Y-688214I12504J33560D01*
G01X1075314Y-688214D01*
G03X1087819Y-685960I0J35814D01*
G03X1100323Y-688214I12504J33560D01*
G01X1155324Y-688214D01*
G03X1167829Y-685960I0J35814D01*
G03X1180333Y-688214I12504J33560D01*
G01X1228374Y-688214D01*
G03X1197595Y-702295I3526J-48386D01*
G01X1079795Y-820096D01*
G03X1017950Y-771915I-63795J-18104D01*
G03X953380Y-816376I-1950J-66285D01*
G01X933418Y-816376D01*
G01X930928Y-816225D01*
G03X931132Y-812406I-35610J3819D01*
G01X1375312Y-1410720D02*
G01X1520313Y-1410720D01*
G03X1546555Y-1399278I0J35814D01*
G03X1572797Y-1410720I26242J24372D01*
G01X1717798Y-1410720D01*
G01X1719288Y-1410689D01*
G01X1719288Y-1510979D01*
G01X1704752Y-1496442D01*
G01X1704429Y-1493647D01*
G03X1590675Y-1452454I-66129J-4953D01*
G03X1507523Y-1442606I-47625J-46146D01*
G03X1481014Y-1522032I35527J-55994D01*
G03X1475313Y-1521576I-5701J-35357D01*
G01X1420312Y-1521576D01*
G03X1407820Y-1523825I0J-35814D01*
G03X1395329Y-1521576I-12492J-33565D01*
G01X1340328Y-1521576D01*
G03X1327823Y-1523829I0J-35814D01*
G03X1315319Y-1521576I-12504J-33560D01*
G01X1260318Y-1521576D01*
G03X1247813Y-1523829I0J-35814D01*
G03X1235309Y-1521576I-12504J-33560D01*
G01X1180308Y-1521576D01*
G03X1167803Y-1523829I0J-35814D01*
G03X1155299Y-1521576I-12504J-33560D01*
G01X1100298Y-1521576D01*
G03X1087806Y-1523825I0J-35814D01*
G03X1075314Y-1521576I-12492J-33565D01*
G01X1020313Y-1521576D01*
G03X1007809Y-1523829I0J-35814D01*
G03X995304Y-1521576I-12504J-33560D01*
G01X940303Y-1521576D01*
G03X931132Y-1522770I0J-35814D01*
G01X931132Y-1477394D01*
G03X928878Y-1464889I-35814J0D01*
G03X931132Y-1452385I-33560J12504D01*
G01X931132Y-1397384D01*
G03X928883Y-1384892I-35814J0D01*
G03X931132Y-1372400I-33565J12492D01*
G01X931132Y-1317399D01*
G03X928878Y-1304895I-35814J0D01*
G03X931132Y-1292390I-33560J12504D01*
G01X931132Y-1288004D01*
G01X1072137Y-1288004D01*
G01X1074338Y-1289749D01*
G03X1141988Y-1301156I43262J50259D01*
G01X1141988Y-1374906D01*
G03X1177802Y-1410720I35814J0D01*
G01X1322803Y-1410720D01*
G03X1349058Y-1399264I0J35814D01*
G03X1375312Y-1410720I26255J24358D01*
G01X1198962Y-1778541D02*
G03X1096264Y-1799391I-43262J-50259D01*
G01X1096264Y-1680491D01*
G01X1096417Y-1677994D01*
G03X1100298Y-1678205I3881J35603D01*
G01X1155299Y-1678205D01*
G03X1167803Y-1675951I0J35814D01*
G03X1180308Y-1678205I12504J33560D01*
G01X1182626Y-1678205D01*
G03X1211022Y-1758984I61974J-23595D01*
G03X1295400Y-1744425I33578J57184D01*
G03X1389458Y-1752062I50800J42625D01*
G01X1391663Y-1750314D01*
G01X1397000Y-1750314D01*
G03X1431305Y-1736105I0J48514D01*
G01X1482117Y-1685292D01*
G03X1489131Y-1676411I-34305J34305D01*
G03X1493066Y-1677462I11191J34021D01*
G02X1509998Y-1686596I-6800J-32867D01*
G01X1603688Y-1780286D01*
G01X1201163Y-1780286D01*
G01X1198962Y-1778541D01*
G01X1247826Y-685965D02*
G03X1257289Y-688086I12492J33565D01*
G01X1238362Y-688086D01*
G03X1247826Y-685965I-3028J35686D01*
G01X1717798Y-799095D02*
G01X1572797Y-799095D01*
G03X1546555Y-810537I0J-35814D01*
G03X1520313Y-799095I-26242J-24372D01*
G01X1469978Y-799095D01*
G03X1512853Y-749471I-22178J62495D01*
G03X1492106Y-687259I-65053J12871D01*
G03X1500322Y-688214I8216J34859D01*
G01X1555323Y-688214D01*
G03X1567828Y-685960I0J35814D01*
G03X1580332Y-688214I12504J33560D01*
G01X1635333Y-688214D01*
G03X1647825Y-685965I0J35814D01*
G03X1660317Y-688214I12492J33565D01*
G01X1715318Y-688214D01*
G03X1727822Y-685960I0J35814D01*
G03X1740327Y-688214I12504J33560D01*
G01X1795328Y-688214D01*
G03X1807820Y-685965I0J35814D01*
G03X1810395Y-686814I12492J33565D01*
G03X1788071Y-731652I43805J-49786D01*
G01X1787748Y-734442D01*
G01X1733497Y-788694D01*
G03X1725161Y-799860I34305J-34305D01*
G03X1717798Y-799095I-7363J-35049D01*
G01X1856358Y-803052D02*
G01X1859148Y-802729D01*
G03X1916739Y-758656I-4948J66129D01*
G03X1899538Y-688206I-62539J22056D01*
G01X1900321Y-688214D01*
G01X1955322Y-688214D01*
G03X1964493Y-687020I0J35814D01*
G01X1964493Y-732396D01*
G03X1966742Y-744888I35814J0D01*
G03X1964493Y-757380I33565J-12492D01*
G01X1964493Y-812381D01*
G03X1966752Y-824898I35814J0D01*
G03X1964493Y-837415I33555J-12517D01*
G01X1964493Y-892416D01*
G03X1966742Y-904908I35814J0D01*
G03X1964493Y-917400I33565J-12492D01*
G01X1964493Y-972401D01*
G03X1966747Y-984905I35814J0D01*
G03X1964493Y-997410I33560J-12504D01*
G01X1964493Y-1052411D01*
G03X1966742Y-1064903I35814J0D01*
G03X1964493Y-1077394I33565J-12492D01*
G01X1964493Y-1132395D01*
G03X1966747Y-1144900I35814J0D01*
G03X1964493Y-1157404I33560J-12504D01*
G01X1964493Y-1212405D01*
G03X1966742Y-1224897I35814J0D01*
G03X1964493Y-1237389I33565J-12492D01*
G01X1964493Y-1286284D01*
G01X1920652Y-1242442D01*
G01X1920329Y-1239647D01*
G03X1882685Y-1184715I-66129J-4953D01*
G03X1816316Y-1190173I-28485J-59885D01*
G01X1816316Y-843093D01*
G01X1856358Y-803052D01*
G54D11*
G01X425298Y-1454446D02*
G01X425298Y-1480354D01*
G01X141008Y-3310953D02*
G01X166916Y-3310953D01*
G01X101262Y-3271208D02*
G01X101262Y-3245300D01*
G01X101262Y-3350699D02*
G01X101262Y-3376607D01*
G01X605048Y-1054100D02*
G01X630956Y-1054100D01*
G01X565302Y-1098846D02*
G01X565302Y-1124754D01*
G01X565302Y-1009354D02*
G01X565302Y-983446D01*
G01X565302Y-1847554D02*
G01X565302Y-1821646D01*
G01X565302Y-1937046D02*
G01X565302Y-1962954D01*
G01X605048Y-1231900D02*
G01X630956Y-1231900D01*
G01X565302Y-1276646D02*
G01X565302Y-1302554D01*
G01X565302Y-1187154D02*
G01X565302Y-1161246D01*
G01X844272Y-2435911D02*
G01X870180Y-2435911D01*
G01X808072Y-1599890D02*
G01X782164Y-1599890D01*
G01X852818Y-1644636D02*
G01X852818Y-1670544D01*
G01X810571Y-1504894D02*
G01X784663Y-1504894D01*
G01X895064Y-1504894D02*
G01X920972Y-1504894D01*
G01X895064Y-784906D02*
G01X920972Y-784906D01*
G01X810571Y-704896D02*
G01X784663Y-704896D01*
G01X895064Y-704896D02*
G01X920972Y-704896D01*
G01X808072Y-609900D02*
G01X782164Y-609900D01*
G01X852818Y-565154D02*
G01X852818Y-539246D01*
G01X967804Y-652146D02*
G01X967804Y-678054D01*
G01X967804Y-567653D02*
G01X967804Y-541745D01*
G01X1135357Y-3496478D02*
G01X1161265Y-3496478D01*
G01X1075865Y-3496478D02*
G01X1049957Y-3496478D01*
G01X1105611Y-3516224D02*
G01X1105611Y-3542132D01*
G01X1105611Y-3476732D02*
G01X1105611Y-3450824D01*
G01X1187159Y-3145773D02*
G01X1213067Y-3145773D01*
G01X1147089Y-3102826D02*
G01X1147089Y-3076918D01*
G01X1147089Y-3188719D02*
G01X1147089Y-3214627D01*
G01X1147089Y-2675824D02*
G01X1147089Y-2701732D01*
G01X1367828Y-567653D02*
G01X1367828Y-541745D01*
G01X1207834Y-652146D02*
G01X1207834Y-678054D01*
G01X1207834Y-567653D02*
G01X1207834Y-541745D01*
G01X1287818Y-567653D02*
G01X1287818Y-541745D01*
G01X1047814Y-652146D02*
G01X1047814Y-678054D01*
G01X1047814Y-567653D02*
G01X1047814Y-541745D01*
G01X1127824Y-652146D02*
G01X1127824Y-678054D01*
G01X1127824Y-567653D02*
G01X1127824Y-541745D01*
G01X1155697Y-2871675D02*
G01X1129789Y-2871675D01*
G01X1127798Y-1642137D02*
G01X1127798Y-1668045D01*
G01X1127798Y-1557644D02*
G01X1127798Y-1531736D01*
G01X1478751Y-1954403D02*
G01X1504659Y-1954403D01*
G01X1229260Y-1954403D02*
G01X1203352Y-1954403D01*
G01X1354005Y-2009149D02*
G01X1354005Y-2035057D01*
G01X1927822Y-652146D02*
G01X1927822Y-678054D01*
G01X1927822Y-567653D02*
G01X1927822Y-541745D01*
G01X1447838Y-567653D02*
G01X1447838Y-541745D01*
G01X2087554Y-609900D02*
G01X2113462Y-609900D01*
G01X2042808Y-565154D02*
G01X2042808Y-539246D01*
G01X1527823Y-652146D02*
G01X1527823Y-678054D01*
G01X1527823Y-567653D02*
G01X1527823Y-541745D01*
G01X1607833Y-652146D02*
G01X1607833Y-678054D01*
G01X1607833Y-567653D02*
G01X1607833Y-541745D01*
G01X1767827Y-652146D02*
G01X1767827Y-678054D01*
G01X1767827Y-567653D02*
G01X1767827Y-541745D01*
G01X1847812Y-567653D02*
G01X1847812Y-541745D01*
G01X1687817Y-652146D02*
G01X1687817Y-678054D01*
G01X1687817Y-567653D02*
G01X1687817Y-541745D01*
G01X2087554Y-1599890D02*
G01X2113462Y-1599890D01*
G01X2042808Y-1644636D02*
G01X2042808Y-1670544D01*
G01X1622476Y-2936136D02*
G01X1648384Y-2936136D01*
G01X1582730Y-2980882D02*
G01X1582730Y-3006790D01*
G01X1582730Y-2891390D02*
G01X1582730Y-2865482D01*
G01X1622476Y-2758336D02*
G01X1648384Y-2758336D01*
G01X1582730Y-2803082D02*
G01X1582730Y-2828990D01*
G01X1582730Y-2713590D02*
G01X1582730Y-2687682D01*
G01X165100Y-766154D02*
G01X165100Y-740246D01*
G01X165100Y-935646D02*
G01X165100Y-961554D01*
G01X80354Y-850900D02*
G01X54446Y-850900D01*
G01X287274Y-3128157D02*
G01X287274Y-3102249D01*
G01X197528Y-3187903D02*
G01X171620Y-3187903D01*
G01X287274Y-2264151D02*
G01X287274Y-2238243D01*
G01X287274Y-2383643D02*
G01X287274Y-2409551D01*
G01X197528Y-2323897D02*
G01X171620Y-2323897D01*
G01X815028Y-2323897D02*
G01X840936Y-2323897D01*
G01X595536Y-2323897D02*
G01X569628Y-2323897D01*
G01X815028Y-3187903D02*
G01X840936Y-3187903D01*
G01X1892292Y-3394646D02*
G01X1892292Y-3368738D01*
G01X1892292Y-3514138D02*
G01X1892292Y-3540046D01*
G01X2425700Y-2424684D02*
G01X2425700Y-2398776D01*
G01X2425700Y-2553716D02*
G01X2425700Y-2579624D01*
G01X2490216Y-2489200D02*
G01X2516124Y-2489200D01*
G01X2361184Y-2489200D02*
G01X2335276Y-2489200D01*
G01X2641600Y-1782154D02*
G01X2641600Y-1756246D01*
G01X2641600Y-1951646D02*
G01X2641600Y-1977554D01*
G01X2726346Y-1866900D02*
G01X2752254Y-1866900D01*
G01X2556854Y-1866900D02*
G01X2530946Y-1866900D01*
G04 Copper End*

G04 TearDrop Start*
G36*
G01X410114Y-1296946D02*
G01X362828Y-1308312D01*
G03X385298Y-1276900I-83404J83404D01*
G01X443950Y-1276900D01*
G03X410114Y-1296946I22246J-76128D01*
G37*
G36*
G01X412598Y-1148800D02*
G01X437998Y-1148800D01*
G03X457048Y-1186900I47625J0D01*
G01X393548Y-1186900D01*
G03X412598Y-1148800I-28575J38100D01*
G37*
G36*
G01X524793Y-1290370D02*
G01X511832Y-1267410D01*
G03X525302Y-1226999I-53882J40411D01*
G01X565204Y-1276900D01*
G03X524793Y-1290370I0J-67352D01*
G37*
G36*
G01X437998Y-1137200D02*
G01X412598Y-1137200D01*
G03X393548Y-1099100I-47625J0D01*
G01X457048Y-1099100D01*
G03X437998Y-1137200I28575J-38100D01*
G37*
G36*
G01X407264Y-971000D02*
G01X432664Y-971000D01*
G03X451714Y-1009100I47625J0D01*
G01X388214Y-1009100D01*
G03X407264Y-971000I-28575J38100D01*
G37*
G36*
G01X600812Y-1351230D02*
G01X618773Y-1369190D01*
G03X605302Y-1409601I53882J-40411D01*
G01X560401Y-1364700D01*
G03X600812Y-1351230I0J67352D01*
G37*
G36*
G01X428012Y-1351230D02*
G01X484821Y-1330342D01*
G03X465298Y-1364700I52635J-52635D01*
G01X387601Y-1364700D01*
G03X428012Y-1351230I0J67352D01*
G37*
G36*
G01X1455425Y-2841436D02*
G01X1430025Y-2841436D01*
G03X1410975Y-2803336I-47625J0D01*
G01X1474475Y-2803336D01*
G03X1455425Y-2841436I28575J-38100D01*
G37*
G36*
G01X1430025Y-2675236D02*
G01X1455425Y-2675236D01*
G03X1474475Y-2713336I47625J0D01*
G01X1410975Y-2713336D01*
G03X1430025Y-2675236I-28575J38100D01*
G37*
G36*
G01X1430025Y-2853036D02*
G01X1455425Y-2853036D01*
G03X1474475Y-2891136I47625J0D01*
G01X1410975Y-2891136D01*
G03X1430025Y-2853036I-28575J38100D01*
G37*
G36*
G01X1407215Y-2994606D02*
G01X1389255Y-2976646D01*
G03X1402725Y-2936234I-53882J40411D01*
G01X1447627Y-2981136D01*
G03X1407215Y-2994606I0J-67352D01*
G37*
G36*
G01X180048Y-3478936D02*
G01X180048Y-3504336D01*
G03X141948Y-3510846I0J-114745D01*
G01X141948Y-3459886D01*
G03X180048Y-3478936I38100J28575D01*
G37*
G36*
G01X407264Y-807700D02*
G01X432664Y-807700D01*
G03X451714Y-845800I47625J0D01*
G01X388214Y-845800D01*
G03X407264Y-807700I-28575J38100D01*
G37*
G36*
G01X432664Y-970300D02*
G01X407264Y-970300D01*
G03X388214Y-932200I-47625J0D01*
G01X451714Y-932200D01*
G03X432664Y-970300I28575J-38100D01*
G37*
G36*
G01X647700Y-876300D02*
G01X647700Y-901700D01*
G03X610960Y-920750I0J-44953D01*
G01X610960Y-857250D01*
G03X647700Y-876300I36740J25903D01*
G37*
G36*
G01X348000Y-3328264D02*
G01X348000Y-3353664D01*
G03X309900Y-3372714I0J-47625D01*
G01X309900Y-3309214D01*
G03X348000Y-3328264I38100J28575D01*
G37*
G36*
G01X185400Y-3504336D02*
G01X185400Y-3478936D01*
G03X223500Y-3459886I0J47625D01*
G01X223500Y-3523386D01*
G03X185400Y-3504336I-38100J-28575D01*
G37*
G36*
G01X557936Y-532536D02*
G01X583336Y-532536D01*
G03X602386Y-541000I19050J17208D01*
G01X538886Y-541000D01*
G03X557936Y-532536I0J25671D01*
G37*
G36*
G01X624431Y-620034D02*
G01X609347Y-640871D01*
G03X568935Y-627400I-40411J-53882D01*
G01X610960Y-579622D01*
G03X624431Y-620034I67352J0D01*
G37*
G36*
G01X341540Y-596900D02*
G01X341540Y-571500D01*
G03X379640Y-552450I0J47625D01*
G01X379640Y-615950D01*
G03X341540Y-596900I-38100J-28575D01*
G37*
G36*
G01X432664Y-665500D02*
G01X407264Y-665500D01*
G03X388214Y-627400I-47625J0D01*
G01X451714Y-627400D01*
G03X432664Y-665500I28575J-38100D01*
G37*
G36*
G01X647700Y-723900D02*
G01X647700Y-749300D01*
G03X610960Y-768350I0J-44953D01*
G01X610960Y-704850D01*
G03X647700Y-723900I36740J25903D01*
G37*
G36*
G01X432664Y-817900D02*
G01X407264Y-817900D01*
G03X388214Y-779800I-47625J0D01*
G01X451714Y-779800D01*
G03X432664Y-817900I28575J-38100D01*
G37*
G36*
G01X407264Y-655300D02*
G01X432664Y-655300D01*
G03X451714Y-693400I47625J0D01*
G01X388214Y-693400D01*
G03X407264Y-655300I-28575J38100D01*
G37*
G36*
G01X2123408Y-1092195D02*
G01X2123408Y-1117595D01*
G03X2085308Y-1132395I0J-56439D01*
G01X2085308Y-1077394D01*
G03X2123408Y-1092195I38100J41639D01*
G37*
G36*
G01X1962207Y-1357600D02*
G01X1962207Y-1332200D01*
G03X2000307Y-1317399I0J56439D01*
G01X2000307Y-1372400D01*
G03X1962207Y-1357600I-38100J-41639D01*
G37*
G36*
G01X1962207Y-1437610D02*
G01X1962207Y-1412210D01*
G03X2000307Y-1397409I0J56439D01*
G01X2000307Y-1452410D01*
G03X1962207Y-1437610I-38100J-41639D01*
G37*
G36*
G01X980504Y-1680491D02*
G01X955104Y-1680491D01*
G03X940303Y-1642391I-56439J0D01*
G01X995304Y-1642391D01*
G03X980504Y-1680491I41639J-38100D01*
G37*
G36*
G01X1060450Y-1680491D02*
G01X1035050Y-1680491D01*
G03X1020313Y-1642391I-56619J0D01*
G01X1075314Y-1642391D01*
G03X1060450Y-1680491I41397J-38100D01*
G37*
G36*
G01X840118Y-1516790D02*
G01X865518Y-1516790D01*
G03X884568Y-1554890I47625J0D01*
G01X821068Y-1554890D01*
G03X840118Y-1516790I-28575J38100D01*
G37*
G36*
G01X933418Y-852190D02*
G01X933418Y-877590D01*
G03X895318Y-892391I0J-56439D01*
G01X895318Y-837390D01*
G03X933418Y-852190I38100J41639D01*
G37*
G36*
G01X784917Y-1037585D02*
G01X784917Y-1012185D01*
G03X810317Y-997384I0J29195D01*
G01X810317Y-1052385D01*
G03X784917Y-1037585I-25400J-14395D01*
G37*
G36*
G01X906875Y-1067586D02*
G01X906875Y-1092986D01*
G03X895318Y-1112036I9923J-19050D01*
G01X895318Y-1077394D01*
G03X906875Y-1067586I0J11712D01*
G37*
G36*
G01X784917Y-1277590D02*
G01X784917Y-1252190D01*
G03X810317Y-1237389I0J29195D01*
G01X810317Y-1292390D01*
G03X784917Y-1277590I-25400J-14395D01*
G37*
G36*
G01X906875Y-1227580D02*
G01X906875Y-1252980D01*
G03X895318Y-1272030I9923J-19050D01*
G01X895318Y-1237389D01*
G03X906875Y-1227580I0J11712D01*
G37*
G36*
G01X865518Y-1570495D02*
G01X840118Y-1570495D01*
G03X821068Y-1532395I-47625J0D01*
G01X884568Y-1532395D01*
G03X865518Y-1570495I28575J-38100D01*
G37*
G36*
G01X1300518Y-1658582D02*
G01X1275118Y-1658582D01*
G03X1260318Y-1642391I-16257J0D01*
G01X1315319Y-1642391D01*
G03X1300518Y-1658582I1456J-16191D01*
G37*
G36*
G01X1460513Y-1650987D02*
G01X1435113Y-1650987D01*
G03X1420312Y-1642391I-14801J-8443D01*
G01X1475313Y-1642391D01*
G03X1460513Y-1650987I0J-17039D01*
G37*
G36*
G01X1580783Y-1670812D02*
G01X1535323Y-1661272D01*
G03X1500322Y-1642391I-49057J-49057D01*
G01X1555323Y-1642391D01*
G03X1580783Y-1670812I271328J217444D01*
G37*
G36*
G01X1555152Y-1528663D02*
G01X1599754Y-1537344D01*
G03X1633590Y-1557390I56082J56082D01*
G01X1580307Y-1557390D01*
G03X1555152Y-1528663I-229221J-175340D01*
G37*
G36*
G01X1675117Y-1548117D02*
G01X1700517Y-1548117D01*
G03X1715318Y-1557390I14801J7176D01*
G01X1660317Y-1557390D01*
G03X1675117Y-1548117I0J16449D01*
G37*
G36*
G01X1755102Y-1519290D02*
G01X1780502Y-1519290D01*
G03X1795302Y-1557390I56439J0D01*
G01X1740301Y-1557390D01*
G03X1755102Y-1519290I-41639J38100D01*
G37*
G36*
G01X1835112Y-1519290D02*
G01X1860512Y-1519290D01*
G03X1875312Y-1557390I56439J0D01*
G01X1820311Y-1557390D01*
G03X1835112Y-1519290I-41639J38100D01*
G37*
G36*
G01X2123408Y-1012210D02*
G01X2123408Y-1037610D01*
G03X2085308Y-1052411I0J-56439D01*
G01X2085308Y-997410D01*
G03X2123408Y-1012210I38100J41639D01*
G37*
G36*
G01X1190906Y-2235200D02*
G01X1190906Y-2209800D01*
G03X1229006Y-2190750I0J47625D01*
G01X1229006Y-2239400D01*
G03X1190906Y-2235200I-38100J-170715D01*
G37*
G36*
G01X1517105Y-2171700D02*
G01X1517105Y-2197100D01*
G03X1479005Y-2216150I0J-47625D01*
G01X1479005Y-2152650D01*
G03X1517105Y-2171700I38100J28575D01*
G37*
G36*
G01X1366705Y-2494797D02*
G01X1341305Y-2494797D01*
G03X1322255Y-2469397I-26458J0D01*
G01X1385755Y-2469397D01*
G03X1366705Y-2494797I7408J-25400D01*
G37*
G36*
G01X1517105Y-2401697D02*
G01X1517105Y-2427097D01*
G03X1479005Y-2446147I0J-47625D01*
G01X1479005Y-2382647D01*
G03X1517105Y-2401697I38100J28575D01*
G37*
G36*
G01X1792897Y-2197100D02*
G01X1792897Y-2171700D01*
G03X1830997Y-2152650I0J47625D01*
G01X1830997Y-2216150D01*
G03X1792897Y-2197100I-38100J-28575D01*
G37*
G36*
G01X1960697Y-2402500D02*
G01X1935297Y-2402500D01*
G03X1916247Y-2364400I-47625J0D01*
G01X1979747Y-2364400D01*
G03X1960697Y-2402500I28575J-38100D01*
G37*
G36*
G01X1706822Y-3401183D02*
G01X1722483Y-3380922D01*
G03X1762894Y-3394392I40411J53882D01*
G01X1720292Y-3441594D01*
G03X1706822Y-3401183I-67352J0D01*
G37*
G36*
G01X1287829Y-2953971D02*
G01X1287829Y-2979371D01*
G03X1262644Y-2993272I0J-29765D01*
G01X1262644Y-2940071D01*
G03X1287829Y-2953971I25184J15864D01*
G37*
G36*
G01X1070925Y-2763979D02*
G01X1070925Y-2789379D01*
G03X1032825Y-2803280I0J-59166D01*
G01X1032825Y-2750079D01*
G03X1070925Y-2763979I38100J45266D01*
G37*
G36*
G01X1042875Y-2858975D02*
G01X1042875Y-2884375D01*
G03X1032825Y-2898276I4587J-13900D01*
G01X1032825Y-2845075D01*
G03X1042875Y-2858975I14637J0D01*
G37*
G36*
G01X912154Y-2949414D02*
G01X925262Y-2926601D01*
G03X965673Y-2940071I40411J53882D01*
G01X925624Y-2989826D01*
G03X912154Y-2949414I-67352J0D01*
G37*
G36*
G01X968324Y-3427146D02*
G01X942924Y-3427146D01*
G03X925624Y-3389046I-50604J0D01*
G01X987374Y-3389046D01*
G03X968324Y-3427146I28575J-38100D01*
G37*
G36*
G01X1057820Y-3254920D02*
G01X1045670Y-3302990D01*
G03X1025624Y-3336826I56082J-56082D01*
G01X1025624Y-3273326D01*
G03X1057820Y-3254920I-17674J68276D01*
G37*
G36*
G01X1373706Y-3316346D02*
G01X1373706Y-3341746D01*
G03X1335606Y-3360796I0J-47625D01*
G01X1335606Y-3297296D01*
G03X1373706Y-3316346I38100J28575D01*
G37*
G36*
G01X1272906Y-3230946D02*
G01X1298306Y-3230946D01*
G03X1317356Y-3269046I47625J0D01*
G01X1253856Y-3269046D01*
G03X1272906Y-3230946I-28575J38100D01*
G37*
G36*
G01X942924Y-3438378D02*
G01X968324Y-3438378D01*
G03X985624Y-3476478I50604J0D01*
G01X925624Y-3476478D01*
G03X942924Y-3438378I-33304J38100D01*
G37*
G36*
G01X942622Y-3094183D02*
G01X973463Y-3089102D01*
G03X1013874Y-3102572I40411J53882D01*
G01X956093Y-3134594D01*
G03X942622Y-3094183I-67352J0D01*
G37*
G36*
G01X1093295Y-2597044D02*
G01X1108379Y-2576207D01*
G03X1148790Y-2589677I40411J53882D01*
G01X1106766Y-2637455D01*
G03X1093295Y-2597044I-67352J0D01*
G37*
G36*
G01X917993Y-2645578D02*
G01X917993Y-2620178D01*
G03X956093Y-2601128I0J47625D01*
G01X956093Y-2664628D01*
G03X917993Y-2645578I-38100J-28575D01*
G37*
G36*
G01X848984Y-2918206D02*
G01X848984Y-2943606D01*
G03X844526Y-2945906I0J-5470D01*
G01X844526Y-2915906D01*
G03X848984Y-2918206I4458J3170D01*
G37*
G36*
G01X684606Y-2843606D02*
G01X684606Y-2818206D01*
G03X714526Y-2815906I0J195761D01*
G01X714526Y-2845906D01*
G03X684606Y-2843606I-29920J-193461D01*
G37*
G36*
G01X858339Y-2763339D02*
G01X858339Y-2788739D01*
G03X844526Y-2795894I0J-16913D01*
G01X844526Y-2765894D01*
G03X858339Y-2763339I0J38630D01*
G37*
G36*
G01X691061Y-2737939D02*
G01X691061Y-2712539D01*
G03X714526Y-2715906I23466J80085D01*
G01X714526Y-2745906D01*
G03X691061Y-2737939I-23466J-30574D01*
G37*
G36*
G01X852094Y-2668194D02*
G01X852094Y-2693594D01*
G03X844526Y-2695894I0J-13601D01*
G01X844526Y-2665894D01*
G03X852094Y-2668194I7568J11301D01*
G37*
G36*
G01X882626Y-2620178D02*
G01X882626Y-2645578D01*
G03X844526Y-2645907I-0J-2206689D01*
G01X844526Y-2615907D01*
G03X882626Y-2620178I38100J167802D01*
G37*
G36*
G01X697644Y-2988905D02*
G01X694780Y-2950120D01*
G03X714526Y-2965905I80670J80671D01*
G01X714526Y-3025905D01*
G03X697644Y-2988905I-57989J-4107D01*
G37*
G36*
G01X792226Y-3113659D02*
G01X766826Y-3113659D01*
G03X747776Y-3105889I-19050J-19468D01*
G01X811276Y-3105889D01*
G03X792226Y-3113659I0J-27238D01*
G37*
G36*
G01X685605Y-2570856D02*
G01X697644Y-2522895D01*
G03X714526Y-2485895I-41107J41107D01*
G01X714526Y-2545895D01*
G03X685605Y-2570856I155308J-209189D01*
G37*
G36*
G01X760791Y-3114433D02*
G01X788506Y-3122639D01*
G01X786577Y-3125166D01*
G01X785699Y-3127733D01*
G01X785735Y-3130321D01*
G01X786551Y-3132908D01*
G01X788012Y-3135475D01*
G01X789981Y-3138001D01*
G01X794903Y-3142846D01*
G01X720380Y-3127903D01*
G01X725594Y-3127715D01*
G01X731038Y-3127138D01*
G01X736575Y-3126153D01*
G01X742066Y-3124740D01*
G01X747371Y-3122881D01*
G01X752353Y-3120556D01*
G01X756873Y-3117746D01*
G01X760791Y-3114433D01*
G37*
G36*
G01X270420Y-1794420D02*
G01X258936Y-1841824D01*
G01X255573Y-1845581D01*
G01X252926Y-1849350D01*
G01X250904Y-1853138D01*
G01X249417Y-1856951D01*
G01X247680Y-1864680D01*
G01X246986Y-1872588D01*
G01X246603Y-1880727D01*
G01X245801Y-1889150D01*
G01X243849Y-1897907D01*
G01X242215Y-1902428D01*
G01X240019Y-1907052D01*
G01X196679Y-1787984D01*
G01X217213Y-1796889D01*
G01X226843Y-1800805D01*
G01X236109Y-1803676D01*
G01X240619Y-1804558D01*
G01X245054Y-1804987D01*
G01X249421Y-1804897D01*
G01X253725Y-1804225D01*
G01X257971Y-1802905D01*
G01X262165Y-1800874D01*
G01X266313Y-1798067D01*
G01X270420Y-1794420D01*
G37*
G36*
G01X2366058Y-3146019D02*
G01X2428920Y-3172960D01*
G03X2469331Y-3186430I40411J53882D01*
G01X2379529Y-3186430D01*
G03X2366058Y-3146019I-47146J6735D01*
G37*
G36*
G01X2337181Y-3009900D02*
G01X2337181Y-2984500D01*
G01X2341869Y-2984296D01*
G01X2345974Y-2983701D01*
G01X2349569Y-2982741D01*
G01X2352725Y-2981443D01*
G01X2355514Y-2979831D01*
G01X2358008Y-2977934D01*
G01X2362398Y-2973382D01*
G01X2370798Y-2961987D01*
G01X2375956Y-2955559D01*
G01X2382520Y-2948923D01*
G01X2382520Y-3045477D01*
G01X2375956Y-3038841D01*
G01X2370798Y-3032413D01*
G01X2362398Y-3021018D01*
G01X2358008Y-3016466D01*
G01X2355514Y-3014569D01*
G01X2352725Y-3012957D01*
G01X2349569Y-3011659D01*
G01X2345974Y-3010699D01*
G01X2341869Y-3010104D01*
G01X2337181Y-3009900D01*
G37*
G36*
G01X2586942Y-570890D02*
G01X2604903Y-552929D01*
G03X2645314Y-566400I40411J53882D01*
G01X2600413Y-611301D01*
G03X2586942Y-570890I-67352J0D01*
G37*
G36*
G01X2417209Y-674151D02*
G01X2429694Y-625746D01*
G03X2449740Y-591910I-56082J56082D01*
G01X2449740Y-652800D01*
G03X2417209Y-674151I35187J-89068D01*
G37*
G36*
G01X566991Y-1952870D02*
G01X509030Y-1974909D01*
G03X525302Y-1937300I-39350J39350D01*
G01X605302Y-1937300D01*
G03X566991Y-1952870I0J-54920D01*
G37*
G36*
G01X407264Y-1809200D02*
G01X432664Y-1809200D01*
G03X451714Y-1847300I47625J0D01*
G01X388214Y-1847300D01*
G03X407264Y-1809200I-28575J38100D01*
G37*
G36*
G01X437998Y-1975400D02*
G01X412598Y-1975400D01*
G03X393548Y-1937300I-47625J0D01*
G01X457048Y-1937300D01*
G03X437998Y-1975400I28575J-38100D01*
G37*
G36*
G01X763829Y-1842994D02*
G01X781790Y-1825034D01*
G03X822201Y-1838504I40411J53882D01*
G01X777300Y-1883405D01*
G03X763829Y-1842994I-67352J0D01*
G37*
G36*
G01X739200Y-2070100D02*
G01X739200Y-2044700D01*
G03X777300Y-2028496I0J52894D01*
G01X777300Y-2089150D01*
G03X739200Y-2070100I-38100J-28575D01*
G37*
G36*
G01X1052500Y-2020900D02*
G01X1027100Y-2020900D01*
G03X1008050Y-2003500I-19050J-1728D01*
G01X1071550Y-2003500D01*
G03X1052500Y-2020900I0J-19128D01*
G37*
G36*
G01X624431Y-1613510D02*
G01X606470Y-1631471D01*
G03X566059Y-1618000I-40411J-53882D01*
G01X610960Y-1573099D01*
G03X624431Y-1613510I67352J0D01*
G37*
G36*
G01X473758Y-1612361D02*
G01X456947Y-1631471D01*
G03X416535Y-1618000I-40411J-53882D01*
G01X460287Y-1571950D01*
G03X473758Y-1612361I67352J0D01*
G37*
G36*
G01X432664Y-1808500D02*
G01X407264Y-1808500D01*
G03X388214Y-1770400I-47625J0D01*
G01X451714Y-1770400D01*
G03X432664Y-1808500I28575J-38100D01*
G37*
G36*
G01X366169Y-1704930D02*
G01X367690Y-1670529D01*
G03X408101Y-1684000I40411J53882D01*
G01X379640Y-1745341D01*
G03X366169Y-1704930I-67352J0D01*
G37*
G36*
G01X624431Y-1765910D02*
G01X606470Y-1783871D01*
G03X566059Y-1770400I-40411J-53882D01*
G01X610960Y-1725499D01*
G03X624431Y-1765910I67352J0D01*
G37*
G36*
G01X516842Y-1691366D02*
G01X531926Y-1670529D01*
G03X572337Y-1684000I40411J53882D01*
G01X530313Y-1731778D01*
G03X516842Y-1691366I-67352J0D01*
G37*
G36*
G01X649060Y-2044700D02*
G01X649060Y-2070100D01*
G03X610960Y-2089150I0J-47625D01*
G01X610960Y-2025650D01*
G03X649060Y-2044700I38100J28575D01*
G37*
G36*
G01X412598Y-1976100D02*
G01X437998Y-1976100D01*
G03X457048Y-2014200I47625J0D01*
G01X393548Y-2014200D01*
G03X412598Y-1976100I-28575J38100D01*
G37*
G36*
G01X432664Y-2109064D02*
G01X407264Y-2109064D01*
G03X388214Y-2100600I-19050J-17208D01*
G01X451714Y-2100600D01*
G03X432664Y-2109064I0J-25671D01*
G37*
G36*
G01X1037817Y-2789379D02*
G01X1037817Y-2763979D01*
G01X1040664Y-2763754D01*
G01X1043538Y-2763117D01*
G01X1049210Y-2760844D01*
G01X1054523Y-2757630D01*
G01X1059167Y-2753946D01*
G01X1059167Y-2799413D01*
G01X1054523Y-2795729D01*
G01X1049210Y-2792515D01*
G01X1043538Y-2790242D01*
G01X1040664Y-2789605D01*
G01X1037817Y-2789379D01*
G37*
G36*
G01X685800Y-2811671D02*
G01X660400Y-2819400D01*
G01X660126Y-2817162D01*
G01X659351Y-2815381D01*
G01X658148Y-2813966D01*
G01X656587Y-2812829D01*
G01X652678Y-2811026D01*
G01X648198Y-2809253D01*
G01X689536Y-2790321D01*
G01X686967Y-2800890D01*
G01X686121Y-2806519D01*
G01X685800Y-2811671D01*
G37*
G36*
G01X660400Y-2743200D02*
G01X685800Y-2750929D01*
G01X686121Y-2756081D01*
G01X686967Y-2761710D01*
G01X689536Y-2772279D01*
G01X648198Y-2753347D01*
G01X652678Y-2751574D01*
G01X656587Y-2749771D01*
G01X658148Y-2748634D01*
G01X659351Y-2747219D01*
G01X660126Y-2745438D01*
G01X660400Y-2743200D01*
G37*
G36*
G01X1803045Y-2570306D02*
G01X1821006Y-2552345D01*
G01X1823179Y-2554200D01*
G01X1825661Y-2555781D01*
G01X1831279Y-2558185D01*
G01X1837308Y-2559668D01*
G01X1843197Y-2560347D01*
G01X1811047Y-2592497D01*
G01X1810368Y-2586608D01*
G01X1808885Y-2580579D01*
G01X1806481Y-2574961D01*
G01X1804900Y-2572479D01*
G01X1803045Y-2570306D01*
G37*
G36*
G01X1860512Y-1506494D02*
G01X1835112Y-1496971D01*
G01X1834476Y-1491398D01*
G01X1832799Y-1485928D01*
G01X1830429Y-1480642D01*
G01X1827712Y-1475621D01*
G01X1872171Y-1485144D01*
G01X1867890Y-1489258D01*
G01X1864155Y-1494707D01*
G01X1861514Y-1500712D01*
G01X1860774Y-1503679D01*
G01X1860512Y-1506494D01*
G37*
G36*
G01X2133955Y-2776394D02*
G01X2115994Y-2794355D01*
G01X2113821Y-2792500D01*
G01X2111339Y-2790919D01*
G01X2105721Y-2788515D01*
G01X2099692Y-2787032D01*
G01X2093803Y-2786353D01*
G01X2125953Y-2754203D01*
G01X2126632Y-2760092D01*
G01X2128115Y-2766121D01*
G01X2130519Y-2771739D01*
G01X2132100Y-2774221D01*
G01X2133955Y-2776394D01*
G37*
G36*
G01X2369994Y-685445D02*
G01X2387955Y-703406D01*
G01X2386100Y-705579D01*
G01X2384519Y-708061D01*
G01X2382115Y-713679D01*
G01X2380632Y-719708D01*
G01X2379953Y-725597D01*
G01X2347803Y-693447D01*
G01X2353692Y-692768D01*
G01X2359721Y-691285D01*
G01X2365339Y-688881D01*
G01X2367821Y-687300D01*
G01X2369994Y-685445D01*
G37*
G36*
G01X1833706Y-775055D02*
G01X1815745Y-757094D01*
G01X1817600Y-754921D01*
G01X1819181Y-752439D01*
G01X1821585Y-746821D01*
G01X1823068Y-740792D01*
G01X1823747Y-734903D01*
G01X1855897Y-767053D01*
G01X1850008Y-767732D01*
G01X1843979Y-769215D01*
G01X1838361Y-771619D01*
G01X1835879Y-773200D01*
G01X1833706Y-775055D01*
G37*
G36*
G01X363598Y-571500D02*
G01X347914Y-596900D01*
G01X342552Y-597341D01*
G01X337056Y-598504D01*
G01X331651Y-600147D01*
G01X326564Y-602031D01*
G01X342248Y-559355D01*
G01X343864Y-561764D01*
G01X346012Y-564026D01*
G01X348577Y-566086D01*
G01X351443Y-567892D01*
G01X357613Y-570527D01*
G01X360687Y-571248D01*
G01X363598Y-571500D01*
G37*
G36*
G01X2307813Y-1117595D02*
G01X2307820Y-1092195D01*
G01X2310668Y-1091970D01*
G01X2313542Y-1091333D01*
G01X2319214Y-1089060D01*
G01X2324526Y-1085847D01*
G01X2329170Y-1082163D01*
G01X2329163Y-1127630D01*
G01X2324519Y-1123945D01*
G01X2319207Y-1120731D01*
G01X2313535Y-1118457D01*
G01X2310661Y-1117820D01*
G01X2307813Y-1117595D01*
G37*
G36*
G01X2336870Y-1033890D02*
G01X2318910Y-1015930D01*
G01X2319670Y-1014705D01*
G01X2320024Y-1013097D01*
G01X2319898Y-1009178D01*
G01X2319312Y-1005052D01*
G01X2319047Y-1001603D01*
G01X2351197Y-1033753D01*
G01X2347748Y-1033488D01*
G01X2343622Y-1032902D01*
G01X2339703Y-1032776D01*
G01X2338095Y-1033130D01*
G01X2336870Y-1033890D01*
G37*
G36*
G01X1197383Y-1816100D02*
G01X1197383Y-1841500D01*
G01X1194536Y-1841725D01*
G01X1191662Y-1842362D01*
G01X1185990Y-1844635D01*
G01X1180677Y-1847849D01*
G01X1176033Y-1851534D01*
G01X1176033Y-1806066D01*
G01X1180677Y-1809751D01*
G01X1185990Y-1812965D01*
G01X1191662Y-1815238D01*
G01X1194536Y-1815875D01*
G01X1197383Y-1816100D01*
G37*
G36*
G01X955104Y-1701733D02*
G01X980504Y-1715947D01*
G01X980680Y-1731364D01*
G01X981239Y-1738947D01*
G01X982410Y-1746627D01*
G01X944817Y-1723084D01*
G01X947853Y-1721874D01*
G01X950235Y-1720068D01*
G01X952042Y-1717757D01*
G01X953348Y-1715028D01*
G01X954231Y-1711971D01*
G01X954767Y-1708678D01*
G01X955104Y-1701733D01*
G37*
G36*
G01X974317Y-1066800D02*
G01X974317Y-1041400D01*
G01X977164Y-1041175D01*
G01X980038Y-1040538D01*
G01X985710Y-1038265D01*
G01X991023Y-1035051D01*
G01X995667Y-1031366D01*
G01X995667Y-1076834D01*
G01X991023Y-1073149D01*
G01X985710Y-1069935D01*
G01X980038Y-1067662D01*
G01X977164Y-1067025D01*
G01X974317Y-1066800D01*
G37*
G36*
G01X1071731Y-2435891D02*
G01X1045929Y-2446010D01*
G01X1041599Y-2442515D01*
G01X1036639Y-2439755D01*
G01X1031335Y-2437562D01*
G01X1025976Y-2435769D01*
G01X1064997Y-2412432D01*
G01X1064691Y-2415246D01*
G01X1064769Y-2418345D01*
G01X1065964Y-2424897D01*
G01X1068359Y-2431082D01*
G01X1069937Y-2433722D01*
G01X1071731Y-2435891D01*
G37*
G36*
G01X1892655Y-1265094D02*
G01X1874694Y-1283055D01*
G01X1872521Y-1281200D01*
G01X1870039Y-1279619D01*
G01X1864421Y-1277215D01*
G01X1858392Y-1275732D01*
G01X1852503Y-1275053D01*
G01X1884653Y-1242903D01*
G01X1885332Y-1248792D01*
G01X1886815Y-1254821D01*
G01X1889219Y-1260439D01*
G01X1890800Y-1262921D01*
G01X1892655Y-1265094D01*
G37*
G36*
G01X1892655Y-1366694D02*
G01X1874694Y-1384655D01*
G01X1872521Y-1382800D01*
G01X1870039Y-1381219D01*
G01X1864421Y-1378815D01*
G01X1858392Y-1377332D01*
G01X1852503Y-1376653D01*
G01X1884653Y-1344503D01*
G01X1885332Y-1350392D01*
G01X1886815Y-1356421D01*
G01X1889219Y-1362039D01*
G01X1890800Y-1364521D01*
G01X1892655Y-1366694D01*
G37*
G36*
G01X985694Y-2057045D02*
G01X1003655Y-2075006D01*
G01X1001800Y-2077179D01*
G01X1000219Y-2079661D01*
G01X997815Y-2085279D01*
G01X996332Y-2091308D01*
G01X995653Y-2097197D01*
G01X963503Y-2065047D01*
G01X969392Y-2064368D01*
G01X975421Y-2062885D01*
G01X981039Y-2060481D01*
G01X983521Y-2058900D01*
G01X985694Y-2057045D01*
G37*
G36*
G01X1265094Y-1663345D02*
G01X1283055Y-1681306D01*
G01X1281200Y-1683479D01*
G01X1279619Y-1685961D01*
G01X1277215Y-1691579D01*
G01X1275732Y-1697608D01*
G01X1275053Y-1703497D01*
G01X1242903Y-1671347D01*
G01X1248792Y-1670668D01*
G01X1254821Y-1669185D01*
G01X1260439Y-1666781D01*
G01X1262921Y-1665200D01*
G01X1265094Y-1663345D01*
G37*
G36*
G01X1387883Y-1689100D02*
G01X1387883Y-1714500D01*
G01X1385036Y-1714725D01*
G01X1382162Y-1715362D01*
G01X1376490Y-1717635D01*
G01X1371177Y-1720849D01*
G01X1366533Y-1724534D01*
G01X1366533Y-1679066D01*
G01X1371177Y-1682751D01*
G01X1376490Y-1685965D01*
G01X1382162Y-1688238D01*
G01X1385036Y-1688875D01*
G01X1387883Y-1689100D01*
G37*
G36*
G01X1581505Y-1519094D02*
G01X1563544Y-1537055D01*
G01X1561371Y-1535200D01*
G01X1558889Y-1533619D01*
G01X1553271Y-1531215D01*
G01X1547242Y-1529732D01*
G01X1541353Y-1529053D01*
G01X1573503Y-1496903D01*
G01X1574182Y-1502792D01*
G01X1575665Y-1508821D01*
G01X1578069Y-1514439D01*
G01X1579650Y-1516921D01*
G01X1581505Y-1519094D01*
G37*
G36*
G01X1676755Y-1519094D02*
G01X1658794Y-1537055D01*
G01X1656621Y-1535200D01*
G01X1654139Y-1533619D01*
G01X1648521Y-1531215D01*
G01X1642492Y-1529732D01*
G01X1636603Y-1529053D01*
G01X1668753Y-1496903D01*
G01X1669432Y-1502792D01*
G01X1670915Y-1508821D01*
G01X1673319Y-1514439D01*
G01X1674900Y-1516921D01*
G01X1676755Y-1519094D01*
G37*
G36*
G01X1075917Y-1252190D02*
G01X1075917Y-1226790D01*
G01X1078764Y-1226564D01*
G01X1081638Y-1225927D01*
G01X1087310Y-1223654D01*
G01X1092623Y-1220440D01*
G01X1097267Y-1216756D01*
G01X1097267Y-1262223D01*
G01X1092623Y-1258539D01*
G01X1087310Y-1255325D01*
G01X1081638Y-1253052D01*
G01X1078764Y-1252415D01*
G01X1075917Y-1252190D01*
G37*
G36*
G01X1406117Y-749300D02*
G01X1406117Y-723900D01*
G01X1408964Y-723675D01*
G01X1411838Y-723038D01*
G01X1417510Y-720765D01*
G01X1422823Y-717551D01*
G01X1427467Y-713866D01*
G01X1427467Y-759334D01*
G01X1422823Y-755649D01*
G01X1417510Y-752435D01*
G01X1411838Y-750162D01*
G01X1408964Y-749525D01*
G01X1406117Y-749300D01*
G37*
G36*
G01X1036494Y-914045D02*
G01X1054455Y-932006D01*
G01X1052600Y-934179D01*
G01X1051019Y-936661D01*
G01X1048615Y-942279D01*
G01X1047132Y-948308D01*
G01X1046453Y-954197D01*
G01X1014303Y-922047D01*
G01X1020192Y-921368D01*
G01X1026221Y-919885D01*
G01X1031839Y-917481D01*
G01X1034321Y-915900D01*
G01X1036494Y-914045D01*
G37*
G36*
G01X606017Y-901700D02*
G01X606017Y-876300D01*
G01X608864Y-876075D01*
G01X611738Y-875438D01*
G01X617410Y-873165D01*
G01X622723Y-869951D01*
G01X627367Y-866266D01*
G01X627367Y-911734D01*
G01X622723Y-908049D01*
G01X617410Y-904835D01*
G01X611738Y-902562D01*
G01X608864Y-901925D01*
G01X606017Y-901700D01*
G37*
G36*
G01X998290Y-873870D02*
G01X980330Y-855910D01*
G01X982064Y-853857D01*
G01X983331Y-851689D01*
G01X984777Y-847029D01*
G01X985304Y-841957D01*
G01X985547Y-836503D01*
G01X1017697Y-868653D01*
G01X1012243Y-868896D01*
G01X1007171Y-869423D01*
G01X1002511Y-870869D01*
G01X1000343Y-872136D01*
G01X998290Y-873870D01*
G37*
G36*
G01X659484Y-2151561D02*
G01X669711Y-2126161D01*
G01X682023Y-2126530D01*
G01X690432Y-2127342D01*
G01X698841Y-2128148D01*
G01X711154Y-2128500D01*
G01X680834Y-2161854D01*
G01X680061Y-2158499D01*
G01X678528Y-2155965D01*
G01X676346Y-2154138D01*
G01X673623Y-2152903D01*
G01X670466Y-2152142D01*
G01X666985Y-2151742D01*
G01X659484Y-2151561D01*
G37*
G36*
G01X736296Y-1198308D02*
G03X815578Y-1252190I180881J180881D01*
G01X784917Y-1264890D01*
G01X728857Y-1252190D01*
G03X702220Y-1200153I-93908J-15234D01*
G01X736296Y-1198308D01*
G37*
G36*
G01X849359Y-2785020D02*
G02X863600Y-2824661I-48052J-39641D01*
G01X876300Y-2794000D01*
G01X849359Y-2785020D01*
G37*
G36*
G01X486545Y-2157685D02*
G02X432664Y-2078403I180881J180881D01*
G01X419964Y-2109064D01*
G01X432664Y-2165124D01*
G02X486545Y-2193606I-19237J-101600D01*
G01X486545Y-2157685D01*
G37*
G04 TearDrop End*

G04 Pad Start*
G54D12*
G01X425298Y-1231900D03*
G01X565302Y-1231900D03*
G01X425298Y-1054100D03*
G01X565302Y-1054100D03*
G54D13*
G01X565302Y-1409700D03*
G01X425298Y-1409700D03*
G54D12*
G01X1442725Y-2758336D03*
G01X1582730Y-2758336D03*
G01X1442725Y-2936136D03*
G01X1582730Y-2936136D03*
G54D14*
G01X101262Y-3310953D03*
G01X101948Y-3470846D03*
G54D15*
G01X419964Y-889000D03*
G01X570636Y-889000D03*
G54D16*
G01X266700Y-3340964D03*
G01X266700Y-3491636D03*
G54D17*
G01X570636Y-584200D03*
G01X419964Y-584200D03*
G01X570636Y-736600D03*
G01X419964Y-736600D03*
G54D18*
G01X1127824Y-609900D03*
G01X1207834Y-609900D03*
G01X1287818Y-609900D03*
G01X1367828Y-609900D03*
G01X1447838Y-609900D03*
G01X1527823Y-609900D03*
G01X1607833Y-609900D03*
G01X1687817Y-609900D03*
G01X1767827Y-609900D03*
G01X1847812Y-609900D03*
G01X1927822Y-609900D03*
G54D20*
G01X2042808Y-1104895D03*
G01X2042808Y-1184905D03*
G01X2042808Y-1264890D03*
G01X2042808Y-1344900D03*
G01X2042808Y-1424910D03*
G01X2042808Y-1504894D03*
G54D18*
G01X967804Y-1599890D03*
G01X1047814Y-1599890D03*
G01X1127798Y-1599890D03*
G01X1207808Y-1599890D03*
G54D21*
G01X1447813Y-1104895D03*
G54D22*
G01X852818Y-609900D03*
G01X852818Y-1599890D03*
G01X2042808Y-1599890D03*
G01X2042808Y-609900D03*
G54D23*
G01X852818Y-704896D03*
G01X852818Y-784906D03*
G01X852818Y-864890D03*
G01X852818Y-944900D03*
G01X852818Y-1024885D03*
G01X852818Y-1104895D03*
G01X852818Y-1184880D03*
G01X852818Y-1264890D03*
G01X852818Y-1344900D03*
G01X852818Y-1424884D03*
G01X852818Y-1504894D03*
G54D18*
G01X1287818Y-1599890D03*
G01X1367828Y-1599890D03*
G01X1447813Y-1599890D03*
G01X1527823Y-1599890D03*
G01X1607807Y-1599890D03*
G01X1687817Y-1599890D03*
G01X1767802Y-1599890D03*
G01X1847812Y-1599890D03*
G01X1927822Y-1599890D03*
G54D23*
G01X2042808Y-1024910D03*
G01X2042808Y-944900D03*
G01X2042808Y-864916D03*
G01X2042808Y-784880D03*
G01X2042808Y-704896D03*
G54D18*
G01X1047814Y-609900D03*
G01X967804Y-609900D03*
G54D21*
G01X1645298Y-1104895D03*
G01X1645298Y-907410D03*
G01X1447813Y-907410D03*
G01X1250302Y-1104895D03*
G01X1250302Y-1302405D03*
G01X1447813Y-1302405D03*
G01X1645298Y-1302405D03*
G54D24*
G01X1250300Y-907400D03*
G54D25*
G01X1354005Y-1954403D03*
G01X1354005Y-2184400D03*
G01X1354005Y-2414397D03*
G54D26*
G01X1947997Y-2184400D03*
G54D27*
G01X1765292Y-3454392D03*
G54D28*
G01X1892292Y-3454392D03*
G01X2019292Y-3454392D03*
G01X2146292Y-3454392D03*
G01X2273292Y-3454392D03*
G54D29*
G01X1209044Y-2966671D03*
G01X1209044Y-2871675D03*
G01X1209044Y-2776679D03*
G01X979225Y-2776679D03*
G01X979225Y-2871675D03*
G01X979225Y-2966671D03*
G54D30*
G01X975624Y-3329046D03*
G01X1285606Y-3329046D03*
G54D31*
G01X955624Y-3496478D03*
G54D32*
G01X1105611Y-3496478D03*
G54D17*
G01X1147089Y-3145773D03*
G01X996417Y-3145773D03*
G01X1147089Y-2632878D03*
G01X996417Y-2632878D03*
G54D33*
G01X779526Y-2930906D03*
G01X779526Y-2880893D03*
G01X779526Y-2830906D03*
G01X779526Y-2780894D03*
G01X779526Y-2730906D03*
G01X779526Y-2680894D03*
G01X779526Y-2630907D03*
G01X779526Y-2580894D03*
G54D34*
G01X779526Y-2995905D03*
G01X779526Y-3075889D03*
G01X779526Y-2515895D03*
G01X779526Y-2435911D03*
G54D35*
G01X287274Y-3187903D03*
G01X287274Y-2323897D03*
G54D36*
G01X705282Y-3187903D03*
G01X705282Y-2323897D03*
G54D37*
G01X165100Y-850900D03*
G54D38*
G01X165100Y-1104900D03*
G01X165100Y-1358900D03*
G01X165100Y-1612900D03*
G01X165100Y-1866900D03*
G54D37*
G01X2641600Y-850900D03*
G54D38*
G01X2641600Y-1104900D03*
G01X2641600Y-1358900D03*
G01X2641600Y-1612900D03*
G01X2641600Y-1866900D03*
G54D39*
G01X2425700Y-3251200D03*
G54D40*
G01X2425700Y-2997200D03*
G01X2425700Y-2743200D03*
G01X2425700Y-2489200D03*
G54D17*
G01X2640736Y-609600D03*
G01X2490064Y-609600D03*
G54D13*
G01X565302Y-1892300D03*
G01X425298Y-1892300D03*
G54D41*
G01X839800Y-1873504D03*
G01X839800Y-2063496D03*
G01X1039800Y-1968500D03*
G54D17*
G01X570636Y-1574800D03*
G01X419964Y-1574800D03*
G54D15*
G01X419964Y-1727200D03*
G01X570636Y-1727200D03*
G54D17*
G01X570636Y-2057400D03*
G01X419964Y-2057400D03*
G04 Pad End*

G04 Via Start*
G54D42*
G01X1079500Y-2776679D03*
G01X660400Y-2781300D03*
G01X2019300Y-2590800D03*
G01X1841500Y-2590800D03*
G01X1854200Y-1460500D03*
G01X2095500Y-2755900D03*
G01X2349500Y-723900D03*
G01X1854200Y-736600D03*
G01X315321Y-573679D03*
G01X2349500Y-1104900D03*
G01X2349500Y-1003300D03*
G01X1447800Y-1104900D03*
G01X1155700Y-1828800D03*
G01X952500Y-1752600D03*
G01X1016000Y-1054100D03*
G01X1035050Y-2406650D03*
G01X1854200Y-1244600D03*
G01X1130300Y-2400300D03*
G01X1854200Y-1346200D03*
G01X965200Y-2095500D03*
G01X1244600Y-1701800D03*
G01X1346200Y-1701800D03*
G01X1543050Y-1498600D03*
G01X1638300Y-1498600D03*
G01X1117600Y-1239490D03*
G01X1447800Y-736600D03*
G01X1016000Y-952500D03*
G01X647700Y-889000D03*
G01X1016000Y-838200D03*
G01X711200Y-2159000D03*
G01X1092200Y-1320800D03*
G01X2362200Y-546100D03*
G04 Via End*

G04 Track Start*
G54D11*
G01X419964Y-584200D02*
G01X419964Y-736600D01*
G01X419964Y-889000D01*
G01X419964Y-1048766D01*
G01X425298Y-1054100D01*
G01X425298Y-1231900D01*
G01X425298Y-1263802D01*
G01X342900Y-1346200D01*
G01X342900Y-1663700D01*
G01X406400Y-1727200D01*
G01X419964Y-1727200D01*
G01X419964Y-1886966D01*
G01X425298Y-1892300D01*
G01X425298Y-2052066D01*
G01X419964Y-2057400D01*
G01X419964Y-1574800D02*
G01X419964Y-1576527D01*
G01X570636Y-1727200D01*
G01X425298Y-1409700D02*
G01X425298Y-1371905D01*
G01X565302Y-1231900D01*
G01X565302Y-1409700D02*
G01X565302Y-1404700D01*
G01X705113Y-1264890D01*
G01X784917Y-1264890D01*
G01X852818Y-1264890D01*
G01X711200Y-1191172D02*
G01X784917Y-1264890D01*
G01X784917Y-1024885D02*
G01X852818Y-1024885D01*
G01X746800Y-986768D02*
G01X784917Y-1024885D01*
G01X570636Y-736600D02*
G01X647700Y-736600D01*
G01X711200Y-800100D01*
G01X711200Y-1191172D01*
G01X570636Y-584200D02*
G01X746800Y-760363D01*
G01X746800Y-986768D01*
G01X570636Y-2057400D02*
G01X833704Y-2057400D01*
G01X839800Y-2063496D01*
G01X839800Y-1873504D02*
G01X812300Y-1873504D01*
G01X751904Y-1813108D01*
G01X751904Y-1758944D01*
G01X570636Y-1577677D01*
G01X570636Y-1574800D01*
G01X266700Y-3491636D02*
G01X122738Y-3491636D01*
G01X101948Y-3470846D01*
G01X955624Y-3496478D02*
G01X955624Y-3349046D01*
G01X975624Y-3329046D01*
G01X1285606Y-3329046D02*
G01X1285606Y-3098255D01*
G01X1442725Y-2941136D01*
G01X1442725Y-2936136D01*
G01X1442725Y-2758336D01*
G01X1442725Y-2583517D01*
G01X1354005Y-2494797D01*
G01X1354005Y-2414397D01*
G01X1354005Y-2184400D02*
G01X1947997Y-2184400D01*
G01X996417Y-3130017D02*
G01X996417Y-3145773D01*
G01X876300Y-3009900D02*
G01X996417Y-3130017D01*
G01X779526Y-2930906D02*
G01X848984Y-2930906D01*
G01X876300Y-2958222D01*
G01X876300Y-3009900D01*
G01X979225Y-2966671D02*
G01X947371Y-2966671D01*
G01X876300Y-2895600D01*
G01X876300Y-2794000D02*
G01X858339Y-2776039D01*
G01X784380Y-2776039D01*
G01X779526Y-2780894D01*
G01X876300Y-2895600D02*
G01X876300Y-2794000D01*
G01X979225Y-2871675D02*
G01X1042875Y-2871675D01*
G01X1066800Y-3263900D02*
G01X1001654Y-3329046D01*
G01X975624Y-3329046D01*
G01X1042875Y-2871675D02*
G01X1066800Y-2895600D01*
G01X1066800Y-3263900D01*
G01X609600Y-2959100D02*
G01X533400Y-3035300D01*
G01X779526Y-2995905D02*
G01X722605Y-2995905D01*
G01X685800Y-2959100D01*
G01X609600Y-2959100D01*
G01X779526Y-2830906D02*
G01X684606Y-2830906D01*
G01X673100Y-2819400D01*
G01X673100Y-2743200D02*
G01X691061Y-2725239D01*
G01X773859Y-2725239D01*
G01X779526Y-2730906D01*
G01X779526Y-2680894D02*
G01X852094Y-2680894D01*
G01X876300Y-2705100D01*
G01X876300Y-2794000D01*
G01X996417Y-2632878D02*
G01X781497Y-2632878D01*
G01X779526Y-2630907D01*
G01X779526Y-2515895D02*
G01X722605Y-2515895D01*
G01X533400Y-2705100D01*
G01X533400Y-3035300D01*
G01X673100Y-2819400D02*
G01X673100Y-2743200D01*
G01X979225Y-2776679D02*
G01X1079500Y-2776679D01*
G01X1841500Y-2590800D02*
G01X1665097Y-2414397D01*
G01X1354005Y-2414397D01*
G01X2095500Y-2755900D02*
G01X2336800Y-2997200D01*
G01X2425700Y-2997200D01*
G01X1947997Y-2184400D02*
G01X1947997Y-2709997D01*
G01X2425700Y-3187700D01*
G01X2425700Y-3251200D01*
G01X1847812Y-1599890D02*
G01X1847812Y-1466888D01*
G01X1854200Y-1460500D01*
G01X2349500Y-1003300D02*
G01X2327890Y-1024910D01*
G01X2042808Y-1024910D01*
G01X2349495Y-1104895D02*
G01X2042808Y-1104895D01*
G01X2514600Y-1536700D02*
G01X2222500Y-1828800D01*
G01X2514600Y-1262281D02*
G01X2514600Y-1536700D01*
G01X570636Y-1727200D02*
G01X570636Y-1730077D01*
G01X636356Y-1795797D01*
G01X636356Y-1842856D01*
G01X762000Y-1968500D02*
G01X901700Y-1968500D01*
G01X636356Y-1842856D02*
G01X762000Y-1968500D01*
G01X901700Y-1968500D02*
G01X1047750Y-1822450D01*
G01X1047750Y-1599954D01*
G01X2222500Y-1828800D02*
G01X1155700Y-1828800D01*
G01X952500Y-1752600D02*
G01X967804Y-1737296D01*
G01X967804Y-1599890D01*
G01X266700Y-3340964D02*
G01X380136Y-3340964D01*
G01X419964Y-3301136D01*
G01X315321Y-573679D02*
G01X325842Y-584200D01*
G01X419964Y-584200D01*
G01X279400Y-736600D02*
G01X254000Y-711200D01*
G01X570636Y-532536D02*
G01X570636Y-584200D01*
G01X254000Y-711200D02*
G01X254000Y-508000D01*
G01X508000Y-469900D02*
G01X570636Y-532536D01*
G01X292100Y-469900D02*
G01X508000Y-469900D01*
G01X254000Y-508000D02*
G01X292100Y-469900D01*
G01X1854200Y-1244600D02*
G01X1954500Y-1344900D01*
G01X2042808Y-1344900D01*
G01X1209044Y-2966671D02*
G01X1287829Y-2966671D01*
G01X1854200Y-1346200D02*
G01X1932910Y-1424910D01*
G01X2042808Y-1424910D01*
G01X1130300Y-2425700D02*
G01X1130300Y-2400300D01*
G01X1209044Y-2776679D02*
G01X1272500Y-2713223D01*
G01X1272500Y-2618700D01*
G01X1287829Y-2966671D02*
G01X1308100Y-2946400D01*
G01X1308100Y-2603500D01*
G01X1130300Y-2425700D01*
G01X1272500Y-2618700D02*
G01X1112500Y-2458700D01*
G01X1076579Y-2458700D01*
G01X1035050Y-2417171D01*
G01X1035050Y-2406650D01*
G01X965200Y-2095500D02*
G01X1039800Y-2020900D01*
G01X1039800Y-1968500D01*
G01X1244600Y-1701800D02*
G01X1287818Y-1658582D01*
G01X1287818Y-1599890D01*
G01X1346200Y-1701800D02*
G01X1397000Y-1701800D01*
G01X1447813Y-1650987D02*
G01X1447813Y-1599890D01*
G01X1397000Y-1701800D02*
G01X1447813Y-1650987D01*
G01X1638300Y-1498600D02*
G01X1687817Y-1548117D01*
G01X1687817Y-1599890D01*
G01X1612900Y-1594797D02*
G01X1607807Y-1599890D01*
G01X1612900Y-1568450D02*
G01X1612900Y-1594797D01*
G01X1612900Y-1568450D02*
G01X1543050Y-1498600D01*
G01X647700Y-889000D02*
G01X570636Y-889000D01*
G01X1016000Y-1054100D02*
G01X933060Y-1054100D01*
G01X906875Y-1080286D01*
G01X877437Y-1080286D01*
G01X852823Y-1104900D01*
G01X852818Y-864890D02*
G01X989310Y-864890D01*
G01X1016000Y-838200D01*
G01X1447800Y-736600D02*
G01X1231900Y-736600D01*
G01X1016000Y-952500D01*
G01X1854200Y-736600D02*
G01X1767802Y-822998D01*
G01X1767802Y-1599890D01*
G01X852818Y-1504894D02*
G01X852818Y-1599890D01*
G01X852818Y-1264890D02*
G01X877427Y-1240280D01*
G01X906875Y-1240280D01*
G01X907665Y-1239490D01*
G01X1117600Y-1239490D01*
G01X1066800Y-2552588D02*
G01X1066800Y-2540000D01*
G01X1147089Y-2632878D02*
G01X1066800Y-2552588D01*
G01X779526Y-3075889D02*
G01X779526Y-3113659D01*
G01X705282Y-3187903D01*
G01X419964Y-3301136D02*
G01X419964Y-2109064D01*
G01X419964Y-2057400D02*
G01X419964Y-2109064D01*
G01X533400Y-2222500D01*
G01X1315905Y-2222500D01*
G01X1354005Y-2184400D01*
G01X565302Y-1892300D02*
G01X565302Y-1936598D01*
G01X495300Y-2006600D01*
G01X495300Y-2120900D01*
G01X513261Y-2138861D01*
G01X691061Y-2138861D01*
G01X711200Y-2159000D01*
G01X1285606Y-3329046D02*
G01X1652646Y-3329046D01*
G01X1765292Y-3441692D01*
G01X2349500Y-723900D02*
G01X2463800Y-609600D01*
G01X2490064Y-609600D01*
G01X2640736Y-609600D02*
G01X2640736Y-606723D01*
G01X2529313Y-495300D01*
G01X2641600Y-1104900D02*
G01X2641600Y-1135281D01*
G01X2514600Y-1262281D01*
G01X2207754Y-1786889D02*
G01X2479000Y-1515643D01*
G01X1678900Y-1786889D02*
G01X2207754Y-1786889D01*
G01X1527823Y-1635812D02*
G01X1678900Y-1786889D01*
G01X1527823Y-1599890D02*
G01X1527823Y-1635812D01*
G01X2479000Y-1013500D02*
G01X2641600Y-850900D01*
G01X2479000Y-1013500D02*
G01X2479000Y-1515643D01*
G01X165100Y-1866900D02*
G01X190500Y-1892300D01*
G01X279400Y-1803400D01*
G01X279400Y-736600D01*
G01X546100Y-3048000D02*
G01X546100Y-3276600D01*
G01X585846Y-3316346D01*
G01X962924Y-3316346D01*
G01X533400Y-3035300D02*
G01X546100Y-3048000D01*
G01X962924Y-3316346D02*
G01X975624Y-3329046D01*
G01X2641600Y-1612900D02*
G01X2616201Y-1612900D01*
G01X2006600Y-2578100D02*
G01X2019300Y-2590800D01*
G01X2616201Y-1612900D02*
G01X2092897Y-2136203D01*
G01X2092897Y-2375956D01*
G01X2006600Y-2462253D01*
G01X2006600Y-2578100D01*
G01X2529313Y-495300D02*
G01X2413000Y-495300D01*
G01X2362200Y-546100D01*
G04 Track End*

M02*

