;TYPE=PLATED
;Layer: PTH_Through_Via
;EasyEDA Pro v2.2.32.3, 2024-10-30 17:40:40
;Gerber Generator version 0.3
M48
METRIC,LZ,000.00000
;Hole size 1 = 0.30500 METRIC
T01C0.30500
%
G05
G90
T01
X-6.35Y15.875
X-4.318Y11.557
X-8.763Y3.937
X-9.398Y1.524
X-4.318Y1.143
X12.065Y9.017
X3.556Y7.493
X4.318Y8.89
X8.509Y7.874
X-10.795Y1.27
X6.223Y2.159
X-1.397Y3.048
X4.699Y6.096
X-0.254Y3.81
X4.318Y6.985
X-15.367Y14.097
X-14.62659Y14.097
X-13.88618Y14.097
X-15.34541Y13.335
X-14.605Y13.335
X-13.86459Y13.335
X-15.6102Y8.128
X-14.12938Y8.128
X-14.86979Y8.128
X-15.58862Y7.366
X-14.84821Y7.366
X-14.10779Y7.366
X13.7268Y-5.207
X15.20762Y-5.207
X14.46721Y-5.207
X13.74838Y-5.969
X14.4888Y-5.969
X15.22921Y-5.969
X7.8848Y12.954
X9.36562Y12.954
X8.6252Y12.954
X7.90638Y12.192
X8.6468Y12.192
X9.38721Y12.192
X-4.445Y7.8848
X-4.445Y8.6252
X-4.445Y9.36562
X-3.683Y9.38721
X-3.683Y8.6468
X-3.683Y7.90638
X10.57877Y7.39021
X11.31918Y7.39021
X12.05959Y7.39021
X12.08118Y6.62821
X11.34077Y6.62821
X10.60036Y6.62821
X10.6788Y2.667
X11.41921Y2.667
X12.15962Y2.667
X12.1812Y1.905
X11.4408Y1.905
X10.70038Y1.905
X-2.794Y2.667
X-5.08Y2.413
X-0.635Y5.842
X-0.635Y9.144
X-1.397Y9.12241
X-1.397Y8.382
X-0.635Y8.40359
M30