G04 Layer: DrillDrawingLayer*
G04 EasyEDA Pro v2.2.32.3, 2024-10-30 17:40:40*
G04 Gerber Generator version 0.3*
G04 Scale: 100 percent, Rotated: No, Reflected: No*
G04 Dimensions in millimeters*
G04 Leading zeros omitted, absolute positions, 3 integers and 5 decimals*
%FSLAX35Y35*%
%MOMM*%
%AMIconRect*4,1,4,0.2,-0.2,-0.2,-0.2,-0.2,0.2,0.2,0.2,0.2,-0.2,0*4,0,4,0.166667,-0.166667,0.166667,0.166667,-0.166667,0.166667,-0.166667,-0.166667,0.166667,-0.166667,0*%
%AMIconTriangle*4,1,3,-0.242567,0.171767,0.242567,0.171767,0,-0.2706,-0.242567,0.171767,0*4,0,3,-0.189767,0.1386,0,-0.1953,0.190167,0.1386,-0.189767,0.1386,0*%
%AMIconStar6*4,1,12,0.0862,0.1492,0.213233,0.123367,0.172367,0,0.213233,-0.1229,0.0862,-0.148733,0,-0.245767,-0.085767,-0.148733,-0.213267,-0.1229,-0.171933,0,-0.213267,0.1229,-0.085767,0.1492,0,0.245767,0.0862,0.1492,0*4,0,12,-0.000333,0.195333,-0.064333,0.122667,-0.169667,0.097667,-0.138333,-0.005333,-0.169667,-0.098,-0.064333,-0.122667,-0.000333,-0.195667,0.064333,-0.122667,0.169667,-0.098,0.138667,0.005,0.169667,0.098,0.064333,0.122333,-0.000333,0.195333,0*%
%AMIconStar4*4,1,8,-0.222667,0.222667,0,0.144667,0.222667,0.222667,0.144667,0,0.222667,-0.222667,0,-0.144667,-0.217433,-0.222667,-0.144667,0,-0.222667,0.222667,0*4,0,8,0.166667,-0.166667,0.108,0,0.166667,0.166667,0,0.108,-0.166667,0.166667,-0.108,0,-0.166667,-0.166667,0,-0.108,0.166667,-0.166667,0*%
%AMIconPlus*4,1,12,0.124,-0.2,-0.124,-0.2,-0.124,-0.124,-0.2,-0.124,-0.2,0.124,-0.124,0.124,-0.124,0.2,0.124,0.2,0.124,0.124,0.2,0.124,0.2,-0.124,0.124,-0.124,0.124,-0.2,0*4,0,12,0.090667,-0.166667,0.090667,-0.090667,0.166667,-0.090667,0.166667,0.090667,0.090667,0.090667,0.090667,0.166667,-0.090667,0.166667,-0.090667,0.090667,-0.166667,0.090667,-0.166667,-0.090667,-0.090667,-0.090667,-0.090667,-0.166667,0.090667,-0.166667,0*%
%ADD10IconRect*%
%ADD11C,0.44X0.373333*%
%ADD12IconTriangle*%
%ADD13IconStar6*%
%ADD14IconStar4*%
%ADD15IconPlus*%
G75*


G04 Drill Drawing Start*
G54D10*
G01X-1541526Y279197D03*
G01X-1541526Y1143203D03*
G54D11*
G01X-1123518Y279197D03*
G01X-1123518Y1143203D03*
G54D12*
G01X-1270000Y-876300D03*
G01X-1270000Y-368300D03*
G54D13*
G01X1689075Y584195D03*
G01X1689075Y711195D03*
G01X1689077Y838195D03*
G01X1689085Y457200D03*
G01X1689085Y965200D03*
G54D14*
G01X-585292Y-1141247D03*
G01X-569392Y-1446047D03*
G01X-77292Y-1141247D03*
G01X-61392Y-1446047D03*
G01X1192708Y-1141247D03*
G01X1208608Y-1446047D03*
G01X1446708Y-1141247D03*
G01X1462608Y-1446045D03*
G54D15*
G01X-1561020Y812800D03*
G01X-1558862Y736600D03*
G01X-1536700Y1409700D03*
G01X-1534541Y1333500D03*
G01X-1486979Y812800D03*
G01X-1484820Y736600D03*
G01X-1462659Y1409700D03*
G01X-1460500Y1333500D03*
G01X-1412938Y812800D03*
G01X-1410779Y736600D03*
G01X-1388618Y1409700D03*
G01X-1386459Y1333500D03*
G01X-1079500Y127000D03*
G01X-939800Y152400D03*
G01X-876300Y393700D03*
G01X-635000Y1587500D03*
G01X-508000Y241300D03*
G01X-444500Y788480D03*
G01X-444500Y862521D03*
G01X-444500Y936562D03*
G01X-431800Y114300D03*
G01X-431800Y1155700D03*
G01X-368300Y790638D03*
G01X-368300Y864680D03*
G01X-368300Y938721D03*
G01X-279400Y266700D03*
G01X-139700Y304800D03*
G01X-139700Y838200D03*
G01X-139700Y912241D03*
G01X-63500Y584200D03*
G01X-63500Y840359D03*
G01X-63500Y914400D03*
G01X-25400Y381000D03*
G01X355600Y749300D03*
G01X431800Y698500D03*
G01X431800Y889000D03*
G01X469900Y609600D03*
G01X622300Y215900D03*
G01X788480Y1295400D03*
G01X790638Y1219200D03*
G01X850900Y787400D03*
G01X862521Y1295400D03*
G01X864680Y1219200D03*
G01X936562Y1295400D03*
G01X938721Y1219200D03*
G01X1057877Y739021D03*
G01X1060036Y662821D03*
G01X1067880Y266700D03*
G01X1070038Y190500D03*
G01X1131918Y739021D03*
G01X1134077Y662821D03*
G01X1141921Y266700D03*
G01X1144080Y190500D03*
G01X1205959Y739021D03*
G01X1206500Y901700D03*
G01X1208118Y662821D03*
G01X1215962Y266700D03*
G01X1218121Y190500D03*
G01X1372680Y-520700D03*
G01X1374838Y-596900D03*
G01X1446721Y-520700D03*
G01X1448880Y-596900D03*
G01X1520762Y-520700D03*
G01X1522921Y-596900D03*
G04 Drill Drawing End*

M02*

