G04 Layer: TopSolderMaskLayer*
G04 EasyEDA Pro v2.2.32.3, 2024-10-30 17:40:40*
G04 Gerber Generator version 0.3*
G04 Scale: 100 percent, Rotated: No, Reflected: No*
G04 Dimensions in millimeters*
G04 Leading zeros omitted, absolute positions, 3 integers and 5 decimals*
%FSLAX35Y35*%
%MOMM*%
%AMRoundRect*1,1,$1,$2,$3*1,1,$1,$4,$5*1,1,$1,0-$2,0-$3*1,1,$1,0-$4,0-$5*20,1,$1,$2,$3,$4,$5,0*20,1,$1,$4,$5,0-$2,0-$3,0*20,1,$1,0-$2,0-$3,0-$4,0-$5,0*20,1,$1,0-$4,0-$5,$2,$3,0*4,1,4,$2,$3,$4,$5,0-$2,0-$3,0-$4,0-$5,$2,$3,0*%
%ADD10RoundRect,0.18154X0.76083X-1.01083X-0.76083X-1.01083*%
%ADD11RoundRect,0.09131X-0.40514X0.45514X0.40514X0.45514*%
%ADD12RoundRect,0.08756X-0.54302X-0.27302X-0.54302X0.27302*%
%ADD13RoundRect,0.09302X0.50429X-0.60429X-0.50429X-0.60429*%
%ADD14RoundRect,0.08449X-0.20856X-0.30856X-0.20856X0.30856*%
%ADD15RoundRect,0.08449X0.20856X0.30856X0.20856X-0.30856*%
%ADD16RoundRect,0.09131X-0.40514X-0.40514X-0.40514X0.40514*%
%ADD17C,2.1016*%
%ADD18RoundRect,0.09138X0.43712X0.40835X0.43712X-0.40835*%
%ADD19RoundRect,0.09138X-0.43712X-0.40835X-0.43712X0.40835*%
%ADD20RoundRect,0.09138X-0.40835X0.43712X0.40835X0.43712*%
%ADD21RoundRect,0.09138X0.40835X-0.43712X-0.40835X-0.43712*%
%ADD22RoundRect,0.08669X-0.28168X-0.43167X-0.28168X0.43167*%
%ADD23RoundRect,0.08669X0.43167X-0.28168X-0.43167X-0.28168*%
%ADD24RoundRect,0.09396X-0.72804X0.72804X0.72804X0.72804*%
%ADD25RoundRect,0.09093X-0.45455X0.45455X0.45455X0.45455*%
%ADD26RoundRect,0.08669X-0.43167X0.28168X0.43167X0.28168*%
%ADD27RoundRect,0.09368X-1.25396X0.55396X1.25396X0.55396*%
%ADD28RoundRect,0.09754X-1.17203X1.80203X1.17203X1.80203*%
%ADD29RoundRect,0.09258X-0.60471X-0.45471X-0.60471X0.45471*%
%ADD30O,1.302X1.002*%
%ADD31RoundRect,0.08109X0.66026X0.16026X0.66026X-0.16026*%
%ADD32RoundRect,0.08875X0.65642X0.30643X0.65642X-0.30643*%
%ADD33O,1.9016X1.3016*%
%ADD34O,2.3016X1.3016*%
%ADD35RoundRect,0.18181X0.77269X-0.77269X-0.77269X-0.77269*%
G75*


G04 Pad Start*
G54D10*
G01X1446708Y-1141247D03*
G01X1192708Y-1141247D03*
G01X-77292Y-1141247D03*
G01X-585292Y-1141247D03*
G54D11*
G01X-1089182Y1501959D03*
G01X-1229187Y1501959D03*
G01X-1085698Y1676400D03*
G01X-1225702Y1676400D03*
G01X-1085698Y1320800D03*
G01X-1225702Y1320800D03*
G01X1924202Y88900D03*
G01X1784198Y88900D03*
G01X1924202Y266700D03*
G01X1784198Y266700D03*
G54D12*
G01X-583590Y120904D03*
G01X-583590Y215900D03*
G01X-583590Y310896D03*
G01X-813410Y310896D03*
G01X-813410Y215900D03*
G01X-813410Y120904D03*
G54D13*
G01X-193091Y165100D03*
G01X116891Y165100D03*
G54D14*
G01X-330200Y90107D03*
G54D15*
G01X-330200Y240094D03*
G54D16*
G01X-1654746Y126662D03*
G01X-1494853Y127348D03*
G54D17*
G01X-1270000Y-368300D03*
G01X-1270000Y-876300D03*
G54D18*
G01X-838200Y483464D03*
G01X-838200Y634136D03*
G54D19*
G01X-838200Y989736D03*
G01X-838200Y839064D03*
G54D20*
G01X481736Y165100D03*
G01X331064Y165100D03*
G01X-1194664Y127000D03*
G01X-1345336Y127000D03*
G01X-775564Y1536700D03*
G01X-926236Y1536700D03*
G54D21*
G01X-926236Y1384300D03*
G01X-775564Y1384300D03*
G54D22*
G01X-319976Y1472900D03*
G01X-239966Y1472900D03*
G01X-159982Y1472900D03*
G01X-79972Y1472900D03*
G01X38Y1472900D03*
G01X80023Y1472900D03*
G01X160033Y1472900D03*
G01X240017Y1472900D03*
G01X320027Y1472900D03*
G01X400012Y1472900D03*
G01X480022Y1472900D03*
G54D23*
G01X595008Y977905D03*
G01X595008Y897895D03*
G01X595008Y817910D03*
G01X595008Y737900D03*
G01X595008Y657890D03*
G01X595008Y577906D03*
G54D22*
G01X-479996Y482910D03*
G01X-399986Y482910D03*
G01X-320002Y482910D03*
G01X-239992Y482910D03*
G54D24*
G01X13Y977905D03*
G54D25*
G01X-594982Y1472900D03*
G01X-594982Y482910D03*
G01X595008Y482910D03*
G01X595008Y1472900D03*
G54D26*
G01X-594982Y1377904D03*
G01X-594982Y1297894D03*
G01X-594982Y1217910D03*
G01X-594982Y1137900D03*
G01X-594982Y1057915D03*
G01X-594982Y977905D03*
G01X-594982Y897920D03*
G01X-594982Y817910D03*
G01X-594982Y737900D03*
G01X-594982Y657916D03*
G01X-594982Y577906D03*
G54D22*
G01X-159982Y482910D03*
G01X-79972Y482910D03*
G01X13Y482910D03*
G01X80023Y482910D03*
G01X160007Y482910D03*
G01X240017Y482910D03*
G01X320002Y482910D03*
G01X400012Y482910D03*
G01X480022Y482910D03*
G54D26*
G01X595008Y1057890D03*
G01X595008Y1137900D03*
G01X595008Y1217884D03*
G01X595008Y1297920D03*
G01X595008Y1377904D03*
G54D22*
G01X-399986Y1472900D03*
G01X-479996Y1472900D03*
G54D24*
G01X197498Y977905D03*
G01X197498Y1175390D03*
G01X13Y1175390D03*
G01X-197498Y977905D03*
G01X-197498Y780395D03*
G01X13Y780395D03*
G01X197498Y780395D03*
G36*
G01X-269999Y1097900D02*
G02X-275001Y1102901I0J5001D01*
G01X-275001Y1187900D01*
G02X-273536Y1191436I5001J0D01*
G01X-213536Y1251436D01*
G02X-210000Y1252901I3536J-3536D01*
G01X-125001Y1252901D01*
G02X-120000Y1247899I0J-5001D01*
G01X-120000Y1102901D01*
G02X-125001Y1097900I-5001J0D01*
G01X-269999Y1097900D01*
G37*
G54D27*
G01X1439995Y138303D03*
G01X1439995Y368300D03*
G01X1439995Y598297D03*
G54D28*
G01X846003Y368300D03*
G54D29*
G01X1689092Y457192D03*
G54D30*
G01X1689092Y584192D03*
G01X1689092Y711192D03*
G01X1689092Y838192D03*
G01X1689092Y965192D03*
G54D31*
G01X-1049274Y536194D03*
G01X-1049274Y586207D03*
G01X-1049274Y636194D03*
G01X-1049274Y686206D03*
G01X-1049274Y736194D03*
G01X-1049274Y786206D03*
G01X-1049274Y836193D03*
G01X-1049274Y886206D03*
G54D32*
G01X-1049274Y471195D03*
G01X-1049274Y391211D03*
G01X-1049274Y951205D03*
G01X-1049274Y1031189D03*
G54D33*
G01X-1541526Y279197D03*
G01X-1541526Y1143203D03*
G54D34*
G01X-1123518Y279197D03*
G01X-1123518Y1143203D03*
G54D35*
G01X-569392Y-1446047D03*
G01X-61392Y-1446047D03*
G01X1208608Y-1446047D03*
G01X1462608Y-1446047D03*
G04 Pad End*

M02*

