G04 Layer: BottomLayer*
G04 EasyEDA Pro v2.2.32.3, 2024-10-30 17:40:40*
G04 Gerber Generator version 0.3*
G04 Scale: 100 percent, Rotated: No, Reflected: No*
G04 Dimensions in millimeters*
G04 Leading zeros omitted, absolute positions, 3 integers and 5 decimals*
%FSLAX35Y35*%
%MOMM*%
%ADD10C,0.2032*%
%ADD11C,0.254*%
%ADD12R,1.5X2.0*%
%ADD13C,2.0*%
%ADD14R,1.2X0.9*%
%ADD15O,1.2X0.9*%
%ADD16O,1.8X1.2*%
%ADD17O,2.2X1.2*%
%ADD18R,1.524X1.524*%
%ADD19C,0.6103*%
%ADD20C,0.61*%
%ADD21C,2.54*%
G75*


G04 Copper Start*
G36*
G01X-1685686Y4064D02*
G01X-1685686Y1357263D01*
G02X-876341Y1978820I1685686J-1357263D01*
G01X-876341Y1651000D01*
G03X-840527Y1615186I35814J0D01*
G01X-695258Y1615186D01*
G03X-674888Y1534524I60258J-27686D01*
G03X-591738Y1537241I39888J52976D01*
G01X-589537Y1538986D01*
G01X-528095Y1538986D01*
G01X-480314Y1491205D01*
G01X-480314Y1201163D01*
G01X-482059Y1198962D01*
G03X-431800Y1089386I50259J-43262D01*
G03X-381541Y1198962I0J66314D01*
G01X-383286Y1201163D01*
G01X-383286Y1511300D01*
G03X-397495Y1545605I-48514J0D01*
G01X-467077Y1615186D01*
G01X1440443Y1615186D01*
G02X2162161Y93591I-1440443J-1615186D01*
G02X1574622Y-1484677I-2162161J-93591D01*
G01X1574622Y-1393444D01*
G03X1557522Y-1182158I-80787J99796D01*
G01X1557522Y-1041248D01*
G03X1521708Y-1005434I-35814J0D01*
G01X1371708Y-1005434D01*
G03X1335894Y-1041248I0J-35814D01*
G01X1335894Y-1167835D01*
G01X1303522Y-1167835D01*
G01X1303522Y-1041248D01*
G03X1267708Y-1005434I-35814J0D01*
G01X1117708Y-1005434D01*
G03X1081894Y-1041248I0J-35814D01*
G01X1081894Y-1177069D01*
G03X1096594Y-1415161I47314J-116578D01*
G01X1096594Y-1522247D01*
G03X1132408Y-1558061I35814J0D01*
G01X1284808Y-1558061D01*
G03X1320622Y-1522247I0J35814D01*
G01X1320622Y-1419460D01*
G01X1350594Y-1419460D01*
G01X1350594Y-1522247D01*
G03X1386408Y-1558061I35814J0D01*
G01X1502047Y-1558061D01*
G02X785114Y-2016754I-1502047J1558061D01*
G01X785114Y-1819530D01*
G03X838956Y-1791229I-10414J85180D01*
G03X860514Y-1734350I-64256J56879D01*
G01X860514Y-678650D01*
G03X785114Y-593470I-85814J0D01*
G01X785114Y-89588D01*
G03X849414Y4163I-20867J83238D01*
G03X764247Y79464I-85168J-10513D01*
G01X-375373Y79464D01*
G03X-366227Y124186I-56427J34836D01*
G01X579100Y124186D01*
G03X613405Y138396I0J48514D01*
G01X624458Y149448D01*
G01X627253Y149771D01*
G03X669319Y262663I-4953J66129D01*
G03X556199Y221214I-47019J-46763D01*
G01X-857415Y221214D01*
G01X-881305Y245105D01*
G03X-915610Y259314I-34305J-34305D01*
G01X-963990Y259314D01*
G03X-980447Y256438I0J-48514D01*
G03X-1073518Y375011I-93072J22759D01*
G01X-1120729Y375011D01*
G03X-1180769Y492643I-52802J47188D01*
G03X-1215633Y365259I7239J-70444D01*
G03X-1173518Y183383I42115J-86062D01*
G01X-1114407Y183383D01*
G03X-1145423Y134187I34907J-56383D01*
G03X-1125737Y79464I65923J-7187D01*
G01X-1574153Y79464D01*
G03X-1659333Y4064I0J-85814D01*
G01X-1685686Y4064D01*
G37*
%LPC*%
G36*
G01X-1511526Y375011D02*
G01X-1571526Y375011D01*
G03X-1571526Y183383I0J-95814D01*
G01X-1511526Y183383D01*
G03X-1511526Y375011I0J95814D01*
G37*
G36*
G01X-1511526Y1239017D02*
G01X-1571526Y1239017D01*
G03X-1571526Y1047389I0J-95814D01*
G01X-1511526Y1047389D01*
G03X-1511526Y1239017I0J95814D01*
G37*
G36*
G01X-1180769Y929757D02*
G03X-1120729Y1047389I7239J70444D01*
G01X-1073518Y1047389D01*
G03X-1073518Y1239017I0J95814D01*
G01X-1173518Y1239017D01*
G03X-1215633Y1057141I0J-95814D01*
G03X-1180769Y929757I42102J-56940D01*
G37*
G36*
G01X477263Y937514D02*
G01X475062Y939259D01*
G03X404114Y949258I-43262J-50259D01*
G01X404114Y970505D01*
G01X528095Y1094486D01*
G01X1440405Y1094486D01*
G01X1584677Y950214D01*
G01X1251963Y950214D01*
G01X1249758Y951962D01*
G03X1140186Y901700I-43258J-50262D01*
G03X1249758Y851438I66314J0D01*
G01X1251963Y853186D01*
G01X1594682Y853186D01*
G03X1624106Y774692I79411J-14994D01*
G03X1624106Y647692I49986J-63500D01*
G03X1611325Y533289I49986J-63500D01*
G03X1593279Y502192I17767J-31096D01*
G01X1593279Y412192D01*
G03X1629093Y376378I35814J0D01*
G01X1749092Y376378D01*
G03X1784906Y412192I0J35814D01*
G01X1784906Y502192D01*
G03X1766859Y533289I-35814J0D01*
G03X1754079Y647692I-62767J50904D01*
G03X1754079Y774692I-49986J63500D01*
G03X1754079Y901692I-49986J63500D01*
G03X1704092Y1046006I-49986J63500D01*
G01X1674092Y1046006D01*
G03X1635768Y1036341I0J-80814D01*
G01X1494805Y1177305D01*
G03X1460500Y1191514I-34305J-34305D01*
G01X508000Y1191514D01*
G03X473695Y1177305I0J-48514D01*
G01X321295Y1024905D01*
G03X307086Y990600I34305J-34305D01*
G01X307086Y794763D01*
G01X305341Y792562D01*
G03X348102Y683411I50259J-43262D01*
G01X94205Y429514D01*
G01X20063Y429514D01*
G01X17858Y431262D01*
G03X-65290Y433975I-43258J-50262D01*
G03X-85658Y353314I39890J-52975D01*
G01X-94237Y353314D01*
G01X-96438Y355059D01*
G03X-206014Y304800I-43262J-50259D01*
G03X-96438Y254541I66314J0D01*
G01X-94237Y256286D01*
G01X165100Y256286D01*
G03X199405Y270495I0J48514D01*
G01X472058Y543148D01*
G01X474848Y543471D01*
G03X535593Y600544I-4948J66129D01*
G03X492556Y671924I-65693J9056D01*
G03X483930Y739489I-60756J26576D01*
G03X420307Y763811I-52130J-40989D01*
G03X405859Y792562I-64707J-14511D01*
G01X404114Y794763D01*
G01X404114Y828742D01*
G03X475062Y838741I27686J60258D01*
G01X477263Y840486D01*
G01X729205Y840486D01*
G01X784448Y785242D01*
G01X784771Y782447D01*
G03X897791Y740509I66129J4953D01*
G03X855853Y853529I-46891J46891D01*
G01X853058Y853852D01*
G01X783605Y923305D01*
G03X749300Y937514I-34305J-34305D01*
G01X477263Y937514D01*
G37*
G36*
G01X1506614Y1384300D02*
G03X1134986Y1384300I-185814J0D01*
G03X1506614Y1384300I185814J0D01*
G37*
%LPD*%
G54D10*
G01X-1685686Y4064D02*
G01X-1685686Y1357263D01*
G02X-876341Y1978820I1685686J-1357263D01*
G01X-876341Y1651000D01*
G03X-840527Y1615186I35814J0D01*
G01X-695258Y1615186D01*
G03X-674888Y1534524I60258J-27686D01*
G03X-591738Y1537241I39888J52976D01*
G01X-589537Y1538986D01*
G01X-528095Y1538986D01*
G01X-480314Y1491205D01*
G01X-480314Y1201163D01*
G01X-482059Y1198962D01*
G03X-431800Y1089386I50259J-43262D01*
G03X-381541Y1198962I0J66314D01*
G01X-383286Y1201163D01*
G01X-383286Y1511300D01*
G03X-397495Y1545605I-48514J0D01*
G01X-467077Y1615186D01*
G01X1440443Y1615186D01*
G02X2162161Y93591I-1440443J-1615186D01*
G02X1574622Y-1484677I-2162161J-93591D01*
G01X1574622Y-1393444D01*
G03X1557522Y-1182158I-80787J99796D01*
G01X1557522Y-1041248D01*
G03X1521708Y-1005434I-35814J0D01*
G01X1371708Y-1005434D01*
G03X1335894Y-1041248I0J-35814D01*
G01X1335894Y-1167835D01*
G01X1303522Y-1167835D01*
G01X1303522Y-1041248D01*
G03X1267708Y-1005434I-35814J0D01*
G01X1117708Y-1005434D01*
G03X1081894Y-1041248I0J-35814D01*
G01X1081894Y-1177069D01*
G03X1096594Y-1415161I47314J-116578D01*
G01X1096594Y-1522247D01*
G03X1132408Y-1558061I35814J0D01*
G01X1284808Y-1558061D01*
G03X1320622Y-1522247I0J35814D01*
G01X1320622Y-1419460D01*
G01X1350594Y-1419460D01*
G01X1350594Y-1522247D01*
G03X1386408Y-1558061I35814J0D01*
G01X1502047Y-1558061D01*
G02X785114Y-2016754I-1502047J1558061D01*
G01X785114Y-1819530D01*
G03X838956Y-1791229I-10414J85180D01*
G03X860514Y-1734350I-64256J56879D01*
G01X860514Y-678650D01*
G03X785114Y-593470I-85814J0D01*
G01X785114Y-89588D01*
G03X849414Y4163I-20867J83238D01*
G03X764247Y79464I-85168J-10513D01*
G01X-375373Y79464D01*
G03X-366227Y124186I-56427J34836D01*
G01X579100Y124186D01*
G03X613405Y138396I0J48514D01*
G01X624458Y149448D01*
G01X627253Y149771D01*
G03X669319Y262663I-4953J66129D01*
G03X556199Y221214I-47019J-46763D01*
G01X-857415Y221214D01*
G01X-881305Y245105D01*
G03X-915610Y259314I-34305J-34305D01*
G01X-963990Y259314D01*
G03X-980447Y256438I0J-48514D01*
G03X-1073518Y375011I-93072J22759D01*
G01X-1120729Y375011D01*
G03X-1180769Y492643I-52802J47188D01*
G03X-1215633Y365259I7239J-70444D01*
G03X-1173518Y183383I42115J-86062D01*
G01X-1114407Y183383D01*
G03X-1145423Y134187I34907J-56383D01*
G03X-1125737Y79464I65923J-7187D01*
G01X-1574153Y79464D01*
G03X-1659333Y4064I0J-85814D01*
G01X-1685686Y4064D01*
G01X-1511526Y375011D02*
G01X-1571526Y375011D01*
G03X-1571526Y183383I0J-95814D01*
G01X-1511526Y183383D01*
G03X-1511526Y375011I0J95814D01*
G01X-1511526Y1239017D02*
G01X-1571526Y1239017D01*
G03X-1571526Y1047389I0J-95814D01*
G01X-1511526Y1047389D01*
G03X-1511526Y1239017I0J95814D01*
G01X-1180769Y929757D02*
G03X-1120729Y1047389I7239J70444D01*
G01X-1073518Y1047389D01*
G03X-1073518Y1239017I0J95814D01*
G01X-1173518Y1239017D01*
G03X-1215633Y1057141I0J-95814D01*
G03X-1180769Y929757I42102J-56940D01*
G01X477263Y937514D02*
G01X475062Y939259D01*
G03X404114Y949258I-43262J-50259D01*
G01X404114Y970505D01*
G01X528095Y1094486D01*
G01X1440405Y1094486D01*
G01X1584677Y950214D01*
G01X1251963Y950214D01*
G01X1249758Y951962D01*
G03X1140186Y901700I-43258J-50262D01*
G03X1249758Y851438I66314J0D01*
G01X1251963Y853186D01*
G01X1594682Y853186D01*
G03X1624106Y774692I79411J-14994D01*
G03X1624106Y647692I49986J-63500D01*
G03X1611325Y533289I49986J-63500D01*
G03X1593279Y502192I17767J-31096D01*
G01X1593279Y412192D01*
G03X1629093Y376378I35814J0D01*
G01X1749092Y376378D01*
G03X1784906Y412192I0J35814D01*
G01X1784906Y502192D01*
G03X1766859Y533289I-35814J0D01*
G03X1754079Y647692I-62767J50904D01*
G03X1754079Y774692I-49986J63500D01*
G03X1754079Y901692I-49986J63500D01*
G03X1704092Y1046006I-49986J63500D01*
G01X1674092Y1046006D01*
G03X1635768Y1036341I0J-80814D01*
G01X1494805Y1177305D01*
G03X1460500Y1191514I-34305J-34305D01*
G01X508000Y1191514D01*
G03X473695Y1177305I0J-48514D01*
G01X321295Y1024905D01*
G03X307086Y990600I34305J-34305D01*
G01X307086Y794763D01*
G01X305341Y792562D01*
G03X348102Y683411I50259J-43262D01*
G01X94205Y429514D01*
G01X20063Y429514D01*
G01X17858Y431262D01*
G03X-65290Y433975I-43258J-50262D01*
G03X-85658Y353314I39890J-52975D01*
G01X-94237Y353314D01*
G01X-96438Y355059D01*
G03X-206014Y304800I-43262J-50259D01*
G03X-96438Y254541I66314J0D01*
G01X-94237Y256286D01*
G01X165100Y256286D01*
G03X199405Y270495I0J48514D01*
G01X472058Y543148D01*
G01X474848Y543471D01*
G03X535593Y600544I-4948J66129D01*
G03X492556Y671924I-65693J9056D01*
G03X483930Y739489I-60756J26576D01*
G03X420307Y763811I-52130J-40989D01*
G03X405859Y792562I-64707J-14511D01*
G01X404114Y794763D01*
G01X404114Y828742D01*
G03X475062Y838741I27686J60258D01*
G01X477263Y840486D01*
G01X729205Y840486D01*
G01X784448Y785242D01*
G01X784771Y782447D01*
G03X897791Y740509I66129J4953D01*
G03X855853Y853529I-46891J46891D01*
G01X853058Y853852D01*
G01X783605Y923305D01*
G03X749300Y937514I-34305J-34305D01*
G01X477263Y937514D01*
G01X1506614Y1384300D02*
G03X1134986Y1384300I-185814J0D01*
G03X1506614Y1384300I185814J0D01*
G54D11*
G01X-1541526Y1202949D02*
G01X-1541526Y1228857D01*
G01X-1541526Y1083457D02*
G01X-1541526Y1057549D01*
G01X-1451780Y1143203D02*
G01X-1425872Y1143203D01*
G01X-1631272Y1143203D02*
G01X-1657180Y1143203D01*
G01X-1541526Y338943D02*
G01X-1541526Y364851D01*
G01X-1541526Y219451D02*
G01X-1541526Y193543D01*
G01X-1451780Y279197D02*
G01X-1425872Y279197D01*
G01X-1631272Y279197D02*
G01X-1657180Y279197D01*
G01X-1123518Y219451D02*
G01X-1123518Y193543D01*
G01X-1013772Y279197D02*
G01X-987864Y279197D01*
G01X-1233264Y279197D02*
G01X-1259172Y279197D01*
G01X-1123518Y1202949D02*
G01X-1123518Y1228857D01*
G01X-1013772Y1143203D02*
G01X-987864Y1143203D01*
G01X-1233264Y1143203D02*
G01X-1259172Y1143203D01*
G01X1521454Y-1141247D02*
G01X1547362Y-1141247D01*
G01X1371962Y-1141247D02*
G01X1346054Y-1141247D01*
G01X1446708Y-1041502D02*
G01X1446708Y-1015594D01*
G01X1538554Y-1446047D02*
G01X1564462Y-1446047D01*
G01X1386662Y-1446047D02*
G01X1360754Y-1446047D01*
G01X1462608Y-1521993D02*
G01X1462608Y-1547901D01*
G01X1629347Y584192D02*
G01X1603439Y584192D01*
G01X1748838Y584192D02*
G01X1774746Y584192D01*
G04 Copper End*

G04 TearDrop Start*
G36*
G01X1618466Y890858D02*
G01X1641132Y904113D01*
G01X1648615Y896431D01*
G01X1652257Y892897D01*
G01X1655987Y889730D01*
G01X1659921Y887054D01*
G01X1664172Y884990D01*
G01X1668858Y883662D01*
G01X1674092Y883192D01*
G01X1630384Y848895D01*
G01X1631098Y853848D01*
G01X1631040Y859364D01*
G01X1630281Y865203D01*
G01X1628892Y871126D01*
G01X1626944Y876892D01*
G01X1624510Y882263D01*
G01X1621660Y886998D01*
G01X1618466Y890858D01*
G37*
G36*
G01X-593317Y1600200D02*
G01X-593317Y1574800D01*
G01X-596164Y1574575D01*
G01X-599038Y1573938D01*
G01X-604710Y1571665D01*
G01X-610023Y1568451D01*
G01X-614667Y1564766D01*
G01X-614667Y1610234D01*
G01X-610023Y1606549D01*
G01X-604710Y1603335D01*
G01X-599038Y1601062D01*
G01X-596164Y1600425D01*
G01X-593317Y1600200D01*
G37*
G36*
G01X-444500Y1197383D02*
G01X-419100Y1197383D01*
G01X-418875Y1194536D01*
G01X-418238Y1191662D01*
G01X-415965Y1185990D01*
G01X-412751Y1180677D01*
G01X-409066Y1176033D01*
G01X-454534Y1176033D01*
G01X-450849Y1180677D01*
G01X-447635Y1185990D01*
G01X-445362Y1191662D01*
G01X-444725Y1194536D01*
G01X-444500Y1197383D01*
G37*
G36*
G01X-448220Y79920D02*
G01X-466180Y97880D01*
G01X-464501Y99878D01*
G01X-463381Y101899D01*
G01X-462710Y103970D01*
G01X-462378Y106117D01*
G01X-462253Y115997D01*
G01X-430103Y83847D01*
G01X-439983Y83722D01*
G01X-442130Y83390D01*
G01X-444201Y82719D01*
G01X-446222Y81599D01*
G01X-448220Y79920D01*
G37*
G36*
G01X1248183Y914400D02*
G01X1248183Y889000D01*
G01X1245336Y888775D01*
G01X1242462Y888138D01*
G01X1236790Y885865D01*
G01X1231477Y882651D01*
G01X1226833Y878966D01*
G01X1226833Y924434D01*
G01X1231477Y920749D01*
G01X1236790Y917535D01*
G01X1242462Y915262D01*
G01X1245336Y914625D01*
G01X1248183Y914400D01*
G37*
G36*
G01X342900Y790983D02*
G01X368300Y790983D01*
G01X368525Y788136D01*
G01X369162Y785262D01*
G01X371435Y779590D01*
G01X374649Y774277D01*
G01X378334Y769633D01*
G01X332866Y769633D01*
G01X336551Y774277D01*
G01X339765Y779590D01*
G01X342038Y785262D01*
G01X342675Y788136D01*
G01X342900Y790983D01*
G37*
G36*
G01X473483Y901700D02*
G01X473483Y876300D01*
G01X470636Y876075D01*
G01X467762Y875438D01*
G01X462090Y873165D01*
G01X456777Y869951D01*
G01X452133Y866266D01*
G01X452133Y911734D01*
G01X456777Y908049D01*
G01X462090Y904835D01*
G01X467762Y902562D01*
G01X470636Y901925D01*
G01X473483Y901700D01*
G37*
G36*
G01X812445Y807894D02*
G01X830406Y825855D01*
G01X832579Y824000D01*
G01X835061Y822419D01*
G01X840679Y820015D01*
G01X846708Y818532D01*
G01X852597Y817853D01*
G01X820447Y785703D01*
G01X819768Y791592D01*
G01X818285Y797621D01*
G01X815881Y803239D01*
G01X814300Y805721D01*
G01X812445Y807894D01*
G37*
G36*
G01X-1041400Y139700D02*
G01X-1041400Y114300D01*
G01X-1044094Y114075D01*
G01X-1046562Y113438D01*
G01X-1051002Y111165D01*
G01X-1055082Y107951D01*
G01X-1059167Y104266D01*
G01X-1059167Y149734D01*
G01X-1055082Y146049D01*
G01X-1051002Y142835D01*
G01X-1046562Y140562D01*
G01X-1044094Y139925D01*
G01X-1041400Y139700D01*
G37*
G36*
G01X601806Y177445D02*
G01X583845Y195406D01*
G01X585700Y197579D01*
G01X587281Y200061D01*
G01X589685Y205679D01*
G01X591168Y211708D01*
G01X591847Y217597D01*
G01X623997Y185447D01*
G01X618108Y184768D01*
G01X612079Y183285D01*
G01X606461Y180881D01*
G01X603979Y179300D01*
G01X601806Y177445D01*
G37*
G36*
G01X-98017Y317500D02*
G01X-98017Y292100D01*
G01X-100864Y291875D01*
G01X-103738Y291238D01*
G01X-109410Y288965D01*
G01X-114723Y285751D01*
G01X-119367Y282066D01*
G01X-119367Y327534D01*
G01X-114723Y323849D01*
G01X-109410Y320635D01*
G01X-103738Y318362D01*
G01X-100864Y317725D01*
G01X-98017Y317500D01*
G37*
G36*
G01X449406Y571145D02*
G01X431445Y589106D01*
G01X433300Y591279D01*
G01X434881Y593761D01*
G01X437285Y599379D01*
G01X438768Y605408D01*
G01X439447Y611297D01*
G01X471597Y579147D01*
G01X465708Y578468D01*
G01X459679Y576985D01*
G01X454061Y574581D01*
G01X451579Y573000D01*
G01X449406Y571145D01*
G37*
G36*
G01X16283Y393700D02*
G01X16283Y368300D01*
G01X13436Y368075D01*
G01X10562Y367438D01*
G01X4890Y365165D01*
G01X-423Y361951D01*
G01X-5067Y358266D01*
G01X-5067Y403734D01*
G01X-423Y400049D01*
G01X4890Y396835D01*
G01X10562Y394562D01*
G01X13436Y393925D01*
G01X16283Y393700D01*
G37*
G36*
G01X411306Y660045D02*
G01X393345Y678006D01*
G01X395200Y680179D01*
G01X396781Y682661D01*
G01X399185Y688279D01*
G01X400668Y694308D01*
G01X401347Y700197D01*
G01X433497Y668047D01*
G01X427608Y667368D01*
G01X421579Y665885D01*
G01X415961Y663481D01*
G01X413479Y661900D01*
G01X411306Y660045D01*
G37*
G04 TearDrop End*

G04 Pad Start*
G54D12*
G01X1446708Y-1141247D03*
G01X1192708Y-1141247D03*
G01X-77292Y-1141247D03*
G01X-585292Y-1141247D03*
G54D13*
G01X-1270000Y-368300D03*
G01X-1270000Y-876300D03*
G54D14*
G01X1689092Y457192D03*
G54D15*
G01X1689092Y584192D03*
G01X1689092Y711192D03*
G01X1689092Y838192D03*
G01X1689092Y965192D03*
G54D16*
G01X-1541526Y279197D03*
G01X-1541526Y1143203D03*
G54D17*
G01X-1123518Y279197D03*
G01X-1123518Y1143203D03*
G54D18*
G01X-569392Y-1446047D03*
G01X-61392Y-1446047D03*
G01X1208608Y-1446047D03*
G01X1462608Y-1446047D03*
G04 Pad End*

G04 Via Start*
G54D20*
G01X-635000Y1587500D03*
G01X-431800Y1155700D03*
G01X-876300Y393700D03*
G01X-939800Y152400D03*
G01X-431800Y114300D03*
G01X1206500Y901700D03*
G01X355600Y749300D03*
G01X431800Y889000D03*
G01X850900Y787400D03*
G01X-1079500Y127000D03*
G01X622300Y215900D03*
G01X-139700Y304800D03*
G01X469900Y609600D03*
G01X-25400Y381000D03*
G01X431800Y698500D03*
G01X-1536700Y1409700D03*
G01X-1462659Y1409700D03*
G01X-1388618Y1409700D03*
G01X-1534541Y1333500D03*
G01X-1460500Y1333500D03*
G01X-1386459Y1333500D03*
G01X-1561020Y812800D03*
G01X-1412938Y812800D03*
G01X-1486979Y812800D03*
G01X-1558862Y736600D03*
G01X-1484820Y736600D03*
G01X-1410779Y736600D03*
G01X1372680Y-520700D03*
G01X1520762Y-520700D03*
G01X1446721Y-520700D03*
G01X1374838Y-596900D03*
G01X1448880Y-596900D03*
G01X1522921Y-596900D03*
G01X788480Y1295400D03*
G01X936562Y1295400D03*
G01X862521Y1295400D03*
G01X790638Y1219200D03*
G01X864680Y1219200D03*
G01X938721Y1219200D03*
G01X-444500Y788480D03*
G01X-444500Y862521D03*
G01X-444500Y936562D03*
G01X-368300Y938721D03*
G01X-368300Y864680D03*
G01X-368300Y790638D03*
G01X1057877Y739021D03*
G01X1131918Y739021D03*
G01X1205959Y739021D03*
G01X1208118Y662821D03*
G01X1134077Y662821D03*
G01X1060036Y662821D03*
G01X1067880Y266700D03*
G01X1141921Y266700D03*
G01X1215962Y266700D03*
G01X1218121Y190500D03*
G01X1144080Y190500D03*
G01X1070038Y190500D03*
G01X-279400Y266700D03*
G01X-508000Y241300D03*
G01X-63500Y584200D03*
G01X-63500Y914400D03*
G01X-139700Y912241D03*
G01X-139700Y838200D03*
G01X-63500Y840359D03*
G04 Via End*

G04 Track Start*
G54D11*
G01X-431800Y1511300D02*
G01X-431800Y1155700D01*
G01X-635000Y1587500D02*
G01X-508000Y1587500D01*
G01X-431800Y1511300D01*
G01X-939800Y152400D02*
G01X-876300Y88900D01*
G01X-457200Y88900D01*
G01X-431800Y114300D01*
G01X1206500Y901700D02*
G01X1625585Y901700D01*
G01X1689092Y838192D01*
G01X355600Y749300D02*
G01X355600Y990600D01*
G01X508000Y1143000D02*
G01X1460500Y1143000D01*
G01X1638308Y965192D01*
G01X1689092Y965192D01*
G01X355600Y990600D02*
G01X508000Y1143000D01*
G01X431800Y889000D02*
G01X749300Y889000D01*
G01X850900Y787400D01*
G01X-139700Y304800D02*
G01X165100Y304800D01*
G01X469900Y609600D01*
G01X-25400Y381000D02*
G01X114300Y381000D01*
G01X431800Y698500D01*
G01X-1079500Y127000D02*
G01X-1041400Y127000D01*
G01X-998200Y170200D01*
G01X-998200Y176590D01*
G01X-963990Y210800D01*
G01X-915610Y210800D01*
G01X-877510Y172700D01*
G01X579100Y172700D01*
G01X622300Y215900D01*
G54D21*
G01X-77292Y-1141247D02*
G01X47955Y-1016000D01*
G01X311150Y-1149350D02*
G01X311150Y-1435100D01*
G01X171450Y-1574800D01*
G01X67361Y-1574800D02*
G01X-61392Y-1446047D01*
G01X47955Y-1016000D02*
G01X177800Y-1016000D01*
G01X311150Y-1149350D01*
G01X171450Y-1574800D02*
G01X67361Y-1574800D01*
G01X-850240Y-876300D02*
G01X-1270000Y-876300D01*
G01X-77292Y-1141247D02*
G01X-77292Y-837108D01*
G01X-546100Y-368300D02*
G01X-1270000Y-368300D01*
G01X-77292Y-837108D02*
G01X-546100Y-368300D01*
G01X-973303Y-1414297D02*
G01X-1009650Y-1377950D01*
G01X-1009650Y-1174750D01*
G01X-895350Y-1060450D01*
G01X-648037Y-1060450D02*
G01X-634340Y-1074147D01*
G01X-569392Y-1538547D02*
G01X-773119Y-1538547D01*
G01X-895350Y-1060450D02*
G01X-666090Y-1060450D01*
G01X-648037Y-1060450D01*
G01X-666090Y-1060450D02*
G01X-850240Y-876300D01*
G01X-773119Y-1538547D02*
G01X-897369Y-1414297D01*
G01X-973303Y-1414297D01*
G04 Track End*

M02*

