G04 Layer: TopLayer*
G04 EasyEDA Pro v2.2.32.3, 2024-10-30 17:40:40*
G04 Gerber Generator version 0.3*
G04 Scale: 100 percent, Rotated: No, Reflected: No*
G04 Dimensions in millimeters*
G04 Leading zeros omitted, absolute positions, 3 integers and 5 decimals*
%FSLAX35Y35*%
%MOMM*%
%AMPolygonMacro1*4,1,5,-0.12499,0.72499,0.72499,0.72499,0.72499,-0.72499,-0.72499,-0.72499,-0.72499,0.12499,-0.12499,0.72499,0*%
%ADD10C,0.2032*%
%ADD11C,0.254*%
%ADD12R,1.5X2.0*%
%ADD13R,0.8X0.9*%
%ADD14R,1.07201X0.532*%
%ADD15R,1.0X1.2*%
%ADD16R,0.4079X0.6*%
%ADD17R,0.4X0.6*%
%ADD18R,0.4X0.6*%
%ADD19R,0.8X0.8*%
%ADD20C,2.0*%
%ADD21R,0.86401X0.80648*%
%ADD22R,0.86401X0.80648*%
%ADD23R,0.80648X0.86401*%
%ADD24R,0.80648X0.86401*%
%ADD25R,0.55001X0.85001*%
%ADD26R,0.85001X0.55001*%
%ADD27R,1.45001X1.45001*%
%ADD28R,0.9X0.9*%
%ADD29R,0.85001X0.55001*%
%ADD30PolygonMacro1*%
%ADD31R,2.49999X1.1*%
%ADD32R,2.34X3.59999*%
%ADD33R,1.2X0.9*%
%ADD34O,1.2X0.9*%
%ADD35R,1.3X0.3*%
%ADD36R,1.3X0.6*%
%ADD37O,1.8X1.2*%
%ADD38O,2.2X1.2*%
%ADD39R,1.524X1.524*%
%ADD40C,0.61*%
%ADD41C,2.54*%
G75*


G04 Copper Start*
G36*
G01X-1685686Y202476D02*
G01X-1685686Y1357263D01*
G02X-1300505Y1729852I1685686J-1357263D01*
G03X-1301516Y1721400I34802J-8452D01*
G01X-1301516Y1631400D01*
G03X-1265702Y1595586I35814J0D01*
G01X-1185702Y1595586D01*
G03X-1155700Y1611843I0J35814D01*
G03X-1134724Y1596742I30002J19557D01*
G02X-1134212Y1593300I-11298J-3442D01*
G01X-1134212Y1585059D01*
G02X-1134521Y1582373I-11811J0D01*
G03X-1159185Y1566517I5339J-35414D01*
G03X-1189187Y1582773I-30002J-19557D01*
G01X-1269187Y1582773D01*
G03X-1305001Y1546959I0J-35814D01*
G01X-1305001Y1456959D01*
G03X-1269187Y1421145I35814J0D01*
G01X-1189187Y1421145D01*
G03X-1159185Y1437402I0J35814D01*
G03X-1129182Y1421145I30002J19557D01*
G01X-1049183Y1421145D01*
G03X-1013568Y1453181I0J35814D01*
G01X-1011083Y1453445D01*
G01X-991248Y1453445D01*
G03X-1002374Y1427500I24688J-25945D01*
G01X-1002374Y1388878D01*
G02X-1007494Y1371651I-31538J0D01*
G01X-1009652Y1369494D01*
G01X-1010084Y1369579D01*
G03X-1045698Y1401614I-35614J-3779D01*
G01X-1125698Y1401614D01*
G03X-1155700Y1385357I0J-35814D01*
G03X-1185702Y1401614I-30002J-19557D01*
G01X-1265702Y1401614D01*
G03X-1301516Y1365800I0J-35814D01*
G01X-1301516Y1275800D01*
G03X-1265702Y1239986I35814J0D01*
G01X-1185702Y1239986D01*
G03X-1155700Y1256243I0J35814D01*
G03X-1125698Y1239986I30002J19557D01*
G01X-1045698Y1239986D01*
G03X-1010084Y1272021I0J35814D01*
G01X-1007598Y1272286D01*
G01X-989736Y1272286D01*
G03X-955432Y1286495I0J48514D01*
G01X-941762Y1300165D01*
G02X-926236Y1305240I17226J-26418D01*
G02X-910711Y1300165I-1701J-31492D01*
G01X-716353Y1105808D01*
G01X-716353Y838200D01*
G03X-702144Y803895I48514J0D01*
G01X-684184Y785935D01*
G03X-671441Y776780I34305J34305D01*
G03X-673297Y765401I33958J-11379D01*
G01X-673297Y710400D01*
G03X-671048Y697908I35814J0D01*
G03X-673297Y685416I33565J-12492D01*
G01X-673297Y630415D01*
G03X-671043Y617911I35814J0D01*
G03X-673297Y605406I33560J-12504D01*
G01X-673297Y550405D01*
G03X-672504Y542910I35814J0D01*
G03X-675796Y527910I32521J-15000D01*
G01X-675796Y437910D01*
G03X-639982Y402096I35814J0D01*
G01X-549982Y402096D01*
G03X-527048Y410403I0J35814D01*
G03X-507497Y404595I19551J30007D01*
G01X-452496Y404595D01*
G03X-439991Y406849I0J35814D01*
G03X-427487Y404595I12504J33560D01*
G01X-385545Y404595D01*
G03X-394550Y397505I25299J-41395D01*
G01X-432645Y359410D01*
G01X-491890Y359410D01*
G02X-506927Y364896I0J23352D01*
G03X-529990Y373310I-23063J-27400D01*
G01X-637191Y373310D01*
G03X-673005Y337496I0J-35814D01*
G01X-673005Y284296D01*
G03X-666275Y263398I35814J0D01*
G03X-673005Y242500I29085J-20898D01*
G01X-673005Y189300D01*
G03X-666275Y168402I35814J0D01*
G03X-673005Y147504I29085J-20898D01*
G01X-673005Y94304D01*
G03X-669786Y79464I35814J0D01*
G01X-727214Y79464D01*
G03X-723995Y94304I-32595J14840D01*
G01X-723995Y119386D01*
G03X-713948Y127095I-24257J42014D01*
G01X-692096Y148948D01*
G03X-677886Y183252I-34305J34305D01*
G01X-677886Y695663D01*
G03X-692096Y729968I-48514J0D01*
G01X-748870Y786742D01*
G03X-759411Y794733I-34305J-34305D01*
G03X-759186Y798740I-35589J4007D01*
G01X-759186Y879387D01*
G03X-787466Y914400I-35814J0D01*
G03X-759186Y949413I-7534J35013D01*
G01X-759186Y1030060D01*
G03X-795000Y1065874I-35814J0D01*
G01X-881400Y1065874D01*
G03X-917214Y1030060I0J-35814D01*
G01X-917214Y949413D01*
G03X-888934Y914400I35814J0D01*
G03X-916767Y885028I7534J-35013D01*
G02X-919500Y884707I-2733J11490D01*
G01X-948460Y884707D01*
G01X-948460Y901206D01*
G03X-949884Y911205I-35814J0D01*
G03X-948460Y921205I-34390J9999D01*
G01X-948460Y981205D01*
G03X-949882Y991197I-35814J0D01*
G03X-948460Y1001189I-34392J9992D01*
G01X-948460Y1061189D01*
G03X-984274Y1097003I-35814J0D01*
G01X-989579Y1097003D01*
G03X-1073518Y1239017I-83940J46200D01*
G01X-1173518Y1239017D01*
G03X-1215633Y1057141I0J-95814D01*
G03X-1242625Y984683I42102J-56940D01*
G03X-1187240Y930726I69094J15519D01*
G03X-1190688Y912763I45066J-17963D01*
G01X-1190688Y878400D01*
G01X-1240805Y828283D01*
G03X-1255014Y793979I34305J-34305D01*
G01X-1255014Y596900D01*
G03X-1240805Y562595I48514J0D01*
G01X-1190688Y512479D01*
G01X-1190688Y509637D01*
G03X-1187240Y491674I48514J0D01*
G03X-1242625Y437717I13709J-69476D01*
G03X-1215633Y365259I69094J-15519D01*
G03X-1235359Y206012I42115J-86062D01*
G03X-1270000Y177734I372J-35812D01*
G03X-1305013Y206014I-35013J-7534D01*
G01X-1385660Y206014D01*
G03X-1420634Y177914I0J-35814D01*
G03X-1453271Y203127I-34220J-10566D01*
G03X-1511526Y375011I-58255J76070D01*
G01X-1571526Y375011D01*
G03X-1628921Y202476I0J-95814D01*
G01X-1685686Y202476D01*
G37*
%LPC*%
G36*
G01X-1511526Y1239017D02*
G01X-1571526Y1239017D01*
G03X-1571526Y1047389I0J-95814D01*
G01X-1511526Y1047389D01*
G03X-1511526Y1239017I0J95814D01*
G37*
%LPD*%
G36*
G01X-1638125Y50848D02*
G03X-1659333Y4064I63972J-57198D01*
G01X-1685686Y4064D01*
G01X-1685686Y50848D01*
G01X-1638125Y50848D01*
G37*
G36*
G01X-1578933Y86662D02*
G01X-1578933Y166662D01*
G03X-1583482Y184132I-35814J0D01*
G03X-1571526Y183383I11956J95065D01*
G01X-1566877Y183383D01*
G03X-1570667Y167348I32024J-16035D01*
G01X-1570667Y87348D01*
G03X-1569789Y79464I35814J0D01*
G01X-1574153Y79464D01*
G03X-1579701Y79285I0J-85814D01*
G03X-1578933Y86662I-35046J7378D01*
G37*
G36*
G01X-1185702Y1757214D02*
G01X-1263289Y1757214D01*
G02X-876341Y1978820I1263289J-1757214D01*
G01X-876341Y1651000D01*
G03X-840527Y1615186I35814J0D01*
G01X-822016Y1615186D01*
G03X-850900Y1587434I6129J-35286D01*
G03X-885913Y1615714I-35013J-7534D01*
G01X-966560Y1615714D01*
G03X-1002374Y1579900I0J-35814D01*
G01X-1002374Y1550696D01*
G01X-1004660Y1550473D01*
G01X-1011083Y1550473D01*
G01X-1013568Y1550738D01*
G03X-1036198Y1580336I-35614J-3779D01*
G02X-1037184Y1585059I10826J4723D01*
G01X-1037184Y1593300D01*
G02X-1036671Y1596742I11811J0D01*
G03X-1009884Y1631400I-9027J34658D01*
G01X-1009884Y1721400D01*
G03X-1045698Y1757214I-35814J0D01*
G01X-1125698Y1757214D01*
G03X-1155700Y1740957I0J-35814D01*
G03X-1185702Y1757214I-30002J-19557D01*
G37*
G36*
G01X-936142Y487680D02*
G03X-917214Y491525I0J48514D01*
G01X-917214Y461405D01*
G03X-922069Y467072I-39160J-28638D01*
G01X-938413Y483415D01*
G03X-943289Y487680I-34305J-34305D01*
G01X-936142Y487680D01*
G37*
G36*
G01X-810514Y382401D02*
G01X-819605Y373310D01*
G01X-867010Y373310D01*
G03X-902824Y337496I0J-35814D01*
G01X-902824Y297253D01*
G01X-916686Y297253D01*
G01X-916686Y321753D01*
G03X-907860Y349654I-39688J27901D01*
G01X-907860Y419004D01*
G03X-881400Y407326I26460J24136D01*
G01X-810514Y407326D01*
G01X-810514Y382401D01*
G37*
G36*
G01X-699872Y1487866D02*
G02X-697140Y1488186I2732J-11491D01*
G01X-685800Y1488186D01*
G03X-675796Y1489229I0J48514D01*
G01X-675796Y1427900D01*
G03X-672504Y1412900I35814J0D01*
G03X-673297Y1405405I35021J-7496D01*
G01X-673297Y1350404D01*
G03X-671043Y1337899I35814J0D01*
G03X-672185Y1334249I33560J-12504D01*
G01X-694305Y1356369D01*
G02X-699426Y1373595I26417J17227D01*
G01X-699426Y1427500D01*
G03X-721324Y1460500I-35814J0D01*
G03X-699872Y1487866I-13916J33000D01*
G37*
G36*
G01X-574742Y1615186D02*
G01X1440443Y1615186D01*
G02X2162161Y93591I-1440443J-1615186D01*
G02X1574622Y-1484677I-2162161J-93591D01*
G01X1574622Y-1393444D01*
G03X1557522Y-1182158I-80787J99796D01*
G01X1557522Y-1041248D01*
G03X1521708Y-1005434I-35814J0D01*
G01X1371708Y-1005434D01*
G03X1335894Y-1041248I0J-35814D01*
G01X1335894Y-1167835D01*
G01X1303522Y-1167835D01*
G01X1303522Y-1041248D01*
G03X1267708Y-1005434I-35814J0D01*
G01X1254145Y-1005434D01*
G01X1253922Y-1003148D01*
G01X1253922Y-179214D01*
G03X1239712Y-144909I-48514J0D01*
G01X1067117Y27686D01*
G01X1262546Y27686D01*
G01X1308537Y-18305D01*
G03X1342841Y-32514I34305J34305D01*
G01X1835754Y-32514D01*
G03X1870059Y-18305I0J48514D01*
G01X1881465Y-6898D01*
G02X1897406Y8086I255618J-255964D01*
G01X1964202Y8086D01*
G03X2000016Y43900I0J35814D01*
G01X2000016Y133900D01*
G03X1973229Y168558I-35814J0D01*
G02X1972716Y172000I11298J3442D01*
G01X1972716Y183600D01*
G02X1973229Y187042I11811J0D01*
G03X2000016Y221700I-9027J34658D01*
G01X2000016Y311700D01*
G03X1964202Y347514I-35814J0D01*
G01X1924104Y347514D01*
G02X1906877Y352634I0J31538D01*
G01X1794463Y465049D01*
G02X1784906Y479471I30758J30758D01*
G01X1784906Y502192D01*
G03X1766859Y533289I-35814J0D01*
G03X1754079Y647692I-62767J50904D01*
G03X1754079Y774692I-49986J63500D01*
G03X1754079Y901692I-49986J63500D01*
G03X1704092Y1046006I-49986J63500D01*
G01X1674092Y1046006D01*
G03X1624106Y901692I0J-80814D01*
G03X1599532Y869362I49986J-63500D01*
G01X1376700Y1092194D01*
G03X1342395Y1106404I-34305J-34305D01*
G01X675608Y1106404D01*
G01X673115Y1106555D01*
G03X673322Y1110399I-35607J3844D01*
G01X673322Y1165400D01*
G03X671073Y1177892I-35814J0D01*
G03X673322Y1190384I-33565J12492D01*
G01X673322Y1245385D01*
G03X671064Y1257902I-35814J0D01*
G03X673322Y1270419I-33555J12517D01*
G01X673322Y1325420D01*
G03X671073Y1337912I-35814J0D01*
G03X673322Y1350404I-33565J12492D01*
G01X673322Y1405405D01*
G03X672529Y1412900I-35814J0D01*
G03X675822Y1427900I-32521J15000D01*
G01X675822Y1517900D01*
G03X640008Y1553714I-35814J0D01*
G01X550008Y1553714D01*
G03X527073Y1545408I0J-35814D01*
G03X507522Y1551215I-19551J-30007D01*
G01X452521Y1551215D01*
G03X440017Y1548961I0J-35814D01*
G03X427512Y1551215I-12504J-33560D01*
G01X372511Y1551215D01*
G03X360020Y1548966I0J-35814D01*
G03X347528Y1551215I-12492J-33565D01*
G01X292527Y1551215D01*
G03X280022Y1548961I0J-35814D01*
G03X267518Y1551215I-12504J-33560D01*
G01X212517Y1551215D01*
G03X200025Y1548966I0J-35814D01*
G03X187533Y1551215I-12492J-33565D01*
G01X132532Y1551215D01*
G03X120028Y1548961I0J-35814D01*
G03X107523Y1551215I-12504J-33560D01*
G01X52522Y1551215D01*
G03X40030Y1548966I0J-35814D01*
G03X27539Y1551215I-12492J-33565D01*
G01X-27462Y1551215D01*
G03X-39967Y1548961I0J-35814D01*
G03X-52471Y1551215I-12504J-33560D01*
G01X-107472Y1551215D01*
G03X-119977Y1548961I0J-35814D01*
G03X-132481Y1551215I-12504J-33560D01*
G01X-187482Y1551215D01*
G03X-199974Y1548966I0J-35814D01*
G03X-212466Y1551215I-12492J-33565D01*
G01X-267467Y1551215D01*
G03X-279971Y1548961I0J-35814D01*
G03X-292476Y1551215I-12504J-33560D01*
G01X-347477Y1551215D01*
G03X-359981Y1548961I0J-35814D01*
G03X-372486Y1551215I-12504J-33560D01*
G01X-427487Y1551215D01*
G03X-439991Y1548961I0J-35814D01*
G03X-452496Y1551215I-12504J-33560D01*
G01X-507497Y1551215D01*
G03X-527048Y1545408I0J-35814D01*
G03X-549982Y1553714I-22934J-27507D01*
G01X-577938Y1553714D01*
G03X-574742Y1615186I-57062J33786D01*
G37*
%LPC*%
G36*
G01X1506614Y1384300D02*
G03X1134986Y1384300I-185814J0D01*
G03X1506614Y1384300I185814J0D01*
G37*
%LPD*%
G36*
G01X-429642Y1089248D02*
G01X-426852Y1089571D01*
G03X-366308Y1166107I-4948J66129D01*
G03X-339095Y1179796I-7092J47993D01*
G01X-233905Y1284986D01*
G01X259305Y1284986D01*
G01X260586Y1283705D01*
G01X124997Y1283705D01*
G03X98755Y1272263I0J-35814D01*
G03X72513Y1283705I-26242J-24372D01*
G01X-72488Y1283705D01*
G03X-98740Y1272251I0J-35814D01*
G03X-125001Y1283713I-26261J-24352D01*
G01X-210000Y1283713D01*
G03X-235324Y1273224I0J-35814D01*
G01X-295324Y1213224D01*
G03X-305813Y1187900I25324J-25324D01*
G01X-305813Y1102901D01*
G03X-294365Y1076653I35814J0D01*
G03X-305812Y1050406I24367J-26247D01*
G01X-305812Y905405D01*
G03X-294357Y879150I35814J0D01*
G03X-305812Y852895I24358J-26255D01*
G01X-305812Y707894D01*
G03X-300493Y689114I35814J0D01*
G01X-375081Y614526D01*
G01X-384459Y614526D01*
G03X-418764Y600316I0J-48514D01*
G01X-435107Y583973D01*
G03X-447989Y560940I34305J-34305D01*
G03X-452496Y561224I-4507J-35529D01*
G01X-507497Y561224D01*
G03X-516668Y560030I0J-35814D01*
G01X-516668Y605406D01*
G03X-518922Y617911I-35814J0D01*
G03X-516668Y630415I-33560J12504D01*
G01X-516668Y685416D01*
G03X-518917Y697908I-35814J0D01*
G03X-516668Y710400I-33565J12492D01*
G01X-516668Y765401D01*
G03X-518922Y777905I-35814J0D01*
G03X-516668Y790410I-33560J12504D01*
G01X-516668Y845411D01*
G03X-518922Y857915I-35814J0D01*
G03X-516668Y870420I-33560J12504D01*
G01X-516668Y925421D01*
G03X-518917Y937913I-35814J0D01*
G03X-516668Y950405I-33565J12492D01*
G01X-516668Y1005406D01*
G03X-517112Y1011032I-35814J0D01*
G03X-495280Y1023611I-12472J46883D01*
G01X-429642Y1089248D01*
G37*
G36*
G01X305812Y1102890D02*
G01X305812Y1238479D01*
G01X319786Y1224505D01*
G01X319786Y952500D01*
G03X333995Y918195I48514J0D01*
G01X365348Y886842D01*
G01X365671Y884052D01*
G03X478691Y842109I66129J4948D01*
G03X436748Y955129I-46891J46891D01*
G01X433958Y955452D01*
G01X416814Y972595D01*
G01X416814Y1244600D01*
G03X402605Y1278905I-48514J0D01*
G01X313705Y1367805D01*
G03X279400Y1382014I-34305J-34305D01*
G01X-254000Y1382014D01*
G03X-288305Y1367805I0J-48514D01*
G01X-393495Y1262614D01*
G01X-514382Y1262614D01*
G02X-517440Y1262994I0J12492D01*
G03X-516668Y1270394I-35041J7399D01*
G01X-516668Y1325395D01*
G03X-518922Y1337899I-35814J0D01*
G03X-516668Y1350404I-33560J12504D01*
G01X-516668Y1395780D01*
G03X-507497Y1394586I9171J34620D01*
G01X-452496Y1394586D01*
G03X-439991Y1396840I0J35814D01*
G03X-427487Y1394586I12504J33560D01*
G01X-372486Y1394586D01*
G03X-359981Y1396840I0J35814D01*
G03X-347477Y1394586I12504J33560D01*
G01X-292476Y1394586D01*
G03X-279971Y1396840I0J35814D01*
G03X-267467Y1394586I12504J33560D01*
G01X-212466Y1394586D01*
G03X-199974Y1396835I0J35814D01*
G03X-187482Y1394586I12492J33565D01*
G01X-132481Y1394586D01*
G03X-119977Y1396840I0J35814D01*
G03X-107472Y1394586I12504J33560D01*
G01X-52471Y1394586D01*
G03X-39967Y1396840I0J35814D01*
G03X-27462Y1394586I12504J33560D01*
G01X27539Y1394586D01*
G03X40030Y1396835I0J35814D01*
G03X52522Y1394586I12492J33565D01*
G01X107523Y1394586D01*
G03X120028Y1396840I0J35814D01*
G03X132532Y1394586I12504J33560D01*
G01X187533Y1394586D01*
G03X200025Y1396835I0J35814D01*
G03X212517Y1394586I12492J33565D01*
G01X267518Y1394586D01*
G03X280022Y1396840I0J35814D01*
G03X292527Y1394586I12504J33560D01*
G01X347528Y1394586D01*
G03X360020Y1396835I0J35814D01*
G03X372511Y1394586I12492J33565D01*
G01X427512Y1394586D01*
G03X440017Y1396840I0J35814D01*
G03X452521Y1394586I12504J33560D01*
G01X507522Y1394586D01*
G03X516693Y1395780I0J35814D01*
G01X516693Y1350404D01*
G03X518942Y1337912I35814J0D01*
G03X516693Y1325420I33565J-12492D01*
G01X516693Y1270419D01*
G03X518952Y1257902I35814J0D01*
G03X516693Y1245385I33555J-12517D01*
G01X516693Y1190384D01*
G03X518942Y1177892I35814J0D01*
G03X516693Y1165400I33565J-12492D01*
G01X516693Y1110399D01*
G03X518947Y1097895I35814J0D01*
G03X516693Y1085390I33560J-12504D01*
G01X516693Y1030389D01*
G03X518942Y1017897I35814J0D01*
G03X516693Y1005406I33565J-12492D01*
G01X516693Y950405D01*
G03X518947Y937900I35814J0D01*
G03X516693Y925396I33560J-12504D01*
G01X516693Y870395D01*
G03X518942Y857903I35814J0D01*
G03X516693Y845411I33565J-12492D01*
G01X516693Y790410D01*
G03X518947Y777905I35814J0D01*
G03X516693Y765401I33560J-12504D01*
G01X516693Y755305D01*
G03X506646Y747596I24257J-42014D01*
G01X506064Y747014D01*
G01X477263Y747014D01*
G01X475062Y748759D01*
G03X420307Y763811I-43262J-50259D01*
G03X375621Y812520I-64707J-14511D01*
G03X311042Y798414I-20021J-63220D01*
G01X309673Y797179D01*
G03X305812Y796385I7826J-47879D01*
G01X305812Y852895D01*
G03X294357Y879150I-35814J0D01*
G03X305812Y905405I-24358J26255D01*
G01X305812Y1050406D01*
G03X294370Y1076648I-35814J0D01*
G03X305812Y1102890I-24372J26242D01*
G37*
G36*
G01X-491890Y262382D02*
G01X-465977Y262382D01*
G01X-494176Y234183D01*
G01X-494176Y242500D01*
G03X-499408Y261139I-35814J0D01*
G02X-491890Y262382I7518J-22108D01*
G37*
G36*
G01X-310200Y155920D02*
G01X-329467Y155920D01*
G03X-354393Y162814I-24927J-41620D01*
G01X-386337Y162814D01*
G01X-388538Y164559D01*
G03X-413191Y177950I-43262J-50259D01*
G01X-385709Y205432D01*
G03X-350200Y174280I35509J4662D01*
G01X-310200Y174280D01*
G03X-278905Y192680I0J35814D01*
G01X-278905Y160001D01*
G02X-283368Y143827I-31538J0D01*
G03X-310200Y155920I-26832J-23721D01*
G37*
G36*
G01X-240501Y611887D02*
G01X261962Y611887D01*
G03X296267Y626097I0J48514D01*
G01X332203Y662033D01*
G03X344784Y683874I-34305J34305D01*
G03X367093Y683989I10816J65426D01*
G03X409144Y636176I64707J14511D01*
G03X424542Y561224I60756J-26576D01*
G01X372511Y561224D01*
G03X360007Y558971I0J-35814D01*
G03X347502Y561224I-12504J-33560D01*
G01X292501Y561224D01*
G03X280010Y558975I0J-35814D01*
G03X267518Y561224I-12492J-33565D01*
G01X212517Y561224D01*
G03X200012Y558971I0J-35814D01*
G03X187508Y561224I-12504J-33560D01*
G01X132507Y561224D01*
G03X120015Y558975I0J-35814D01*
G03X107523Y561224I-12492J-33565D01*
G01X52522Y561224D01*
G03X40018Y558971I0J-35814D01*
G03X27513Y561224I-12504J-33560D01*
G01X-27488Y561224D01*
G03X-39980Y558975I0J-35814D01*
G03X-52471Y561224I-12492J-33565D01*
G01X-107472Y561224D01*
G03X-119977Y558971I0J-35814D01*
G03X-132481Y561224I-12504J-33560D01*
G01X-187482Y561224D01*
G03X-199987Y558971I0J-35814D01*
G03X-212491Y561224I-12504J-33560D01*
G01X-267492Y561224D01*
G03X-279997Y558971I0J-35814D01*
G03X-291188Y561200I-12504J-33560D01*
G01X-240501Y611887D01*
G37*
G36*
G01X-200826Y279086D02*
G03X-189415Y260914I61126J25714D01*
G01X-243091Y260914D01*
G03X-274386Y242514I0J-35814D01*
G01X-274386Y270093D01*
G03X-275533Y279086I-35814J0D01*
G01X-200826Y279086D01*
G37*
G36*
G01X1110200Y929391D02*
G01X1140048Y899542D01*
G01X1140371Y896752D01*
G03X1253391Y854809I66129J4948D01*
G03X1211448Y967829I-46891J46891D01*
G01X1208658Y968152D01*
G01X1167433Y1009376D01*
G01X1322300Y1009376D01*
G01X1591949Y739727D01*
G01X1592358Y739232D01*
G01X1592751Y738580D01*
G01X1593586Y736738D01*
G01X1594414Y734286D01*
G01X1594999Y731789D01*
G01X1595250Y729857D01*
G01X1595257Y729229D01*
G01X1595148Y728475D01*
G03X1624106Y647692I78944J-17283D01*
G03X1600960Y618581I49986J-63500D01*
G01X1600808Y618951D01*
G01X1600808Y653297D01*
G03X1564994Y689111I-35814J0D01*
G01X1314995Y689111D01*
G03X1279181Y653297I0J-35814D01*
G01X1279181Y543297D01*
G03X1314995Y507483I35814J0D01*
G01X1564994Y507483D01*
G03X1569437Y507760I0J35814D01*
G02X1573506Y504170I-26690J-34347D01*
G01X1588158Y489517D01*
G02X1593279Y472291I-26418J-17226D01*
G01X1593279Y445269D01*
G03X1564994Y459114I-28284J-21969D01*
G01X1314995Y459114D01*
G03X1279181Y423300I0J-35814D01*
G01X1279181Y417037D01*
G01X1276895Y416814D01*
G01X1001103Y416814D01*
G01X998817Y417037D01*
G01X998817Y548300D01*
G03X963003Y584114I-35814J0D01*
G01X899637Y584114D01*
G01X899414Y586400D01*
G01X899414Y741937D01*
G01X901159Y744138D01*
G03X850900Y853714I-50259J43262D01*
G03X800641Y744138I0J-66314D01*
G01X802386Y741937D01*
G01X802386Y586400D01*
G01X802163Y584114D01*
G01X729003Y584114D01*
G03X693189Y548300I0J-35814D01*
G01X693189Y288961D01*
G02X685221Y276214I-40314J16336D01*
G01X668671Y263306D01*
G03X598247Y277698I-46371J-47406D01*
G03X556083Y219485I24053J-61798D01*
G03X522060Y244114I-34023J-11185D01*
G01X441413Y244114D01*
G03X406400Y215834I0J-35814D01*
G03X380063Y243048I-35013J-7534D01*
G02X379578Y246400I11325J3353D01*
G01X379578Y402309D01*
G01X379594Y404595D01*
G01X427512Y404595D01*
G03X440017Y406849I0J35814D01*
G03X452521Y404595I12504J33560D01*
G01X507522Y404595D01*
G03X527073Y410403I0J35814D01*
G03X550008Y402096I22934J27507D01*
G01X640008Y402096D01*
G03X675822Y437910I0J35814D01*
G01X675822Y527910D01*
G03X672529Y542910I-35814J0D01*
G03X673322Y550405I-35021J7496D01*
G01X673322Y605406D01*
G03X671073Y617898I-35814J0D01*
G03X673322Y630390I-33565J12492D01*
G01X673322Y685391D01*
G03X671068Y697895I-35814J0D01*
G03X673322Y710400I-33560J12504D01*
G01X673322Y765401D01*
G03X671068Y777905I-35814J0D01*
G03X673322Y790410I-33560J12504D01*
G01X673322Y845411D01*
G03X671073Y857903I-35814J0D01*
G03X673322Y870395I-33565J12492D01*
G01X673322Y925396D01*
G03X673115Y929240I-35814J0D01*
G01X675608Y929391D01*
G01X1110200Y929391D01*
G37*
G36*
G01X949994Y124714D02*
G01X669684Y124714D01*
G03X677107Y130795I-26881J40386D01*
G01X706639Y160327D01*
G03X729003Y152486I22364J27973D01*
G01X963003Y152486D01*
G03X998817Y188300I0J35814D01*
G01X998817Y319563D01*
G01X1001103Y319786D01*
G01X1276895Y319786D01*
G01X1279181Y319563D01*
G01X1279181Y313300D01*
G03X1314995Y277486I35814J0D01*
G01X1564994Y277486D01*
G03X1600808Y313300I0J35814D01*
G01X1600808Y390223D01*
G03X1629093Y376378I28284J21969D01*
G01X1741759Y376378D01*
G02X1756537Y365756I-25074J-50475D01*
G01X1774779Y347514D01*
G01X1744198Y347514D01*
G03X1708384Y311700I0J-35814D01*
G01X1708384Y221700D01*
G03X1744198Y185886I35814J0D01*
G01X1824198Y185886D01*
G03X1854200Y202143I0J35814D01*
G03X1875176Y187042I30002J19557D01*
G02X1875688Y183600I-11298J-3442D01*
G01X1875688Y172000D01*
G02X1875176Y168558I-11811J0D01*
G03X1854200Y153457I9027J-34658D01*
G03X1824198Y169714I-30002J-19557D01*
G01X1744198Y169714D01*
G03X1708384Y133900I0J-35814D01*
G01X1708384Y64514D01*
G01X1595484Y64514D01*
G03X1600808Y83303I-30490J18789D01*
G01X1600808Y193303D01*
G03X1564994Y229117I-35814J0D01*
G01X1314995Y229117D01*
G03X1279181Y193303I0J-35814D01*
G01X1279181Y124714D01*
G01X949994Y124714D01*
G37*
G36*
G01X1386408Y-1558061D02*
G01X1502047Y-1558061D01*
G02X785114Y-2016754I-1502047J1558061D01*
G01X785114Y-1819530D01*
G03X838956Y-1791229I-10414J85180D01*
G03X860514Y-1734350I-64256J56879D01*
G01X860514Y-678650D01*
G03X785114Y-593470I-85814J0D01*
G01X785114Y-89588D01*
G03X841191Y-44344I-20867J83238D01*
G03X843022Y27686I-76945J37994D01*
G01X911624Y27686D01*
G02X973202Y-15617I-93890J-198949D01*
G01X1156894Y-199309D01*
G01X1156894Y-1003148D01*
G01X1156670Y-1005434D01*
G01X1117708Y-1005434D01*
G03X1081894Y-1041248I0J-35814D01*
G01X1081894Y-1092510D01*
G01X1079608Y-1092733D01*
G01X1017753Y-1092733D01*
G03X983448Y-1106943I0J-48514D01*
G01X956295Y-1134095D01*
G03X942086Y-1168400I34305J-34305D01*
G01X942086Y-1409700D01*
G03X956295Y-1444005I48514J0D01*
G01X992643Y-1480352D01*
G03X1026947Y-1494561I34305J34305D01*
G01X1094308Y-1494561D01*
G01X1096594Y-1494785D01*
G01X1096594Y-1522247D01*
G03X1132408Y-1558061I35814J0D01*
G01X1284808Y-1558061D01*
G03X1320622Y-1522247I0J35814D01*
G01X1320622Y-1419460D01*
G01X1350594Y-1419460D01*
G01X1350594Y-1522247D01*
G03X1386408Y-1558061I35814J0D01*
G37*
G54D10*
G01X-1685686Y202476D02*
G01X-1685686Y1357263D01*
G02X-1300505Y1729852I1685686J-1357263D01*
G03X-1301516Y1721400I34802J-8452D01*
G01X-1301516Y1631400D01*
G03X-1265702Y1595586I35814J0D01*
G01X-1185702Y1595586D01*
G03X-1155700Y1611843I0J35814D01*
G03X-1134724Y1596742I30002J19557D01*
G02X-1134212Y1593300I-11298J-3442D01*
G01X-1134212Y1585059D01*
G02X-1134521Y1582373I-11811J0D01*
G03X-1159185Y1566517I5339J-35414D01*
G03X-1189187Y1582773I-30002J-19557D01*
G01X-1269187Y1582773D01*
G03X-1305001Y1546959I0J-35814D01*
G01X-1305001Y1456959D01*
G03X-1269187Y1421145I35814J0D01*
G01X-1189187Y1421145D01*
G03X-1159185Y1437402I0J35814D01*
G03X-1129182Y1421145I30002J19557D01*
G01X-1049183Y1421145D01*
G03X-1013568Y1453181I0J35814D01*
G01X-1011083Y1453445D01*
G01X-991248Y1453445D01*
G03X-1002374Y1427500I24688J-25945D01*
G01X-1002374Y1388878D01*
G02X-1007494Y1371651I-31538J0D01*
G01X-1009652Y1369494D01*
G01X-1010084Y1369579D01*
G03X-1045698Y1401614I-35614J-3779D01*
G01X-1125698Y1401614D01*
G03X-1155700Y1385357I0J-35814D01*
G03X-1185702Y1401614I-30002J-19557D01*
G01X-1265702Y1401614D01*
G03X-1301516Y1365800I0J-35814D01*
G01X-1301516Y1275800D01*
G03X-1265702Y1239986I35814J0D01*
G01X-1185702Y1239986D01*
G03X-1155700Y1256243I0J35814D01*
G03X-1125698Y1239986I30002J19557D01*
G01X-1045698Y1239986D01*
G03X-1010084Y1272021I0J35814D01*
G01X-1007598Y1272286D01*
G01X-989736Y1272286D01*
G03X-955432Y1286495I0J48514D01*
G01X-941762Y1300165D01*
G02X-926236Y1305240I17226J-26418D01*
G02X-910711Y1300165I-1701J-31492D01*
G01X-716353Y1105808D01*
G01X-716353Y838200D01*
G03X-702144Y803895I48514J0D01*
G01X-684184Y785935D01*
G03X-671441Y776780I34305J34305D01*
G03X-673297Y765401I33958J-11379D01*
G01X-673297Y710400D01*
G03X-671048Y697908I35814J0D01*
G03X-673297Y685416I33565J-12492D01*
G01X-673297Y630415D01*
G03X-671043Y617911I35814J0D01*
G03X-673297Y605406I33560J-12504D01*
G01X-673297Y550405D01*
G03X-672504Y542910I35814J0D01*
G03X-675796Y527910I32521J-15000D01*
G01X-675796Y437910D01*
G03X-639982Y402096I35814J0D01*
G01X-549982Y402096D01*
G03X-527048Y410403I0J35814D01*
G03X-507497Y404595I19551J30007D01*
G01X-452496Y404595D01*
G03X-439991Y406849I0J35814D01*
G03X-427487Y404595I12504J33560D01*
G01X-385545Y404595D01*
G03X-394550Y397505I25299J-41395D01*
G01X-432645Y359410D01*
G01X-491890Y359410D01*
G02X-506927Y364896I0J23352D01*
G03X-529990Y373310I-23063J-27400D01*
G01X-637191Y373310D01*
G03X-673005Y337496I0J-35814D01*
G01X-673005Y284296D01*
G03X-666275Y263398I35814J0D01*
G03X-673005Y242500I29085J-20898D01*
G01X-673005Y189300D01*
G03X-666275Y168402I35814J0D01*
G03X-673005Y147504I29085J-20898D01*
G01X-673005Y94304D01*
G03X-669786Y79464I35814J0D01*
G01X-727214Y79464D01*
G03X-723995Y94304I-32595J14840D01*
G01X-723995Y119386D01*
G03X-713948Y127095I-24257J42014D01*
G01X-692096Y148948D01*
G03X-677886Y183252I-34305J34305D01*
G01X-677886Y695663D01*
G03X-692096Y729968I-48514J0D01*
G01X-748870Y786742D01*
G03X-759411Y794733I-34305J-34305D01*
G03X-759186Y798740I-35589J4007D01*
G01X-759186Y879387D01*
G03X-787466Y914400I-35814J0D01*
G03X-759186Y949413I-7534J35013D01*
G01X-759186Y1030060D01*
G03X-795000Y1065874I-35814J0D01*
G01X-881400Y1065874D01*
G03X-917214Y1030060I0J-35814D01*
G01X-917214Y949413D01*
G03X-888934Y914400I35814J0D01*
G03X-916767Y885028I7534J-35013D01*
G02X-919500Y884707I-2733J11490D01*
G01X-948460Y884707D01*
G01X-948460Y901206D01*
G03X-949884Y911205I-35814J0D01*
G03X-948460Y921205I-34390J9999D01*
G01X-948460Y981205D01*
G03X-949882Y991197I-35814J0D01*
G03X-948460Y1001189I-34392J9992D01*
G01X-948460Y1061189D01*
G03X-984274Y1097003I-35814J0D01*
G01X-989579Y1097003D01*
G03X-1073518Y1239017I-83940J46200D01*
G01X-1173518Y1239017D01*
G03X-1215633Y1057141I0J-95814D01*
G03X-1242625Y984683I42102J-56940D01*
G03X-1187240Y930726I69094J15519D01*
G03X-1190688Y912763I45066J-17963D01*
G01X-1190688Y878400D01*
G01X-1240805Y828283D01*
G03X-1255014Y793979I34305J-34305D01*
G01X-1255014Y596900D01*
G03X-1240805Y562595I48514J0D01*
G01X-1190688Y512479D01*
G01X-1190688Y509637D01*
G03X-1187240Y491674I48514J0D01*
G03X-1242625Y437717I13709J-69476D01*
G03X-1215633Y365259I69094J-15519D01*
G03X-1235359Y206012I42115J-86062D01*
G03X-1270000Y177734I372J-35812D01*
G03X-1305013Y206014I-35013J-7534D01*
G01X-1385660Y206014D01*
G03X-1420634Y177914I0J-35814D01*
G03X-1453271Y203127I-34220J-10566D01*
G03X-1511526Y375011I-58255J76070D01*
G01X-1571526Y375011D01*
G03X-1628921Y202476I0J-95814D01*
G01X-1685686Y202476D01*
G01X-1511526Y1239017D02*
G01X-1571526Y1239017D01*
G03X-1571526Y1047389I0J-95814D01*
G01X-1511526Y1047389D01*
G03X-1511526Y1239017I0J95814D01*
G01X-1638125Y50848D02*
G03X-1659333Y4064I63972J-57198D01*
G01X-1685686Y4064D01*
G01X-1685686Y50848D01*
G01X-1638125Y50848D01*
G01X-1578933Y86662D02*
G01X-1578933Y166662D01*
G03X-1583482Y184132I-35814J0D01*
G03X-1571526Y183383I11956J95065D01*
G01X-1566877Y183383D01*
G03X-1570667Y167348I32024J-16035D01*
G01X-1570667Y87348D01*
G03X-1569789Y79464I35814J0D01*
G01X-1574153Y79464D01*
G03X-1579701Y79285I0J-85814D01*
G03X-1578933Y86662I-35046J7378D01*
G01X-1185702Y1757214D02*
G01X-1263289Y1757214D01*
G02X-876341Y1978820I1263289J-1757214D01*
G01X-876341Y1651000D01*
G03X-840527Y1615186I35814J0D01*
G01X-822016Y1615186D01*
G03X-850900Y1587434I6129J-35286D01*
G03X-885913Y1615714I-35013J-7534D01*
G01X-966560Y1615714D01*
G03X-1002374Y1579900I0J-35814D01*
G01X-1002374Y1550696D01*
G01X-1004660Y1550473D01*
G01X-1011083Y1550473D01*
G01X-1013568Y1550738D01*
G03X-1036198Y1580336I-35614J-3779D01*
G02X-1037184Y1585059I10826J4723D01*
G01X-1037184Y1593300D01*
G02X-1036671Y1596742I11811J0D01*
G03X-1009884Y1631400I-9027J34658D01*
G01X-1009884Y1721400D01*
G03X-1045698Y1757214I-35814J0D01*
G01X-1125698Y1757214D01*
G03X-1155700Y1740957I0J-35814D01*
G03X-1185702Y1757214I-30002J-19557D01*
G01X-936142Y487680D02*
G03X-917214Y491525I0J48514D01*
G01X-917214Y461405D01*
G03X-922069Y467072I-39160J-28638D01*
G01X-938413Y483415D01*
G03X-943289Y487680I-34305J-34305D01*
G01X-936142Y487680D01*
G01X-810514Y382401D02*
G01X-819605Y373310D01*
G01X-867010Y373310D01*
G03X-902824Y337496I0J-35814D01*
G01X-902824Y297253D01*
G01X-916686Y297253D01*
G01X-916686Y321753D01*
G03X-907860Y349654I-39688J27901D01*
G01X-907860Y419004D01*
G03X-881400Y407326I26460J24136D01*
G01X-810514Y407326D01*
G01X-810514Y382401D01*
G01X-699872Y1487866D02*
G02X-697140Y1488186I2732J-11491D01*
G01X-685800Y1488186D01*
G03X-675796Y1489229I0J48514D01*
G01X-675796Y1427900D01*
G03X-672504Y1412900I35814J0D01*
G03X-673297Y1405405I35021J-7496D01*
G01X-673297Y1350404D01*
G03X-671043Y1337899I35814J0D01*
G03X-672185Y1334249I33560J-12504D01*
G01X-694305Y1356369D01*
G02X-699426Y1373595I26417J17227D01*
G01X-699426Y1427500D01*
G03X-721324Y1460500I-35814J0D01*
G03X-699872Y1487866I-13916J33000D01*
G01X-574742Y1615186D02*
G01X1440443Y1615186D01*
G02X2162161Y93591I-1440443J-1615186D01*
G02X1574622Y-1484677I-2162161J-93591D01*
G01X1574622Y-1393444D01*
G03X1557522Y-1182158I-80787J99796D01*
G01X1557522Y-1041248D01*
G03X1521708Y-1005434I-35814J0D01*
G01X1371708Y-1005434D01*
G03X1335894Y-1041248I0J-35814D01*
G01X1335894Y-1167835D01*
G01X1303522Y-1167835D01*
G01X1303522Y-1041248D01*
G03X1267708Y-1005434I-35814J0D01*
G01X1254145Y-1005434D01*
G01X1253922Y-1003148D01*
G01X1253922Y-179214D01*
G03X1239712Y-144909I-48514J0D01*
G01X1067117Y27686D01*
G01X1262546Y27686D01*
G01X1308537Y-18305D01*
G03X1342841Y-32514I34305J34305D01*
G01X1835754Y-32514D01*
G03X1870059Y-18305I0J48514D01*
G01X1881465Y-6898D01*
G02X1897406Y8086I255618J-255964D01*
G01X1964202Y8086D01*
G03X2000016Y43900I0J35814D01*
G01X2000016Y133900D01*
G03X1973229Y168558I-35814J0D01*
G02X1972716Y172000I11298J3442D01*
G01X1972716Y183600D01*
G02X1973229Y187042I11811J0D01*
G03X2000016Y221700I-9027J34658D01*
G01X2000016Y311700D01*
G03X1964202Y347514I-35814J0D01*
G01X1924104Y347514D01*
G02X1906877Y352634I0J31538D01*
G01X1794463Y465049D01*
G02X1784906Y479471I30758J30758D01*
G01X1784906Y502192D01*
G03X1766859Y533289I-35814J0D01*
G03X1754079Y647692I-62767J50904D01*
G03X1754079Y774692I-49986J63500D01*
G03X1754079Y901692I-49986J63500D01*
G03X1704092Y1046006I-49986J63500D01*
G01X1674092Y1046006D01*
G03X1624106Y901692I0J-80814D01*
G03X1599532Y869362I49986J-63500D01*
G01X1376700Y1092194D01*
G03X1342395Y1106404I-34305J-34305D01*
G01X675608Y1106404D01*
G01X673115Y1106555D01*
G03X673322Y1110399I-35607J3844D01*
G01X673322Y1165400D01*
G03X671073Y1177892I-35814J0D01*
G03X673322Y1190384I-33565J12492D01*
G01X673322Y1245385D01*
G03X671064Y1257902I-35814J0D01*
G03X673322Y1270419I-33555J12517D01*
G01X673322Y1325420D01*
G03X671073Y1337912I-35814J0D01*
G03X673322Y1350404I-33565J12492D01*
G01X673322Y1405405D01*
G03X672529Y1412900I-35814J0D01*
G03X675822Y1427900I-32521J15000D01*
G01X675822Y1517900D01*
G03X640008Y1553714I-35814J0D01*
G01X550008Y1553714D01*
G03X527073Y1545408I0J-35814D01*
G03X507522Y1551215I-19551J-30007D01*
G01X452521Y1551215D01*
G03X440017Y1548961I0J-35814D01*
G03X427512Y1551215I-12504J-33560D01*
G01X372511Y1551215D01*
G03X360020Y1548966I0J-35814D01*
G03X347528Y1551215I-12492J-33565D01*
G01X292527Y1551215D01*
G03X280022Y1548961I0J-35814D01*
G03X267518Y1551215I-12504J-33560D01*
G01X212517Y1551215D01*
G03X200025Y1548966I0J-35814D01*
G03X187533Y1551215I-12492J-33565D01*
G01X132532Y1551215D01*
G03X120028Y1548961I0J-35814D01*
G03X107523Y1551215I-12504J-33560D01*
G01X52522Y1551215D01*
G03X40030Y1548966I0J-35814D01*
G03X27539Y1551215I-12492J-33565D01*
G01X-27462Y1551215D01*
G03X-39967Y1548961I0J-35814D01*
G03X-52471Y1551215I-12504J-33560D01*
G01X-107472Y1551215D01*
G03X-119977Y1548961I0J-35814D01*
G03X-132481Y1551215I-12504J-33560D01*
G01X-187482Y1551215D01*
G03X-199974Y1548966I0J-35814D01*
G03X-212466Y1551215I-12492J-33565D01*
G01X-267467Y1551215D01*
G03X-279971Y1548961I0J-35814D01*
G03X-292476Y1551215I-12504J-33560D01*
G01X-347477Y1551215D01*
G03X-359981Y1548961I0J-35814D01*
G03X-372486Y1551215I-12504J-33560D01*
G01X-427487Y1551215D01*
G03X-439991Y1548961I0J-35814D01*
G03X-452496Y1551215I-12504J-33560D01*
G01X-507497Y1551215D01*
G03X-527048Y1545408I0J-35814D01*
G03X-549982Y1553714I-22934J-27507D01*
G01X-577938Y1553714D01*
G03X-574742Y1615186I-57062J33786D01*
G01X1506614Y1384300D02*
G03X1134986Y1384300I-185814J0D01*
G03X1506614Y1384300I185814J0D01*
G01X-429642Y1089248D02*
G01X-426852Y1089571D01*
G03X-366308Y1166107I-4948J66129D01*
G03X-339095Y1179796I-7092J47993D01*
G01X-233905Y1284986D01*
G01X259305Y1284986D01*
G01X260586Y1283705D01*
G01X124997Y1283705D01*
G03X98755Y1272263I0J-35814D01*
G03X72513Y1283705I-26242J-24372D01*
G01X-72488Y1283705D01*
G03X-98740Y1272251I0J-35814D01*
G03X-125001Y1283713I-26261J-24352D01*
G01X-210000Y1283713D01*
G03X-235324Y1273224I0J-35814D01*
G01X-295324Y1213224D01*
G03X-305813Y1187900I25324J-25324D01*
G01X-305813Y1102901D01*
G03X-294365Y1076653I35814J0D01*
G03X-305812Y1050406I24367J-26247D01*
G01X-305812Y905405D01*
G03X-294357Y879150I35814J0D01*
G03X-305812Y852895I24358J-26255D01*
G01X-305812Y707894D01*
G03X-300493Y689114I35814J0D01*
G01X-375081Y614526D01*
G01X-384459Y614526D01*
G03X-418764Y600316I0J-48514D01*
G01X-435107Y583973D01*
G03X-447989Y560940I34305J-34305D01*
G03X-452496Y561224I-4507J-35529D01*
G01X-507497Y561224D01*
G03X-516668Y560030I0J-35814D01*
G01X-516668Y605406D01*
G03X-518922Y617911I-35814J0D01*
G03X-516668Y630415I-33560J12504D01*
G01X-516668Y685416D01*
G03X-518917Y697908I-35814J0D01*
G03X-516668Y710400I-33565J12492D01*
G01X-516668Y765401D01*
G03X-518922Y777905I-35814J0D01*
G03X-516668Y790410I-33560J12504D01*
G01X-516668Y845411D01*
G03X-518922Y857915I-35814J0D01*
G03X-516668Y870420I-33560J12504D01*
G01X-516668Y925421D01*
G03X-518917Y937913I-35814J0D01*
G03X-516668Y950405I-33565J12492D01*
G01X-516668Y1005406D01*
G03X-517112Y1011032I-35814J0D01*
G03X-495280Y1023611I-12472J46883D01*
G01X-429642Y1089248D01*
G01X305812Y1102890D02*
G01X305812Y1238479D01*
G01X319786Y1224505D01*
G01X319786Y952500D01*
G03X333995Y918195I48514J0D01*
G01X365348Y886842D01*
G01X365671Y884052D01*
G03X478691Y842109I66129J4948D01*
G03X436748Y955129I-46891J46891D01*
G01X433958Y955452D01*
G01X416814Y972595D01*
G01X416814Y1244600D01*
G03X402605Y1278905I-48514J0D01*
G01X313705Y1367805D01*
G03X279400Y1382014I-34305J-34305D01*
G01X-254000Y1382014D01*
G03X-288305Y1367805I0J-48514D01*
G01X-393495Y1262614D01*
G01X-514382Y1262614D01*
G02X-517440Y1262994I0J12492D01*
G03X-516668Y1270394I-35041J7399D01*
G01X-516668Y1325395D01*
G03X-518922Y1337899I-35814J0D01*
G03X-516668Y1350404I-33560J12504D01*
G01X-516668Y1395780D01*
G03X-507497Y1394586I9171J34620D01*
G01X-452496Y1394586D01*
G03X-439991Y1396840I0J35814D01*
G03X-427487Y1394586I12504J33560D01*
G01X-372486Y1394586D01*
G03X-359981Y1396840I0J35814D01*
G03X-347477Y1394586I12504J33560D01*
G01X-292476Y1394586D01*
G03X-279971Y1396840I0J35814D01*
G03X-267467Y1394586I12504J33560D01*
G01X-212466Y1394586D01*
G03X-199974Y1396835I0J35814D01*
G03X-187482Y1394586I12492J33565D01*
G01X-132481Y1394586D01*
G03X-119977Y1396840I0J35814D01*
G03X-107472Y1394586I12504J33560D01*
G01X-52471Y1394586D01*
G03X-39967Y1396840I0J35814D01*
G03X-27462Y1394586I12504J33560D01*
G01X27539Y1394586D01*
G03X40030Y1396835I0J35814D01*
G03X52522Y1394586I12492J33565D01*
G01X107523Y1394586D01*
G03X120028Y1396840I0J35814D01*
G03X132532Y1394586I12504J33560D01*
G01X187533Y1394586D01*
G03X200025Y1396835I0J35814D01*
G03X212517Y1394586I12492J33565D01*
G01X267518Y1394586D01*
G03X280022Y1396840I0J35814D01*
G03X292527Y1394586I12504J33560D01*
G01X347528Y1394586D01*
G03X360020Y1396835I0J35814D01*
G03X372511Y1394586I12492J33565D01*
G01X427512Y1394586D01*
G03X440017Y1396840I0J35814D01*
G03X452521Y1394586I12504J33560D01*
G01X507522Y1394586D01*
G03X516693Y1395780I0J35814D01*
G01X516693Y1350404D01*
G03X518942Y1337912I35814J0D01*
G03X516693Y1325420I33565J-12492D01*
G01X516693Y1270419D01*
G03X518952Y1257902I35814J0D01*
G03X516693Y1245385I33555J-12517D01*
G01X516693Y1190384D01*
G03X518942Y1177892I35814J0D01*
G03X516693Y1165400I33565J-12492D01*
G01X516693Y1110399D01*
G03X518947Y1097895I35814J0D01*
G03X516693Y1085390I33560J-12504D01*
G01X516693Y1030389D01*
G03X518942Y1017897I35814J0D01*
G03X516693Y1005406I33565J-12492D01*
G01X516693Y950405D01*
G03X518947Y937900I35814J0D01*
G03X516693Y925396I33560J-12504D01*
G01X516693Y870395D01*
G03X518942Y857903I35814J0D01*
G03X516693Y845411I33565J-12492D01*
G01X516693Y790410D01*
G03X518947Y777905I35814J0D01*
G03X516693Y765401I33560J-12504D01*
G01X516693Y755305D01*
G03X506646Y747596I24257J-42014D01*
G01X506064Y747014D01*
G01X477263Y747014D01*
G01X475062Y748759D01*
G03X420307Y763811I-43262J-50259D01*
G03X375621Y812520I-64707J-14511D01*
G03X311042Y798414I-20021J-63220D01*
G01X309673Y797179D01*
G03X305812Y796385I7826J-47879D01*
G01X305812Y852895D01*
G03X294357Y879150I-35814J0D01*
G03X305812Y905405I-24358J26255D01*
G01X305812Y1050406D01*
G03X294370Y1076648I-35814J0D01*
G03X305812Y1102890I-24372J26242D01*
G01X-491890Y262382D02*
G01X-465977Y262382D01*
G01X-494176Y234183D01*
G01X-494176Y242500D01*
G03X-499408Y261139I-35814J0D01*
G02X-491890Y262382I7518J-22108D01*
G01X-310200Y155920D02*
G01X-329467Y155920D01*
G03X-354393Y162814I-24927J-41620D01*
G01X-386337Y162814D01*
G01X-388538Y164559D01*
G03X-413191Y177950I-43262J-50259D01*
G01X-385709Y205432D01*
G03X-350200Y174280I35509J4662D01*
G01X-310200Y174280D01*
G03X-278905Y192680I0J35814D01*
G01X-278905Y160001D01*
G02X-283368Y143827I-31538J0D01*
G03X-310200Y155920I-26832J-23721D01*
G01X-240501Y611887D02*
G01X261962Y611887D01*
G03X296267Y626097I0J48514D01*
G01X332203Y662033D01*
G03X344784Y683874I-34305J34305D01*
G03X367093Y683989I10816J65426D01*
G03X409144Y636176I64707J14511D01*
G03X424542Y561224I60756J-26576D01*
G01X372511Y561224D01*
G03X360007Y558971I0J-35814D01*
G03X347502Y561224I-12504J-33560D01*
G01X292501Y561224D01*
G03X280010Y558975I0J-35814D01*
G03X267518Y561224I-12492J-33565D01*
G01X212517Y561224D01*
G03X200012Y558971I0J-35814D01*
G03X187508Y561224I-12504J-33560D01*
G01X132507Y561224D01*
G03X120015Y558975I0J-35814D01*
G03X107523Y561224I-12492J-33565D01*
G01X52522Y561224D01*
G03X40018Y558971I0J-35814D01*
G03X27513Y561224I-12504J-33560D01*
G01X-27488Y561224D01*
G03X-39980Y558975I0J-35814D01*
G03X-52471Y561224I-12492J-33565D01*
G01X-107472Y561224D01*
G03X-119977Y558971I0J-35814D01*
G03X-132481Y561224I-12504J-33560D01*
G01X-187482Y561224D01*
G03X-199987Y558971I0J-35814D01*
G03X-212491Y561224I-12504J-33560D01*
G01X-267492Y561224D01*
G03X-279997Y558971I0J-35814D01*
G03X-291188Y561200I-12504J-33560D01*
G01X-240501Y611887D01*
G01X-200826Y279086D02*
G03X-189415Y260914I61126J25714D01*
G01X-243091Y260914D01*
G03X-274386Y242514I0J-35814D01*
G01X-274386Y270093D01*
G03X-275533Y279086I-35814J0D01*
G01X-200826Y279086D01*
G01X1110200Y929391D02*
G01X1140048Y899542D01*
G01X1140371Y896752D01*
G03X1253391Y854809I66129J4948D01*
G03X1211448Y967829I-46891J46891D01*
G01X1208658Y968152D01*
G01X1167433Y1009376D01*
G01X1322300Y1009376D01*
G01X1591949Y739727D01*
G01X1592358Y739232D01*
G01X1592751Y738580D01*
G01X1593586Y736738D01*
G01X1594414Y734286D01*
G01X1594999Y731789D01*
G01X1595250Y729857D01*
G01X1595257Y729229D01*
G01X1595148Y728475D01*
G03X1624106Y647692I78944J-17283D01*
G03X1600960Y618581I49986J-63500D01*
G01X1600808Y618951D01*
G01X1600808Y653297D01*
G03X1564994Y689111I-35814J0D01*
G01X1314995Y689111D01*
G03X1279181Y653297I0J-35814D01*
G01X1279181Y543297D01*
G03X1314995Y507483I35814J0D01*
G01X1564994Y507483D01*
G03X1569437Y507760I0J35814D01*
G02X1573506Y504170I-26690J-34347D01*
G01X1588158Y489517D01*
G02X1593279Y472291I-26418J-17226D01*
G01X1593279Y445269D01*
G03X1564994Y459114I-28284J-21969D01*
G01X1314995Y459114D01*
G03X1279181Y423300I0J-35814D01*
G01X1279181Y417037D01*
G01X1276895Y416814D01*
G01X1001103Y416814D01*
G01X998817Y417037D01*
G01X998817Y548300D01*
G03X963003Y584114I-35814J0D01*
G01X899637Y584114D01*
G01X899414Y586400D01*
G01X899414Y741937D01*
G01X901159Y744138D01*
G03X850900Y853714I-50259J43262D01*
G03X800641Y744138I0J-66314D01*
G01X802386Y741937D01*
G01X802386Y586400D01*
G01X802163Y584114D01*
G01X729003Y584114D01*
G03X693189Y548300I0J-35814D01*
G01X693189Y288961D01*
G02X685221Y276214I-40314J16336D01*
G01X668671Y263306D01*
G03X598247Y277698I-46371J-47406D01*
G03X556083Y219485I24053J-61798D01*
G03X522060Y244114I-34023J-11185D01*
G01X441413Y244114D01*
G03X406400Y215834I0J-35814D01*
G03X380063Y243048I-35013J-7534D01*
G02X379578Y246400I11325J3353D01*
G01X379578Y402309D01*
G01X379594Y404595D01*
G01X427512Y404595D01*
G03X440017Y406849I0J35814D01*
G03X452521Y404595I12504J33560D01*
G01X507522Y404595D01*
G03X527073Y410403I0J35814D01*
G03X550008Y402096I22934J27507D01*
G01X640008Y402096D01*
G03X675822Y437910I0J35814D01*
G01X675822Y527910D01*
G03X672529Y542910I-35814J0D01*
G03X673322Y550405I-35021J7496D01*
G01X673322Y605406D01*
G03X671073Y617898I-35814J0D01*
G03X673322Y630390I-33565J12492D01*
G01X673322Y685391D01*
G03X671068Y697895I-35814J0D01*
G03X673322Y710400I-33560J12504D01*
G01X673322Y765401D01*
G03X671068Y777905I-35814J0D01*
G03X673322Y790410I-33560J12504D01*
G01X673322Y845411D01*
G03X671073Y857903I-35814J0D01*
G03X673322Y870395I-33565J12492D01*
G01X673322Y925396D01*
G03X673115Y929240I-35814J0D01*
G01X675608Y929391D01*
G01X1110200Y929391D01*
G01X949994Y124714D02*
G01X669684Y124714D01*
G03X677107Y130795I-26881J40386D01*
G01X706639Y160327D01*
G03X729003Y152486I22364J27973D01*
G01X963003Y152486D01*
G03X998817Y188300I0J35814D01*
G01X998817Y319563D01*
G01X1001103Y319786D01*
G01X1276895Y319786D01*
G01X1279181Y319563D01*
G01X1279181Y313300D01*
G03X1314995Y277486I35814J0D01*
G01X1564994Y277486D01*
G03X1600808Y313300I0J35814D01*
G01X1600808Y390223D01*
G03X1629093Y376378I28284J21969D01*
G01X1741759Y376378D01*
G02X1756537Y365756I-25074J-50475D01*
G01X1774779Y347514D01*
G01X1744198Y347514D01*
G03X1708384Y311700I0J-35814D01*
G01X1708384Y221700D01*
G03X1744198Y185886I35814J0D01*
G01X1824198Y185886D01*
G03X1854200Y202143I0J35814D01*
G03X1875176Y187042I30002J19557D01*
G02X1875688Y183600I-11298J-3442D01*
G01X1875688Y172000D01*
G02X1875176Y168558I-11811J0D01*
G03X1854200Y153457I9027J-34658D01*
G03X1824198Y169714I-30002J-19557D01*
G01X1744198Y169714D01*
G03X1708384Y133900I0J-35814D01*
G01X1708384Y64514D01*
G01X1595484Y64514D01*
G03X1600808Y83303I-30490J18789D01*
G01X1600808Y193303D01*
G03X1564994Y229117I-35814J0D01*
G01X1314995Y229117D01*
G03X1279181Y193303I0J-35814D01*
G01X1279181Y124714D01*
G01X949994Y124714D01*
G01X1386408Y-1558061D02*
G01X1502047Y-1558061D01*
G02X785114Y-2016754I-1502047J1558061D01*
G01X785114Y-1819530D01*
G03X838956Y-1791229I-10414J85180D01*
G03X860514Y-1734350I-64256J56879D01*
G01X860514Y-678650D01*
G03X785114Y-593470I-85814J0D01*
G01X785114Y-89588D01*
G03X841191Y-44344I-20867J83238D01*
G03X843022Y27686I-76945J37994D01*
G01X911624Y27686D01*
G02X973202Y-15617I-93890J-198949D01*
G01X1156894Y-199309D01*
G01X1156894Y-1003148D01*
G01X1156670Y-1005434D01*
G01X1117708Y-1005434D01*
G03X1081894Y-1041248I0J-35814D01*
G01X1081894Y-1092510D01*
G01X1079608Y-1092733D01*
G01X1017753Y-1092733D01*
G03X983448Y-1106943I0J-48514D01*
G01X956295Y-1134095D01*
G03X942086Y-1168400I34305J-34305D01*
G01X942086Y-1409700D01*
G03X956295Y-1444005I48514J0D01*
G01X992643Y-1480352D01*
G03X1026947Y-1494561I34305J34305D01*
G01X1094308Y-1494561D01*
G01X1096594Y-1494785D01*
G01X1096594Y-1522247D01*
G03X1132408Y-1558061I35814J0D01*
G01X1284808Y-1558061D01*
G03X1320622Y-1522247I0J35814D01*
G01X1320622Y-1419460D01*
G01X1350594Y-1419460D01*
G01X1350594Y-1522247D01*
G03X1386408Y-1558061I35814J0D01*
G54D11*
G01X-1654746Y86916D02*
G01X-1654746Y61008D01*
G01X-1654746Y166408D02*
G01X-1654746Y192316D01*
G01X-1615001Y126662D02*
G01X-1589093Y126662D01*
G01X-1268933Y1501959D02*
G01X-1294841Y1501959D01*
G01X-1229187Y1546705D02*
G01X-1229187Y1572613D01*
G01X-1229187Y1457213D02*
G01X-1229187Y1431305D01*
G01X-1265448Y1676400D02*
G01X-1291356Y1676400D01*
G01X-1225702Y1721146D02*
G01X-1225702Y1747054D01*
G01X-1225702Y1631654D02*
G01X-1225702Y1605746D01*
G01X-984528Y1031189D02*
G01X-958620Y1031189D01*
G01X-1265448Y1320800D02*
G01X-1291356Y1320800D01*
G01X-1225702Y1365546D02*
G01X-1225702Y1391454D01*
G01X-1225702Y1276054D02*
G01X-1225702Y1250146D01*
G01X-637229Y1377904D02*
G01X-663137Y1377904D01*
G01X-552736Y1377904D02*
G01X-526828Y1377904D01*
G01X-639728Y1472900D02*
G01X-665636Y1472900D01*
G01X-639728Y482910D02*
G01X-665636Y482910D01*
G01X-594982Y438164D02*
G01X-594982Y412256D01*
G01X-838200Y443394D02*
G01X-838200Y417486D01*
G01X-881146Y483464D02*
G01X-907054Y483464D01*
G01X-637229Y577906D02*
G01X-663137Y577906D01*
G01X-552736Y577906D02*
G01X-526828Y577906D01*
G01X-552736Y1297894D02*
G01X-526828Y1297894D01*
G01X-636937Y215900D02*
G01X-662845Y215900D01*
G01X-838200Y1029806D02*
G01X-838200Y1055714D01*
G01X-881146Y989736D02*
G01X-907054Y989736D01*
G01X-795254Y989736D02*
G01X-769346Y989736D01*
G01X-330200Y210348D02*
G01X-330200Y184440D01*
G01X-159982Y1430654D02*
G01X-159982Y1404746D01*
G01X-159982Y1515147D02*
G01X-159982Y1541055D01*
G01X80023Y1430654D02*
G01X80023Y1404746D01*
G01X80023Y1515147D02*
G01X80023Y1541055D01*
G01X-479996Y1430654D02*
G01X-479996Y1404746D01*
G01X-479996Y1515147D02*
G01X-479996Y1541055D01*
G01X160033Y1430654D02*
G01X160033Y1404746D01*
G01X160033Y1515147D02*
G01X160033Y1541055D01*
G01X-399986Y1430654D02*
G01X-399986Y1404746D01*
G01X-399986Y1515147D02*
G01X-399986Y1541055D01*
G01X-79972Y1430654D02*
G01X-79972Y1404746D01*
G01X-79972Y1515147D02*
G01X-79972Y1541055D01*
G01X-239966Y1430654D02*
G01X-239966Y1404746D01*
G01X-239966Y1515147D02*
G01X-239966Y1541055D01*
G01X240017Y1430654D02*
G01X240017Y1404746D01*
G01X240017Y1515147D02*
G01X240017Y1541055D01*
G01X-319976Y1430654D02*
G01X-319976Y1404746D01*
G01X-319976Y1515147D02*
G01X-319976Y1541055D01*
G01X38Y1430654D02*
G01X38Y1404746D01*
G01X38Y1515147D02*
G01X38Y1541055D01*
G01X269744Y1175390D02*
G01X295652Y1175390D01*
G01X197498Y1247637D02*
G01X197498Y1273545D01*
G01X13Y1247637D02*
G01X13Y1273545D01*
G01X-269745Y1175415D02*
G01X-295653Y1175415D01*
G01X-197498Y1247645D02*
G01X-197498Y1273553D01*
G01X-269744Y977905D02*
G01X-295652Y977905D01*
G01X269744Y977905D02*
G01X295652Y977905D01*
G01X-269744Y780395D02*
G01X-295652Y780395D01*
G01X400012Y1430654D02*
G01X400012Y1404746D01*
G01X400012Y1515147D02*
G01X400012Y1541055D01*
G01X639754Y1472900D02*
G01X665662Y1472900D01*
G01X595008Y1517646D02*
G01X595008Y1543554D01*
G01X320027Y1430654D02*
G01X320027Y1404746D01*
G01X320027Y1515147D02*
G01X320027Y1541055D01*
G01X480022Y1430654D02*
G01X480022Y1404746D01*
G01X480022Y1515147D02*
G01X480022Y1541055D01*
G01X1315249Y138303D02*
G01X1289341Y138303D01*
G01X1564740Y138303D02*
G01X1590648Y138303D01*
G01X1439995Y193049D02*
G01X1439995Y218957D01*
G01X639754Y482910D02*
G01X665662Y482910D01*
G01X595008Y438164D02*
G01X595008Y412256D01*
G01X1744452Y88900D02*
G01X1718544Y88900D01*
G01X1784198Y133646D02*
G01X1784198Y159554D01*
G01X1744452Y266700D02*
G01X1718544Y266700D01*
G01X1784198Y221954D02*
G01X1784198Y196046D01*
G01X-1541526Y1202949D02*
G01X-1541526Y1228857D01*
G01X-1541526Y1083457D02*
G01X-1541526Y1057549D01*
G01X-1451780Y1143203D02*
G01X-1425872Y1143203D01*
G01X-1631272Y1143203D02*
G01X-1657180Y1143203D01*
G01X-1541526Y338943D02*
G01X-1541526Y364851D01*
G01X-1451780Y279197D02*
G01X-1425872Y279197D01*
G01X-1631272Y279197D02*
G01X-1657180Y279197D01*
G01X-1233264Y279197D02*
G01X-1259172Y279197D01*
G01X-1123518Y1202949D02*
G01X-1123518Y1228857D01*
G01X-1013772Y1143203D02*
G01X-987864Y1143203D01*
G01X-1233264Y1143203D02*
G01X-1259172Y1143203D01*
G01X1521454Y-1141247D02*
G01X1547362Y-1141247D01*
G01X1371962Y-1141247D02*
G01X1346054Y-1141247D01*
G01X1446708Y-1041502D02*
G01X1446708Y-1015594D01*
G01X1538554Y-1446047D02*
G01X1564462Y-1446047D01*
G01X1386662Y-1446047D02*
G01X1360754Y-1446047D01*
G01X1462608Y-1521993D02*
G01X1462608Y-1547901D01*
G01X1748838Y584192D02*
G01X1774746Y584192D01*
G04 Copper End*

G04 TearDrop Start*
G36*
G01X-1098398Y1585059D02*
G01X-1072998Y1585059D01*
G03X-1053948Y1546959I47625J0D01*
G01X-1117448Y1546959D01*
G03X-1098398Y1585059I-28575J38100D01*
G37*
G36*
G01X-1011083Y1514659D02*
G01X-1011083Y1489259D01*
G03X-1049183Y1470209I0J-47625D01*
G01X-1049183Y1533709D01*
G03X-1011083Y1514659I38100J28575D01*
G37*
G36*
G01X-1072998Y1593300D02*
G01X-1098398Y1593300D01*
G03X-1117448Y1631400I-47625J0D01*
G01X-1053948Y1631400D01*
G03X-1072998Y1593300I28575J-38100D01*
G37*
G36*
G01X-1007598Y1333500D02*
G01X-1007598Y1308100D01*
G03X-1045698Y1289050I0J-47625D01*
G01X-1045698Y1352550D01*
G03X-1007598Y1333500I38100J28575D01*
G37*
G36*
G01X1855968Y18253D02*
G01X1864157Y62363D01*
G03X1884202Y96198I-56082J56082D01*
G01X1884202Y43900D01*
G03X1855968Y18253I252881J-306762D01*
G37*
G36*
G01X1911502Y172000D02*
G01X1936902Y172000D01*
G03X1955952Y133900I47625J0D01*
G01X1892452Y133900D01*
G03X1911502Y172000I-28575J38100D01*
G37*
G36*
G01X1870732Y302210D02*
G01X1883693Y325170D01*
G03X1924104Y311700I40411J53882D01*
G01X1884202Y261799D01*
G03X1870732Y302210I-67352J0D01*
G37*
G36*
G01X1936902Y183600D02*
G01X1911502Y183600D01*
G03X1892452Y221700I-47625J0D01*
G01X1955952Y221700D01*
G03X1936902Y183600I28575J-38100D01*
G37*
G36*
G01X-516736Y160975D02*
G01X-511797Y129992D01*
G03X-529990Y94304I45859J-45859D01*
G01X-557147Y147504D01*
G03X-516736Y160975I0J67352D01*
G37*
G36*
G01X-491890Y323596D02*
G01X-491890Y298196D01*
G03X-529990Y284296I0J-59166D01*
G01X-529990Y337496D01*
G03X-491890Y323596I38100J45266D01*
G37*
G36*
G01X-842095Y169254D02*
G01X-862885Y184384D01*
G03X-867010Y189300I-4124J727D01*
G01X-808260Y189300D01*
G03X-842095Y169254I22246J-76128D01*
G37*
G36*
G01X-784724Y167550D02*
G01X-763934Y152420D01*
G03X-759809Y147504I4124J-727D01*
G01X-818559Y147504D01*
G03X-784724Y167550I-22246J76128D01*
G37*
G36*
G01X-248600Y91630D02*
G01X-256561Y119590D01*
G03X-243091Y160001I-53882J40411D01*
G01X-208189Y105100D01*
G03X-248600Y91630I0J-67352D01*
G37*
G36*
G01X180361Y119590D02*
G01X172400Y91630D01*
G03X131989Y105100I-40411J-53882D01*
G01X166891Y160001D01*
G03X180361Y119590I67352J0D01*
G37*
G36*
G01X-1416754Y140048D02*
G01X-1416754Y114648D01*
G03X-1454854Y95598I0J-47625D01*
G01X-1454854Y159098D01*
G03X-1416754Y140048I38100J28575D01*
G37*
G36*
G01X-919500Y823493D02*
G01X-919500Y848893D01*
G03X-881400Y867943I0J47625D01*
G01X-881400Y804443D01*
G03X-919500Y823493I-38100J-28575D01*
G37*
G36*
G01X560160Y177800D02*
G01X560160Y152400D01*
G03X522060Y133350I0J-47625D01*
G01X522060Y196850D01*
G03X560160Y177800I38100J28575D01*
G37*
G36*
G01X318364Y246400D02*
G01X343764Y246400D01*
G03X362814Y208300I47625J0D01*
G01X299314Y208300D01*
G03X318364Y246400I-28575J38100D01*
G37*
G36*
G01X-1116240Y139700D02*
G01X-1116240Y114300D01*
G03X-1154340Y95250I0J-47625D01*
G01X-1154340Y158750D01*
G03X-1116240Y139700I38100J28575D01*
G37*
G36*
G01X-1423760Y114648D02*
G01X-1423760Y140048D01*
G03X-1385660Y159098I0J47625D01*
G01X-1385660Y95598D01*
G03X-1423760Y114648I-38100J-28575D01*
G37*
G36*
G01X-697140Y1549400D02*
G01X-697140Y1524000D01*
G03X-735240Y1504950I0J-47625D01*
G01X-735240Y1568450D01*
G03X-697140Y1549400I38100J28575D01*
G37*
G36*
G01X-872442Y1500866D02*
G01X-887526Y1480029D01*
G03X-927937Y1493500I-40411J-53882D01*
G01X-885913Y1541278D01*
G03X-872442Y1500866I67352J0D01*
G37*
G36*
G01X-1004660Y1489259D02*
G01X-1004660Y1514659D01*
G03X-966560Y1533709I0J47625D01*
G01X-966560Y1493500D01*
G03X-1004660Y1489259I0J-173279D01*
G37*
G36*
G01X-964947Y1327629D02*
G01X-980031Y1348466D01*
G03X-966560Y1388878I-53882J40411D01*
G01X-924535Y1341100D01*
G03X-964947Y1327629I0J-67352D01*
G37*
G36*
G01X-872442Y1348466D02*
G01X-887526Y1327629D01*
G03X-927937Y1341100I-40411J-53882D01*
G01X-885913Y1388878D01*
G03X-872442Y1348466I67352J0D01*
G37*
G36*
G01X-829358Y1421861D02*
G01X-812547Y1440971D01*
G03X-772135Y1427500I40411J53882D01*
G01X-815887Y1381450D01*
G03X-829358Y1421861I-67352J0D01*
G37*
G36*
G01X-721769Y1333184D02*
G01X-752136Y1327629D01*
G03X-792547Y1341100I-40411J-53882D01*
G01X-735240Y1373595D01*
G03X-721769Y1333184I67352J0D01*
G37*
G36*
G01X675608Y990605D02*
G01X675608Y965205D01*
G03X637508Y950405I0J-56439D01*
G01X637508Y1005406D01*
G03X675608Y990605I38100J41639D01*
G37*
G36*
G01X540951Y700591D02*
G01X540951Y725991D01*
G03X552507Y745041I-9923J19050D01*
G01X552507Y710400D01*
G03X540951Y700591I0J-11712D01*
G37*
G36*
G01X-413503Y549668D02*
G01X-388103Y549668D01*
G03X-372486Y525410I26649J0D01*
G01X-427487Y525410D01*
G03X-413503Y549668I-14046J24257D01*
G37*
G36*
G01X-308093Y536967D02*
G01X-282693Y536967D01*
G03X-292501Y525410I1903J-11556D01*
G01X-327143Y525410D01*
G03X-308093Y536967I0J21479D01*
G37*
G36*
G01X-12687Y1088506D02*
G01X12713Y1088506D01*
G03X31763Y1050406I47625J0D01*
G01X-31737Y1050406D01*
G03X-12687Y1088506I-28575J38100D01*
G37*
G36*
G01X12713Y867305D02*
G01X-12687Y867305D01*
G03X-31737Y905405I-47625J0D01*
G01X31763Y905405D01*
G03X12713Y867305I28575J-38100D01*
G37*
G36*
G01X110613Y990605D02*
G01X110613Y965205D01*
G03X72513Y946155I0J-47625D01*
G01X72513Y1009655D01*
G03X110613Y990605I38100J28575D01*
G37*
G36*
G01X-110588Y965205D02*
G01X-110588Y990605D01*
G03X-72488Y1009655I0J47625D01*
G01X-72488Y946155D01*
G03X-110588Y965205I-38100J-28575D01*
G37*
G36*
G01X-514382Y1226800D02*
G01X-514382Y1201400D01*
G03X-552482Y1190409I0J-71531D01*
G01X-552482Y1245410D01*
G03X-514382Y1226800I38100J29696D01*
G37*
G36*
G01X-529585Y1070615D02*
G01X-529585Y1045215D01*
G03X-552482Y1030415I0J-25111D01*
G01X-552482Y1085416D01*
G03X-529585Y1070615I22897J10311D01*
G37*
G36*
G01X-649879Y807539D02*
G01X-649879Y832939D01*
G03X-637483Y845411I-76J12472D01*
G01X-637483Y790410D01*
G03X-649879Y807539I-18033J0D01*
G37*
G36*
G01X343764Y402309D02*
G01X318364Y402309D01*
G03X299314Y440409I-47625J0D01*
G01X347502Y440409D01*
G03X343764Y402309I192254J-38100D01*
G37*
G36*
G01X675608Y1070590D02*
G01X675608Y1045190D01*
G03X637508Y1030389I0J-56439D01*
G01X637508Y1085390D01*
G03X675608Y1070590I38100J41639D01*
G37*
G36*
G01X86897Y965205D02*
G01X86897Y990605D01*
G03X124997Y1009655I0J47625D01*
G01X124997Y946155D01*
G03X86897Y965205I-38100J-28575D01*
G37*
G36*
G01X12713Y1064790D02*
G01X-12687Y1064790D01*
G03X-31737Y1102890I-47625J0D01*
G01X31763Y1102890D01*
G03X12713Y1064790I28575J-38100D01*
G37*
G36*
G01X-86897Y990605D02*
G01X-86897Y965205D01*
G03X-124997Y946155I0J-47625D01*
G01X-124997Y1009655D01*
G03X-86897Y990605I38100J28575D01*
G37*
G36*
G01X-86897Y793095D02*
G01X-86897Y767695D01*
G03X-124997Y748645I0J-47625D01*
G01X-124997Y812145D01*
G03X-86897Y793095I38100J28575D01*
G37*
G36*
G01X110613Y793095D02*
G01X110613Y767695D01*
G03X72513Y748645I0J-47625D01*
G01X72513Y812145D01*
G03X110613Y793095I38100J28575D01*
G37*
G36*
G01X-110588Y767695D02*
G01X-110588Y793095D01*
G03X-72488Y812145I0J47625D01*
G01X-72488Y748645D01*
G03X-110588Y767695I-38100J-28575D01*
G37*
G36*
G01X-12687Y890995D02*
G01X12713Y890995D01*
G03X31763Y852895I47625J0D01*
G01X-31737Y852895D01*
G03X-12687Y890995I-28575J38100D01*
G37*
G36*
G01X86897Y767695D02*
G01X86897Y793095D01*
G03X124997Y812145I0J47625D01*
G01X124997Y748645D01*
G03X86897Y767695I-38100J-28575D01*
G37*
G36*
G01X1276895Y355600D02*
G01X1276895Y381000D01*
G03X1314995Y400050I0J47625D01*
G01X1314995Y336550D01*
G03X1276895Y355600I-38100J-28575D01*
G37*
G36*
G01X1585040Y579205D02*
G01X1598830Y529494D01*
G03X1564994Y549540I-56082J-56082D01*
G01X1564994Y613040D01*
G03X1585040Y579205I76128J22246D01*
G37*
G36*
G01X838200Y586400D02*
G01X863600Y586400D01*
G03X882650Y548300I47625J0D01*
G01X819150Y548300D01*
G03X838200Y586400I-28575J38100D01*
G37*
G36*
G01X695167Y199504D02*
G01X708957Y249214D01*
G03X729003Y283050I-56082J56082D01*
G01X729003Y219550D01*
G03X695167Y199504I22246J-76128D01*
G37*
G36*
G01X1001103Y381000D02*
G01X1001103Y355600D01*
G03X963003Y336550I0J-47625D01*
G01X963003Y400050D01*
G03X1001103Y381000I38100J28575D01*
G37*
G36*
G01X1615622Y512702D02*
G01X1648583Y515663D01*
G03X1688994Y502192I40411J53882D01*
G01X1629093Y472291D01*
G03X1615622Y512702I-67352J0D01*
G37*
G36*
G01X1769138Y439725D02*
G01X1781862Y391080D01*
G03X1749092Y412192I-65177J-65177D01*
G01X1749092Y473560D01*
G03X1769138Y439725I76128J22246D01*
G37*
G36*
G01X1618466Y763858D02*
G01X1641132Y777113D01*
G01X1648615Y769431D01*
G01X1652257Y765897D01*
G01X1655987Y762730D01*
G01X1659921Y760054D01*
G01X1664172Y757990D01*
G01X1668858Y756662D01*
G01X1674092Y756192D01*
G01X1630384Y721895D01*
G01X1631098Y726848D01*
G01X1631040Y732364D01*
G01X1630281Y738203D01*
G01X1628892Y744126D01*
G01X1626944Y749892D01*
G01X1624510Y755263D01*
G01X1621660Y759998D01*
G01X1618466Y763858D01*
G37*
G36*
G01X-946174Y548894D02*
G01X-946174Y523494D01*
G03X-984274Y521194I0J-316723D01*
G01X-984274Y551194D01*
G03X-946174Y548894I38100J314423D01*
G37*
G36*
G01X-1137739Y617039D02*
G01X-1137739Y642439D01*
G03X-1114274Y651194I0J35826D01*
G01X-1114274Y621194D01*
G03X-1137739Y617039I0J-68348D01*
G37*
G36*
G01X-1125830Y716406D02*
G01X-1125830Y741806D01*
G03X-1114274Y751194I0J11807D01*
G01X-1114274Y721194D01*
G03X-1125830Y716406I0J-16343D01*
G37*
G36*
G01X-972718Y461811D02*
G01X-972718Y436411D01*
G03X-984274Y441195I-11556J-11564D01*
G01X-984274Y480861D01*
G03X-972718Y461811I21479J0D01*
G37*
G36*
G01X-1081360Y341165D02*
G01X-1131070Y327375D01*
G03X-1111024Y361211I-56082J56082D01*
G01X-1047524Y361211D01*
G03X-1081360Y341165I22246J-76128D01*
G37*
G36*
G01X-1125830Y916406D02*
G01X-1125830Y941806D01*
G03X-1114274Y960856I-9923J19050D01*
G01X-1114274Y921205D01*
G03X-1125830Y916406I0J-16315D01*
G37*
G36*
G01X-1099203Y359243D02*
G01X-1051482Y371042D01*
G01X-1063425Y360290D01*
G01X-1074896Y349985D01*
G01X-1078665Y345663D01*
G01X-1079745Y343825D01*
G01X-1080169Y342247D01*
G01X-1079848Y340962D01*
G01X-1078692Y340003D01*
G01X-1076612Y339404D01*
G01X-1073518Y339197D01*
G01X-1133038Y339197D01*
G01X-1127926Y339647D01*
G01X-1123181Y340919D01*
G01X-1118746Y342897D01*
G01X-1114563Y345461D01*
G01X-1110576Y348495D01*
G01X-1106724Y351882D01*
G01X-1099203Y359243D01*
G37*
G36*
G01X1559808Y-1128547D02*
G01X1559808Y-1153947D01*
G03X1521708Y-1172997I0J-47625D01*
G01X1521708Y-1109497D01*
G03X1559808Y-1128547I38100J28575D01*
G37*
G36*
G01X1192708Y-1003148D02*
G01X1218108Y-1003148D01*
G03X1237158Y-1041248I47625J0D01*
G01X1173658Y-1041248D01*
G03X1192708Y-1003148I-28575J38100D01*
G37*
G36*
G01X1079608Y-1153947D02*
G01X1079608Y-1128547D01*
G03X1117708Y-1109497I0J47625D01*
G01X1117708Y-1172997D01*
G03X1079608Y-1153947I-38100J-28575D01*
G37*
G36*
G01X1094308Y-1458747D02*
G01X1094308Y-1433347D01*
G03X1132408Y-1414297I0J47625D01*
G01X1132408Y-1477797D01*
G03X1094308Y-1458747I-38100J-28575D01*
G37*
G36*
G01X-655494Y1549045D02*
G01X-673455Y1567006D01*
G01X-671600Y1569179D01*
G01X-670019Y1571661D01*
G01X-667615Y1577279D01*
G01X-666132Y1583308D01*
G01X-665453Y1589197D01*
G01X-633303Y1557047D01*
G01X-639192Y1556368D01*
G01X-645221Y1554885D01*
G01X-650839Y1552481D01*
G01X-653321Y1550900D01*
G01X-655494Y1549045D01*
G37*
G36*
G01X-452294Y1117245D02*
G01X-470255Y1135206D01*
G01X-468400Y1137379D01*
G01X-466819Y1139861D01*
G01X-464415Y1145479D01*
G01X-462932Y1151508D01*
G01X-462253Y1157397D01*
G01X-430103Y1125247D01*
G01X-435992Y1124568D01*
G01X-442021Y1123085D01*
G01X-447639Y1120681D01*
G01X-450121Y1119100D01*
G01X-452294Y1117245D01*
G37*
G36*
G01X-901571Y165100D02*
G01X-901571Y139700D01*
G01X-904270Y139475D01*
G01X-906753Y138838D01*
G01X-911237Y136565D01*
G01X-915362Y133351D01*
G01X-919467Y129666D01*
G01X-919467Y175134D01*
G01X-915362Y171449D01*
G01X-911237Y168235D01*
G01X-906753Y165962D01*
G01X-904270Y165325D01*
G01X-901571Y165100D01*
G37*
G36*
G01X-390117Y127000D02*
G01X-390117Y101600D01*
G01X-392964Y101375D01*
G01X-395838Y100738D01*
G01X-401510Y98465D01*
G01X-406823Y95251D01*
G01X-411467Y91566D01*
G01X-411467Y137034D01*
G01X-406823Y133349D01*
G01X-401510Y130135D01*
G01X-395838Y127862D01*
G01X-392964Y127225D01*
G01X-390117Y127000D01*
G37*
G36*
G01X1168045Y922194D02*
G01X1186006Y940155D01*
G01X1188179Y938300D01*
G01X1190661Y936719D01*
G01X1196279Y934315D01*
G01X1202308Y932832D01*
G01X1208197Y932153D01*
G01X1176047Y900003D01*
G01X1175368Y905892D01*
G01X1173885Y911921D01*
G01X1171481Y917539D01*
G01X1169900Y920021D01*
G01X1168045Y922194D01*
G37*
G36*
G01X317499Y736600D02*
G01X317499Y762000D01*
G01X320193Y762225D01*
G01X322661Y762862D01*
G01X327101Y765135D01*
G01X331182Y768349D01*
G01X335267Y772034D01*
G01X335267Y726566D01*
G01X331182Y730251D01*
G01X327101Y733465D01*
G01X322661Y735738D01*
G01X320193Y736375D01*
G01X317499Y736600D01*
G37*
G36*
G01X393345Y909494D02*
G01X411306Y927455D01*
G01X413479Y925600D01*
G01X415961Y924019D01*
G01X421579Y921615D01*
G01X427608Y920132D01*
G01X433497Y919453D01*
G01X401347Y887303D01*
G01X400668Y893192D01*
G01X399185Y899221D01*
G01X396781Y904839D01*
G01X395200Y907321D01*
G01X393345Y909494D01*
G37*
G36*
G01X863600Y745717D02*
G01X838200Y745717D01*
G01X837975Y748564D01*
G01X837338Y751438D01*
G01X835065Y757110D01*
G01X831851Y762423D01*
G01X828166Y767067D01*
G01X873634Y767067D01*
G01X869949Y762423D01*
G01X866735Y757110D01*
G01X864462Y751438D01*
G01X863825Y748564D01*
G01X863600Y745717D01*
G37*
G36*
G01X-1121183Y114300D02*
G01X-1121183Y139700D01*
G01X-1118336Y139925D01*
G01X-1115462Y140562D01*
G01X-1109790Y142835D01*
G01X-1104477Y146049D01*
G01X-1099833Y149734D01*
G01X-1099833Y104266D01*
G01X-1104477Y107951D01*
G01X-1109790Y111165D01*
G01X-1115462Y113438D01*
G01X-1118336Y114075D01*
G01X-1121183Y114300D01*
G37*
G36*
G01X655503Y174047D02*
G01X630103Y165100D01*
G01X629867Y172302D01*
G01X629420Y175644D01*
G01X628617Y178670D01*
G01X627357Y181275D01*
G01X625539Y183353D01*
G01X623060Y184797D01*
G01X619819Y185501D01*
G01X652797Y216341D01*
G01X653349Y203774D01*
G01X654265Y195195D01*
G01X655123Y186616D01*
G01X655503Y174047D01*
G37*
G36*
G01X490394Y648055D02*
G01X508355Y630094D01*
G01X506500Y627921D01*
G01X504919Y625439D01*
G01X502515Y619821D01*
G01X501032Y613792D01*
G01X500353Y607903D01*
G01X468203Y640053D01*
G01X474092Y640732D01*
G01X480121Y642215D01*
G01X485739Y644619D01*
G01X488221Y646200D01*
G01X490394Y648055D01*
G37*
G36*
G01X-64550Y350500D02*
G01X-76799Y375900D01*
G01X-69574Y376159D01*
G01X-66189Y376627D01*
G01X-63086Y377450D01*
G01X-60363Y378724D01*
G01X-58117Y380547D01*
G01X-56446Y383015D01*
G01X-55449Y386224D01*
G01X-28432Y350651D01*
G01X-36701Y351022D01*
G01X-46474Y350926D01*
G01X-64550Y350500D01*
G37*
G36*
G01X473483Y711200D02*
G01X473483Y685800D01*
G01X470636Y685575D01*
G01X467762Y684938D01*
G01X462090Y682665D01*
G01X456777Y679451D01*
G01X452133Y675766D01*
G01X452133Y721234D01*
G01X456777Y717549D01*
G01X462090Y714335D01*
G01X467762Y712062D01*
G01X470636Y711425D01*
G01X473483Y711200D01*
G37*
G36*
G01X-297026Y231113D02*
G01X-314987Y249074D01*
G01X-313256Y251124D01*
G01X-311999Y253281D01*
G01X-310581Y257913D01*
G01X-310083Y262956D01*
G01X-309853Y268397D01*
G01X-277703Y236247D01*
G01X-283144Y236017D01*
G01X-288187Y235519D01*
G01X-292819Y234101D01*
G01X-294976Y232844D01*
G01X-297026Y231113D01*
G37*
G36*
G01X-105183Y571500D02*
G01X-105183Y596900D01*
G01X-102336Y597125D01*
G01X-99462Y597762D01*
G01X-93790Y600035D01*
G01X-88477Y603249D01*
G01X-83833Y606934D01*
G01X-83833Y561466D01*
G01X-88477Y565151D01*
G01X-93790Y568365D01*
G01X-99462Y570638D01*
G01X-102336Y571275D01*
G01X-105183Y571500D01*
G37*
G36*
G01X566603Y152400D02*
G01X645281Y152644D01*
G01X709379Y249637D01*
G01X651591Y204566D01*
G01X630103Y195397D01*
G02X553903Y177800I-76200J156184D01*
G01X566603Y152400D01*
G37*
G36*
G01X1034536Y9618D02*
G02X1006055Y63500I73119J73119D01*
G01X949994Y76200D01*
G01X919333Y63500D01*
G02X998615Y9618I-101600J-234763D01*
G01X1034536Y9618D01*
G37*
G04 TearDrop End*

G04 Pad Start*
G54D12*
G01X1446708Y-1141247D03*
G01X1192708Y-1141247D03*
G01X-77292Y-1141247D03*
G01X-585292Y-1141247D03*
G54D13*
G01X-1089182Y1501959D03*
G01X-1229187Y1501959D03*
G01X-1085698Y1676400D03*
G01X-1225702Y1676400D03*
G01X-1085698Y1320800D03*
G01X-1225702Y1320800D03*
G01X1924202Y88900D03*
G01X1784198Y88900D03*
G01X1924202Y266700D03*
G01X1784198Y266700D03*
G54D14*
G01X-583590Y120904D03*
G01X-583590Y215900D03*
G01X-583590Y310896D03*
G01X-813410Y310896D03*
G01X-813410Y215900D03*
G01X-813410Y120904D03*
G54D15*
G01X-193091Y165100D03*
G01X116891Y165100D03*
G54D17*
G01X-330200Y90107D03*
G54D18*
G01X-330200Y240094D03*
G54D19*
G01X-1654746Y126662D03*
G01X-1494853Y127348D03*
G54D20*
G01X-1270000Y-368300D03*
G01X-1270000Y-876300D03*
G54D21*
G01X-838200Y483464D03*
G01X-838200Y634136D03*
G54D22*
G01X-838200Y989736D03*
G01X-838200Y839064D03*
G54D23*
G01X481736Y165100D03*
G01X331064Y165100D03*
G01X-1194664Y127000D03*
G01X-1345336Y127000D03*
G01X-775564Y1536700D03*
G01X-926236Y1536700D03*
G54D24*
G01X-926236Y1384300D03*
G01X-775564Y1384300D03*
G54D25*
G01X-319976Y1472900D03*
G01X-239966Y1472900D03*
G01X-159982Y1472900D03*
G01X-79972Y1472900D03*
G01X38Y1472900D03*
G01X80023Y1472900D03*
G01X160033Y1472900D03*
G01X240017Y1472900D03*
G01X320027Y1472900D03*
G01X400012Y1472900D03*
G01X480022Y1472900D03*
G54D26*
G01X595008Y977905D03*
G01X595008Y897895D03*
G01X595008Y817910D03*
G01X595008Y737900D03*
G01X595008Y657890D03*
G01X595008Y577906D03*
G54D25*
G01X-479996Y482910D03*
G01X-399986Y482910D03*
G01X-320002Y482910D03*
G01X-239992Y482910D03*
G54D27*
G01X13Y977905D03*
G54D28*
G01X-594982Y1472900D03*
G01X-594982Y482910D03*
G01X595008Y482910D03*
G01X595008Y1472900D03*
G54D29*
G01X-594982Y1377904D03*
G01X-594982Y1297894D03*
G01X-594982Y1217910D03*
G01X-594982Y1137900D03*
G01X-594982Y1057915D03*
G01X-594982Y977905D03*
G01X-594982Y897920D03*
G01X-594982Y817910D03*
G01X-594982Y737900D03*
G01X-594982Y657916D03*
G01X-594982Y577906D03*
G54D25*
G01X-159982Y482910D03*
G01X-79972Y482910D03*
G01X13Y482910D03*
G01X80023Y482910D03*
G01X160007Y482910D03*
G01X240017Y482910D03*
G01X320002Y482910D03*
G01X400012Y482910D03*
G01X480022Y482910D03*
G54D29*
G01X595008Y1057890D03*
G01X595008Y1137900D03*
G01X595008Y1217884D03*
G01X595008Y1297920D03*
G01X595008Y1377904D03*
G54D25*
G01X-399986Y1472900D03*
G01X-479996Y1472900D03*
G54D27*
G01X197498Y977905D03*
G01X197498Y1175390D03*
G01X13Y1175390D03*
G01X-197498Y977905D03*
G01X-197498Y780395D03*
G01X13Y780395D03*
G01X197498Y780395D03*
G54D30*
G01X-197500Y1175400D03*
G54D31*
G01X1439995Y138303D03*
G01X1439995Y368300D03*
G01X1439995Y598297D03*
G54D32*
G01X846003Y368300D03*
G54D33*
G01X1689092Y457192D03*
G54D34*
G01X1689092Y584192D03*
G01X1689092Y711192D03*
G01X1689092Y838192D03*
G01X1689092Y965192D03*
G54D35*
G01X-1049274Y536194D03*
G01X-1049274Y586207D03*
G01X-1049274Y636194D03*
G01X-1049274Y686206D03*
G01X-1049274Y736194D03*
G01X-1049274Y786206D03*
G01X-1049274Y836193D03*
G01X-1049274Y886206D03*
G54D36*
G01X-1049274Y471195D03*
G01X-1049274Y391211D03*
G01X-1049274Y951205D03*
G01X-1049274Y1031189D03*
G54D37*
G01X-1541526Y279197D03*
G01X-1541526Y1143203D03*
G54D38*
G01X-1123518Y279197D03*
G01X-1123518Y1143203D03*
G54D39*
G01X-569392Y-1446047D03*
G01X-61392Y-1446047D03*
G01X1208608Y-1446047D03*
G01X1462608Y-1446047D03*
G04 Pad End*

G04 Via Start*
G54D40*
G01X-635000Y1587500D03*
G01X-431800Y1155700D03*
G01X-876300Y393700D03*
G01X-939800Y152400D03*
G01X-431800Y114300D03*
G01X1206500Y901700D03*
G01X355600Y749300D03*
G01X431800Y889000D03*
G01X850900Y787400D03*
G01X-1079500Y127000D03*
G01X622300Y215900D03*
G01X-139700Y304800D03*
G01X469900Y609600D03*
G01X-25400Y381000D03*
G01X431800Y698500D03*
G01X-1536700Y1409700D03*
G01X-1462659Y1409700D03*
G01X-1388618Y1409700D03*
G01X-1534541Y1333500D03*
G01X-1460500Y1333500D03*
G01X-1386459Y1333500D03*
G01X-1561020Y812800D03*
G01X-1412938Y812800D03*
G01X-1486979Y812800D03*
G01X-1558862Y736600D03*
G01X-1484820Y736600D03*
G01X-1410779Y736600D03*
G01X1372680Y-520700D03*
G01X1520762Y-520700D03*
G01X1446721Y-520700D03*
G01X1374838Y-596900D03*
G01X1448880Y-596900D03*
G01X1522921Y-596900D03*
G01X788480Y1295400D03*
G01X936562Y1295400D03*
G01X862521Y1295400D03*
G01X790638Y1219200D03*
G01X864680Y1219200D03*
G01X938721Y1219200D03*
G01X-444500Y788480D03*
G01X-444500Y862521D03*
G01X-444500Y936562D03*
G01X-368300Y938721D03*
G01X-368300Y864680D03*
G01X-368300Y790638D03*
G01X1057877Y739021D03*
G01X1131918Y739021D03*
G01X1205959Y739021D03*
G01X1208118Y662821D03*
G01X1134077Y662821D03*
G01X1060036Y662821D03*
G01X1067880Y266700D03*
G01X1141921Y266700D03*
G01X1215962Y266700D03*
G01X1218121Y190500D03*
G01X1144080Y190500D03*
G01X1070038Y190500D03*
G01X-279400Y266700D03*
G01X-508000Y241300D03*
G01X-63500Y584200D03*
G01X-63500Y914400D03*
G01X-139700Y912241D03*
G01X-139700Y838200D03*
G01X-63500Y840359D03*
G04 Via End*

G04 Track Start*
G54D41*
G01X-572592Y-1141247D02*
G01X-547192Y-1141247D01*
G54D11*
G01X-1085698Y1676400D02*
G01X-1085698Y1505444D01*
G01X-1089182Y1501959D01*
G01X-960977Y1501959D01*
G01X-926236Y1536700D01*
G01X-775564Y1386027D01*
G01X-775564Y1384300D01*
G01X-609173Y1217910D02*
G01X-594982Y1217910D01*
G01X-649039Y1242494D02*
G01X-633757Y1242494D01*
G01X-609173Y1217910D01*
G01X-431800Y1155700D02*
G01X-529585Y1057915D01*
G01X-594982Y1057915D01*
G01X-775564Y1536700D02*
G01X-685800Y1536700D01*
G01X-635000Y1587500D01*
G01X-1085698Y1320800D02*
G01X-989736Y1320800D01*
G01X-926236Y1384300D01*
G01X-594982Y817910D02*
G01X-597311Y820239D01*
G01X-649879Y820239D01*
G01X-667839Y838200D01*
G01X-667839Y1125903D01*
G01X-926236Y1384300D01*
G01X-775564Y1384300D02*
G01X-775564Y1369018D01*
G01X-649039Y1242494D01*
G01X-838200Y839064D02*
G01X-841070Y836193D01*
G01X-1049274Y836193D01*
G01X-838200Y634136D02*
G01X-936142Y536194D01*
G01X-1049274Y536194D01*
G01X-1043607Y680539D02*
G01X-1049274Y686206D01*
G01X-1049274Y736194D02*
G01X-1056361Y729106D01*
G01X-1125830Y729106D01*
G01X-1155700Y699237D01*
G01X-1155700Y647700D02*
G01X-1137739Y629739D01*
G01X-1055728Y629739D01*
G01X-1049274Y636194D01*
G01X-1155700Y699237D02*
G01X-1155700Y647700D01*
G01X-1049274Y786206D02*
G01X-967880Y786206D01*
G01X-956374Y698500D02*
G01X-974335Y680539D01*
G01X-1043607Y680539D01*
G01X-1049274Y636194D02*
G01X-925906Y636194D01*
G01X-909300Y652800D02*
G01X-909300Y686017D01*
G01X-925906Y636194D02*
G01X-909300Y652800D01*
G01X-748253Y161400D02*
G01X-772914Y161400D01*
G01X-813410Y120904D01*
G01X-726400Y695663D02*
G01X-726400Y183252D01*
G01X-748253Y161400D01*
G01X-956374Y752438D02*
G01X-956374Y698500D01*
G01X-909300Y686017D02*
G01X-878479Y716838D01*
G01X-762000Y362306D02*
G01X-813410Y310896D01*
G01X-878479Y716838D02*
G01X-797921Y716838D01*
G01X-762000Y680917D01*
G01X-762000Y362306D01*
G01X-956374Y752438D02*
G01X-783175Y752438D01*
G01X-726400Y695663D01*
G01X-967880Y786206D02*
G01X-956374Y774700D01*
G01X-956374Y752438D01*
G01X-1049274Y951205D02*
G01X-1071373Y929106D01*
G01X-1125830Y929106D01*
G01X-1142174Y912762D01*
G01X-1142174Y858305D01*
G01X-1206500Y793979D01*
G01X-1080795Y471195D02*
G01X-1049274Y471195D01*
G01X-1142174Y532574D02*
G01X-1142174Y509638D01*
G01X-1125830Y493294D01*
G01X-1102894Y493294D01*
G01X-1080795Y471195D01*
G01X-1206500Y596900D02*
G01X-1142174Y532574D01*
G01X-1206500Y793979D02*
G01X-1206500Y596900D01*
G01X-1049274Y471195D02*
G01X-1027189Y449111D01*
G01X-972718Y449111D01*
G01X-956374Y432767D01*
G01X-956374Y349654D01*
G01X-965200Y340828D01*
G01X-965200Y266700D01*
G01X-947239Y248739D01*
G01X-846249Y248739D01*
G01X-813410Y215900D01*
G01X-853905Y175404D01*
G01X-878566Y175404D01*
G01X-901571Y152400D01*
G01X-939800Y152400D01*
G01X-431800Y114300D02*
G01X-354393Y114300D01*
G01X-330200Y90107D01*
G01X-268084Y90107D01*
G01X-193091Y165100D01*
G01X116891Y165100D02*
G01X205791Y76200D01*
G01X331064Y165100D02*
G01X331064Y471848D01*
G01X320002Y482910D01*
G01X481736Y165100D02*
G01X642803Y165100D01*
G01X846003Y368300D01*
G01X1439995Y368300D01*
G01X1911502Y76200D02*
G01X1924202Y88900D01*
G01X1835754Y16000D02*
G01X1895954Y76200D01*
G01X1911502Y76200D01*
G01X1282641Y76200D02*
G01X1342841Y16000D01*
G01X1835754Y16000D01*
G01X1924202Y88900D02*
G01X1924202Y266700D01*
G01X1733710Y457192D01*
G01X1689092Y457192D01*
G01X1547988Y598297D01*
G01X1439995Y598297D01*
G01X1689092Y711192D02*
G01X1342395Y1057890D01*
G01X595008Y1057890D01*
G01X595008Y977905D02*
G01X1130295Y977905D01*
G01X1206500Y901700D01*
G01X850900Y787400D02*
G01X850900Y373197D01*
G01X846003Y368300D01*
G01X-594982Y1217910D02*
G01X-591173Y1214100D01*
G01X-373400Y1214100D01*
G01X-254000Y1333500D01*
G01X368300Y952500D02*
G01X431800Y889000D01*
G01X-254000Y1333500D02*
G01X279400Y1333500D01*
G01X368300Y1244600D01*
G01X368300Y952500D01*
G01X-1494853Y127348D02*
G01X-1345684Y127348D01*
G01X-1345336Y127000D01*
G01X-1194664Y127000D02*
G01X-1079500Y127000D01*
G01X622300Y215900D02*
G01X642803Y195397D01*
G01X642803Y165100D01*
G01X469900Y609600D02*
G01X518190Y657890D01*
G01X595008Y657890D01*
G01X-583590Y310896D02*
G01X-412550Y310896D01*
G01X-360246Y363200D01*
G01X-43200Y363200D01*
G01X-25400Y381000D01*
G01X431800Y698500D02*
G01X526159Y698500D01*
G01X540951Y713291D01*
G01X570398Y713291D01*
G01X595008Y737900D01*
G01X1205408Y-1141247D02*
G01X1205408Y-179214D01*
G01X949994Y76200D01*
G01X205791Y76200D02*
G01X949994Y76200D01*
G01X1282641Y76200D01*
G01X1221308Y-1446047D02*
G01X1026947Y-1446047D01*
G01X990600Y-1409700D01*
G01X990600Y-1168400D01*
G01X1017753Y-1141247D01*
G01X1205408Y-1141247D01*
G01X1475308Y-1446047D02*
G01X1504765Y-1416591D01*
G01X1629559Y-1291797D02*
G01X1651000Y-1270356D01*
G01X1504765Y-1416591D02*
G01X1557545Y-1416591D01*
G01X1629559Y-1344577D01*
G01X1629559Y-1291797D01*
G01X1585747Y-1141247D02*
G01X1459408Y-1141247D01*
G01X13Y977905D02*
G01X13Y1175390D01*
G01X13Y977905D02*
G01X13Y780395D01*
G01X13Y977905D02*
G01X-197498Y977905D01*
G01X13Y977905D02*
G01X197498Y977905D01*
G01X-197498Y780395D02*
G01X13Y780395D01*
G01X197498Y780395D01*
G01X-583590Y120904D02*
G01X-538846Y120904D01*
G01X-332150Y327600D01*
G01X-162500Y327600D01*
G01X-139700Y304800D01*
G01X-400802Y483725D02*
G01X-400803Y549668D01*
G01X-384459Y566012D01*
G01X-354986Y566012D01*
G01X-260596Y660401D01*
G01X317499Y749300D02*
G01X355600Y749300D01*
G01X-399986Y482910D02*
G01X-400802Y483725D01*
G01X297898Y696338D02*
G01X297898Y729700D01*
G01X317499Y749300D01*
G01X-260596Y660401D02*
G01X261962Y660401D01*
G01X297898Y696338D01*
G01X-218712Y584200D02*
G01X-63500Y584200D01*
G01X-320002Y482910D02*
G01X-295393Y507519D01*
G01X-295393Y536967D01*
G01X-279049Y553311D01*
G01X-249601Y553311D01*
G01X-218712Y584200D01*
G01X-330200Y240094D02*
G01X-306006Y240094D01*
G01X-279400Y266700D01*
G01X-583590Y215900D02*
G01X-533400Y215900D01*
G01X-508000Y241300D01*
G01X-1049274Y391211D02*
G01X-1123518Y316967D01*
G01X-1123518Y279197D01*
G01X1651000Y-1206500D02*
G01X1585747Y-1141247D01*
G01X1651000Y-1270356D02*
G01X1651000Y-1206500D01*
G04 Track End*

M02*

