G04 Layer: TopPasteMaskLayer*
G04 EasyEDA Pro v2.2.32.3, 2024-10-30 17:40:40*
G04 Gerber Generator version 0.3*
G04 Scale: 100 percent, Rotated: No, Reflected: No*
G04 Dimensions in millimeters*
G04 Leading zeros omitted, absolute positions, 3 integers and 5 decimals*
%FSLAX35Y35*%
%MOMM*%
%AMPolygonMacro1*4,1,5,-0.12499,0.72499,0.72499,0.72499,0.72499,-0.72499,-0.72499,-0.72499,-0.72499,0.12499,-0.12499,0.72499,0*%
%ADD10R,0.8X0.9*%
%ADD11R,1.07201X0.532*%
%ADD12R,1.0X1.2*%
%ADD13R,0.4X0.6*%
%ADD14R,0.4X0.6*%
%ADD15R,0.8X0.8*%
%ADD16R,0.55001X0.85001*%
%ADD17R,0.85001X0.55001*%
%ADD18R,1.45001X1.45001*%
%ADD19R,0.9X0.9*%
%ADD20R,0.85001X0.55001*%
%ADD21PolygonMacro1*%
%ADD22R,2.49999X1.1*%
%ADD23R,2.34X3.59999*%
G75*


G04 PolygonModel Start*
G36*
G01X-793201Y439298D02*
G01X-793201Y519298D01*
G01X-798203Y524299D01*
G01X-820999Y524299D01*
G01X-820999Y487299D01*
G01X-853999Y487299D01*
G01X-853999Y524299D01*
G01X-878202Y524299D01*
G01X-883201Y519298D01*
G01X-883201Y439298D01*
G01X-878202Y434299D01*
G01X-798203Y434299D01*
G01X-793201Y439298D01*
G37*
G36*
G01X-883199Y678302D02*
G01X-883199Y598302D01*
G01X-878197Y593301D01*
G01X-855401Y593301D01*
G01X-855401Y630301D01*
G01X-822401Y630301D01*
G01X-822401Y593301D01*
G01X-798198Y593301D01*
G01X-793199Y598302D01*
G01X-793199Y678302D01*
G01X-798198Y683301D01*
G01X-878197Y683301D01*
G01X-883199Y678302D01*
G37*
G36*
G01X-883199Y1033902D02*
G01X-883199Y953902D01*
G01X-878197Y948901D01*
G01X-855401Y948901D01*
G01X-855401Y985901D01*
G01X-822401Y985901D01*
G01X-822401Y948901D01*
G01X-798198Y948901D01*
G01X-793199Y953902D01*
G01X-793199Y1033902D01*
G01X-798198Y1038901D01*
G01X-878197Y1038901D01*
G01X-883199Y1033902D01*
G37*
G36*
G01X-793201Y794898D02*
G01X-793201Y874898D01*
G01X-798203Y879899D01*
G01X-820999Y879899D01*
G01X-820999Y842899D01*
G01X-853999Y842899D01*
G01X-853999Y879899D01*
G01X-878202Y879899D01*
G01X-883201Y874898D01*
G01X-883201Y794898D01*
G01X-878202Y789899D01*
G01X-798203Y789899D01*
G01X-793201Y794898D01*
G37*
G36*
G01X525902Y210099D02*
G01X445902Y210099D01*
G01X440901Y205097D01*
G01X440901Y182301D01*
G01X477901Y182301D01*
G01X477901Y149301D01*
G01X440901Y149301D01*
G01X440901Y125098D01*
G01X445902Y120099D01*
G01X525902Y120099D01*
G01X530901Y125098D01*
G01X530901Y205097D01*
G01X525902Y210099D01*
G37*
G36*
G01X286898Y120101D02*
G01X366898Y120101D01*
G01X371899Y125103D01*
G01X371899Y147899D01*
G01X334899Y147899D01*
G01X334899Y180899D01*
G01X371899Y180899D01*
G01X371899Y205102D01*
G01X366898Y210101D01*
G01X286898Y210101D01*
G01X281899Y205102D01*
G01X281899Y125103D01*
G01X286898Y120101D01*
G37*
G36*
G01X-1150498Y171999D02*
G01X-1230498Y171999D01*
G01X-1235499Y166997D01*
G01X-1235499Y144201D01*
G01X-1198499Y144201D01*
G01X-1198499Y111201D01*
G01X-1235499Y111201D01*
G01X-1235499Y86998D01*
G01X-1230498Y81999D01*
G01X-1150498Y81999D01*
G01X-1145499Y86998D01*
G01X-1145499Y166997D01*
G01X-1150498Y171999D01*
G37*
G36*
G01X-1389502Y82001D02*
G01X-1309502Y82001D01*
G01X-1304501Y87003D01*
G01X-1304501Y109799D01*
G01X-1341501Y109799D01*
G01X-1341501Y142799D01*
G01X-1304501Y142799D01*
G01X-1304501Y167002D01*
G01X-1309502Y172001D01*
G01X-1389502Y172001D01*
G01X-1394501Y167002D01*
G01X-1394501Y87003D01*
G01X-1389502Y82001D01*
G37*
G36*
G01X-731398Y1581699D02*
G01X-811398Y1581699D01*
G01X-816399Y1576697D01*
G01X-816399Y1553901D01*
G01X-779399Y1553901D01*
G01X-779399Y1520901D01*
G01X-816399Y1520901D01*
G01X-816399Y1496698D01*
G01X-811398Y1491699D01*
G01X-731398Y1491699D01*
G01X-726399Y1496698D01*
G01X-726399Y1576697D01*
G01X-731398Y1581699D01*
G37*
G36*
G01X-970402Y1491701D02*
G01X-890402Y1491701D01*
G01X-885401Y1496703D01*
G01X-885401Y1519499D01*
G01X-922401Y1519499D01*
G01X-922401Y1552499D01*
G01X-885401Y1552499D01*
G01X-885401Y1576702D01*
G01X-890402Y1581701D01*
G01X-970402Y1581701D01*
G01X-975401Y1576702D01*
G01X-975401Y1496703D01*
G01X-970402Y1491701D01*
G37*
G36*
G01X-970402Y1339301D02*
G01X-890402Y1339301D01*
G01X-885401Y1344303D01*
G01X-885401Y1367099D01*
G01X-922401Y1367099D01*
G01X-922401Y1400099D01*
G01X-885401Y1400099D01*
G01X-885401Y1424302D01*
G01X-890402Y1429301D01*
G01X-970402Y1429301D01*
G01X-975401Y1424302D01*
G01X-975401Y1344303D01*
G01X-970402Y1339301D01*
G37*
G36*
G01X-731398Y1429299D02*
G01X-811398Y1429299D01*
G01X-816399Y1424297D01*
G01X-816399Y1401501D01*
G01X-779399Y1401501D01*
G01X-779399Y1368501D01*
G01X-816399Y1368501D01*
G01X-816399Y1344298D01*
G01X-811398Y1339299D01*
G01X-731398Y1339299D01*
G01X-726399Y1344298D01*
G01X-726399Y1424297D01*
G01X-731398Y1429299D01*
G37*
G36*
G01X-1511544Y339181D02*
G02X-1511544Y219177I0J-60002D01*
G01X-1571536Y219177D01*
G02X-1571536Y339181I0J60002D01*
G01X-1511544Y339181D01*
G37*
G36*
G01X-1511544Y1203185D02*
G02X-1511544Y1083188I-390J-59999D01*
G01X-1571536Y1083188D01*
G02X-1571536Y1203185I390J59999D01*
G01X-1511544Y1203185D01*
G37*
G36*
G01X-1073531Y339181D02*
G02X-1073531Y219177I0J-60002D01*
G01X-1173531Y219177D01*
G02X-1173531Y339181I0J60002D01*
G01X-1073531Y339181D01*
G37*
G36*
G01X-1073531Y1203185D02*
G02X-1073531Y1083188I-390J-59999D01*
G01X-1173531Y1083188D01*
G02X-1173531Y1203185I390J59999D01*
G01X-1073531Y1203185D01*
G37*
G36*
G01X-984275Y551190D02*
G01X-984275Y521188D01*
G01X-1114283Y521188D01*
G01X-1114283Y551190D01*
G01X-984275Y551190D01*
G37*
G36*
G01X-984275Y601198D02*
G01X-984275Y571195D01*
G01X-1114283Y571195D01*
G01X-1114283Y601198D01*
G01X-984275Y601198D01*
G37*
G36*
G01X-984275Y651193D02*
G01X-984275Y621190D01*
G01X-1114283Y621190D01*
G01X-1114283Y651193D01*
G01X-984275Y651193D01*
G37*
G36*
G01X-984275Y701205D02*
G01X-984275Y671203D01*
G01X-1114283Y671203D01*
G01X-1114283Y701205D01*
G01X-984275Y701205D01*
G37*
G36*
G01X-984275Y751187D02*
G01X-984275Y721190D01*
G01X-1114283Y721190D01*
G01X-1114283Y751187D01*
G01X-984275Y751187D01*
G37*
G36*
G01X-984275Y801200D02*
G01X-984275Y771197D01*
G01X-1114283Y771197D01*
G01X-1114283Y801200D01*
G01X-984275Y801200D01*
G37*
G36*
G01X-984275Y851190D02*
G01X-984275Y821192D01*
G01X-1114283Y821192D01*
G01X-1114283Y851190D01*
G01X-984275Y851190D01*
G37*
G36*
G01X-984275Y901200D02*
G01X-984275Y871205D01*
G01X-1114283Y871205D01*
G01X-1114283Y901200D01*
G01X-984275Y901200D01*
G37*
G36*
G01X-984275Y501190D02*
G01X-984275Y441190D01*
G01X-1114283Y441190D01*
G01X-1114283Y501190D01*
G01X-984275Y501190D01*
G37*
G36*
G01X-984275Y421211D02*
G01X-984275Y361206D01*
G01X-1114283Y361206D01*
G01X-1114283Y421211D01*
G01X-984275Y421211D01*
G37*
G36*
G01X-984275Y981205D02*
G01X-984275Y921205D01*
G01X-1114283Y921205D01*
G01X-1114283Y981205D01*
G01X-984275Y981205D01*
G37*
G36*
G01X-984275Y1061179D02*
G01X-984275Y1001184D01*
G01X-1114283Y1001184D01*
G01X-1114283Y1061179D01*
G01X-984275Y1061179D01*
G37*

G04 Pad Start*
G54D10*
G01X-1089182Y1501959D03*
G01X-1229187Y1501959D03*
G01X-1085698Y1676400D03*
G01X-1225702Y1676400D03*
G01X-1085698Y1320800D03*
G01X-1225702Y1320800D03*
G01X1924202Y88900D03*
G01X1784198Y88900D03*
G01X1924202Y266700D03*
G01X1784198Y266700D03*
G54D11*
G01X-583590Y120904D03*
G01X-583590Y215900D03*
G01X-583590Y310896D03*
G01X-813410Y310896D03*
G01X-813410Y215900D03*
G01X-813410Y120904D03*
G54D12*
G01X-193091Y165100D03*
G01X116891Y165100D03*
G54D13*
G01X-330200Y90107D03*
G54D14*
G01X-330200Y240094D03*
G54D15*
G01X-1654746Y126662D03*
G01X-1494853Y127348D03*
G54D16*
G01X-319976Y1472900D03*
G01X-239966Y1472900D03*
G01X-159982Y1472900D03*
G01X-79972Y1472900D03*
G01X38Y1472900D03*
G01X80023Y1472900D03*
G01X160033Y1472900D03*
G01X240017Y1472900D03*
G01X320027Y1472900D03*
G01X400012Y1472900D03*
G01X480022Y1472900D03*
G54D17*
G01X595008Y977905D03*
G01X595008Y897895D03*
G01X595008Y817910D03*
G01X595008Y737900D03*
G01X595008Y657890D03*
G01X595008Y577906D03*
G54D16*
G01X-479996Y482910D03*
G01X-399986Y482910D03*
G01X-320002Y482910D03*
G01X-239992Y482910D03*
G54D18*
G01X13Y977905D03*
G54D19*
G01X-594982Y1472900D03*
G01X-594982Y482910D03*
G01X595008Y482910D03*
G01X595008Y1472900D03*
G54D20*
G01X-594982Y1377904D03*
G01X-594982Y1297894D03*
G01X-594982Y1217910D03*
G01X-594982Y1137900D03*
G01X-594982Y1057915D03*
G01X-594982Y977905D03*
G01X-594982Y897920D03*
G01X-594982Y817910D03*
G01X-594982Y737900D03*
G01X-594982Y657916D03*
G01X-594982Y577906D03*
G54D16*
G01X-159982Y482910D03*
G01X-79972Y482910D03*
G01X13Y482910D03*
G01X80023Y482910D03*
G01X160007Y482910D03*
G01X240017Y482910D03*
G01X320002Y482910D03*
G01X400012Y482910D03*
G01X480022Y482910D03*
G54D20*
G01X595008Y1057890D03*
G01X595008Y1137900D03*
G01X595008Y1217884D03*
G01X595008Y1297920D03*
G01X595008Y1377904D03*
G54D16*
G01X-399986Y1472900D03*
G01X-479996Y1472900D03*
G54D18*
G01X197498Y977905D03*
G01X197498Y1175390D03*
G01X13Y1175390D03*
G01X-197498Y977905D03*
G01X-197498Y780395D03*
G01X13Y780395D03*
G01X197498Y780395D03*
G54D21*
G01X-197500Y1175400D03*
G54D22*
G01X1439995Y138303D03*
G01X1439995Y368300D03*
G01X1439995Y598297D03*
G54D23*
G01X846003Y368300D03*
G04 Pad End*

M02*

